<svg width="260" height="260" viewBox="0 0 260 260" fill="none" xmlns="http://www.w3.org/2000/svg">
<g clip-path="url(#clip0_387_1005)">
<path d="M109.688 134.062C108.848 134.062 108.082 133.824 107.388 133.347L42.3882 88.66C42.1769 88.5056 41.9792 88.3323 41.8005 88.14C41.6217 87.9477 41.4646 87.7419 41.3265 87.5198C41.1857 87.295 41.0719 87.0621 40.9771 86.8183C40.885 86.5719 40.8146 86.32 40.7713 86.0627C40.7253 85.8027 40.7063 85.5427 40.7117 85.28C40.7198 85.0173 40.7496 84.76 40.8065 84.5027C40.8607 84.2454 40.9419 83.9989 41.0475 83.7579C41.1505 83.5169 41.2778 83.2867 41.4267 83.0727C41.573 82.856 41.7409 82.6556 41.9305 82.4714C42.1173 82.2873 42.3205 82.1248 42.5398 81.9785C42.7565 81.835 42.9894 81.7131 43.2305 81.6129C43.4742 81.5154 43.7234 81.4396 43.9807 81.3881C44.238 81.3367 44.498 81.3096 44.7607 81.3096C45.0234 81.3096 45.2834 81.3339 45.5407 81.3827C45.798 81.4314 46.0498 81.5046 46.2909 81.6048C46.5346 81.7023 46.7675 81.8214 46.9869 81.965L109.688 125.071L143.951 101.508C144.17 101.359 144.403 101.232 144.649 101.126C144.893 101.021 145.145 100.942 145.408 100.888C145.668 100.831 145.93 100.804 146.199 100.801C146.464 100.796 146.729 100.82 146.989 100.869C147.252 100.918 147.507 100.991 147.756 101.091C148.002 101.189 148.238 101.313 148.46 101.457C148.685 101.603 148.891 101.768 149.083 101.955C149.273 102.142 149.443 102.342 149.595 102.565C149.747 102.784 149.874 103.014 149.979 103.261C150.082 103.504 150.164 103.759 150.218 104.019C150.275 104.279 150.304 104.542 150.307 104.81C150.31 105.075 150.288 105.341 150.239 105.603C150.191 105.863 150.118 106.118 150.02 106.367C149.92 106.614 149.798 106.849 149.654 107.074C149.508 107.296 149.343 107.505 149.156 107.694C148.972 107.886 148.769 108.057 148.549 108.209L111.987 133.342C111.294 133.821 110.527 134.06 109.688 134.062Z" fill="#121212"/>
<path d="M42.3827 163.207L101.479 122.595L106.083 129.29L46.9841 169.902L42.3827 163.207Z" fill="#121212"/>
<path d="M113.295 129.288L117.899 122.593L176.987 163.218L172.385 169.913L113.295 129.288Z" fill="#121212"/>
<path d="M174.688 170.625H44.6875C44.4221 170.625 44.1567 170.598 43.894 170.546C43.634 170.495 43.3794 170.416 43.1329 170.316C42.8865 170.213 42.6535 170.089 42.4315 169.94C42.2094 169.791 42.0035 169.623 41.814 169.436C41.6271 169.246 41.4592 169.041 41.3102 168.819C41.1613 168.596 41.0367 168.364 40.9338 168.117C40.8308 167.871 40.755 167.616 40.7035 167.356C40.6521 167.093 40.625 166.828 40.625 166.562V85.3125C40.625 85.0471 40.6521 84.7817 40.7035 84.519C40.755 84.259 40.8308 84.0044 40.9338 83.7579C41.0367 83.5115 41.1613 83.2785 41.3102 83.0565C41.4592 82.8344 41.6271 82.6285 41.814 82.439C42.0035 82.2521 42.2094 82.0842 42.4315 81.9352C42.6535 81.7863 42.8865 81.6617 43.1329 81.5588C43.3794 81.4558 43.634 81.38 43.894 81.3285C44.1567 81.2771 44.4221 81.25 44.6875 81.25H130V89.375H48.75V162.5H170.625V113.75H178.75V166.562C178.75 166.828 178.723 167.093 178.671 167.356C178.62 167.616 178.544 167.871 178.441 168.117C178.338 168.364 178.214 168.596 178.065 168.819C177.916 169.041 177.748 169.246 177.561 169.436C177.371 169.623 177.166 169.791 176.944 169.94C176.721 170.089 176.489 170.213 176.242 170.316C175.996 170.416 175.741 170.495 175.481 170.546C175.218 170.598 174.953 170.625 174.688 170.625Z" fill="#121212"/>
<path d="M134.062 260H24.375C23.7087 260 23.0452 259.965 22.3844 259.9C21.7235 259.835 21.0654 259.737 20.4127 259.605C19.7627 259.475 19.1181 259.312 18.4817 259.12C17.8452 258.927 17.2196 258.703 16.6048 258.448C15.99 258.194 15.3915 257.909 14.8038 257.595C14.2188 257.281 13.6473 256.94 13.0948 256.569C12.5423 256.2 12.0087 255.805 11.4942 255.382C10.9823 254.96 10.4894 254.513 10.0181 254.044C9.54958 253.573 9.10271 253.08 8.68021 252.568C8.25771 252.054 7.86229 251.52 7.49396 250.968C7.12292 250.415 6.78167 249.844 6.4675 249.259C6.15333 248.671 5.86896 248.072 5.61437 247.458C5.35979 246.843 5.135 246.217 4.94271 245.581C4.75042 244.944 4.58792 244.3 4.45792 243.65C4.32521 242.997 4.22771 242.339 4.16271 241.678C4.09771 241.015 4.0625 240.354 4.0625 239.688V20.3125C4.0625 19.6462 4.09771 18.9827 4.16271 18.3219C4.22771 17.661 4.32521 17.0029 4.45792 16.3502C4.58792 15.7002 4.75042 15.0556 4.94271 14.4192C5.135 13.7827 5.35979 13.1571 5.61437 12.5423C5.86896 11.9275 6.15333 11.329 6.4675 10.7413C6.78167 10.1563 7.12292 9.58479 7.49396 9.03229C7.86229 8.47979 8.25771 7.94625 8.68021 7.43167C9.10271 6.91979 9.54958 6.42687 10.0181 5.95563C10.4894 5.48708 10.9823 5.04021 11.4942 4.61771C12.0087 4.19521 12.5423 3.79979 13.0948 3.43146C13.6473 3.06042 14.2188 2.71917 14.8038 2.405C15.3915 2.09083 15.99 1.80646 16.6048 1.55187C17.2196 1.29729 17.8452 1.0725 18.4817 0.880208C19.1181 0.687917 19.7627 0.525416 20.4127 0.395416C21.0654 0.262708 21.7235 0.165208 22.3844 0.100208C23.0452 0.0352083 23.7087 0 24.375 0H134.062C134.729 0 135.39 0.0352083 136.053 0.100208C136.714 0.165208 137.372 0.262708 138.025 0.395416C138.675 0.525416 139.319 0.687917 139.956 0.880208C140.592 1.0725 141.218 1.29729 141.833 1.55187C142.447 1.80646 143.046 2.09083 143.634 2.405C144.219 2.71917 144.79 3.06042 145.343 3.43146C145.895 3.79979 146.429 4.19521 146.943 4.61771C147.455 5.04021 147.948 5.48708 148.419 5.95563C148.888 6.42687 149.335 6.91979 149.757 7.43167C150.18 7.94625 150.575 8.47979 150.944 9.03229C151.315 9.58479 151.656 10.1563 151.97 10.7413C152.284 11.329 152.569 11.9275 152.823 12.5423C153.078 13.1571 153.303 13.7827 153.495 14.4192C153.687 15.0556 153.85 15.7002 153.98 16.3502C154.112 17.0029 154.21 17.661 154.275 18.3219C154.34 18.9827 154.375 19.6462 154.375 20.3125V24.375H146.25V20.3125C146.25 19.9144 146.231 19.5163 146.19 19.1181C146.152 18.72 146.093 18.3273 146.017 17.9346C145.939 17.5446 145.841 17.1573 145.725 16.7754C145.608 16.3935 145.475 16.0171 145.321 15.6488C145.169 15.2804 144.999 14.9202 144.812 14.5681C144.622 14.216 144.416 13.8721 144.197 13.5417C143.975 13.2085 143.737 12.889 143.485 12.5802C143.23 12.2715 142.962 11.9762 142.68 11.6946C142.399 11.4129 142.104 11.1448 141.795 10.8902C141.486 10.6383 141.166 10.4 140.833 10.1779C140.503 9.95854 140.159 9.75271 139.807 9.56312C139.455 9.37625 139.095 9.20562 138.726 9.05396C138.358 8.89958 137.981 8.76687 137.6 8.65042C137.218 8.53396 136.83 8.43646 136.44 8.35792C136.048 8.28208 135.655 8.2225 135.257 8.18458C134.859 8.14396 134.461 8.125 134.062 8.125H24.375C23.9769 8.125 23.5787 8.14396 23.1806 8.18458C22.7825 8.2225 22.3898 8.28208 21.9971 8.35792C21.6071 8.43646 21.2198 8.53396 20.8379 8.65042C20.456 8.76687 20.0796 8.89958 19.7113 9.05396C19.3429 9.20562 18.9827 9.37625 18.6306 9.56312C18.2785 9.75271 17.9346 9.95854 17.6042 10.1779C17.271 10.4 16.9515 10.6383 16.6427 10.8902C16.334 11.1448 16.0387 11.4129 15.7571 11.6946C15.4754 11.9762 15.2073 12.2715 14.9527 12.5802C14.7008 12.889 14.4625 13.2085 14.2404 13.5417C14.021 13.8721 13.8152 14.216 13.6256 14.5681C13.4387 14.9202 13.2681 15.2804 13.1165 15.6488C12.9621 16.0171 12.8294 16.3935 12.7129 16.7754C12.5965 17.1573 12.499 17.5446 12.4204 17.9346C12.3446 18.3273 12.285 18.72 12.2471 19.1181C12.2065 19.5163 12.1875 19.9144 12.1875 20.3125V239.688C12.1875 240.086 12.2065 240.484 12.2471 240.882C12.285 241.28 12.3446 241.673 12.4204 242.065C12.499 242.455 12.5965 242.843 12.7129 243.225C12.8294 243.606 12.9621 243.983 13.1165 244.351C13.2681 244.72 13.4387 245.08 13.6256 245.432C13.8152 245.784 14.021 246.128 14.2404 246.458C14.4625 246.791 14.7008 247.111 14.9527 247.42C15.2073 247.729 15.4754 248.024 15.7571 248.305C16.0387 248.587 16.334 248.855 16.6427 249.11C16.9515 249.362 17.271 249.6 17.6042 249.822C17.9346 250.041 18.2785 250.247 18.6306 250.437C18.9827 250.624 19.3429 250.794 19.7113 250.946C20.0796 251.1 20.456 251.233 20.8379 251.35C21.2198 251.466 21.6071 251.564 21.9971 251.642C22.3898 251.718 22.7825 251.777 23.1806 251.815C23.5787 251.856 23.9769 251.875 24.375 251.875H134.062C134.461 251.875 134.859 251.856 135.257 251.815C135.655 251.777 136.048 251.718 136.44 251.642C136.83 251.564 137.218 251.466 137.6 251.35C137.981 251.233 138.358 251.1 138.726 250.946C139.095 250.794 139.455 250.624 139.807 250.437C140.159 250.247 140.503 250.041 140.833 249.822C141.166 249.6 141.486 249.362 141.795 249.11C142.104 248.855 142.399 248.587 142.68 248.305C142.962 248.024 143.23 247.729 143.485 247.42C143.737 247.111 143.975 246.791 144.197 246.458C144.416 246.128 144.622 245.784 144.812 245.432C144.999 245.08 145.169 244.72 145.321 244.351C145.475 243.983 145.608 243.606 145.725 243.225C145.841 242.843 145.939 242.455 146.017 242.065C146.093 241.673 146.152 241.28 146.19 240.882C146.231 240.484 146.25 240.086 146.25 239.688V166.562H154.375V239.688C154.375 240.354 154.34 241.015 154.275 241.678C154.21 242.339 154.112 242.997 153.98 243.65C153.85 244.3 153.687 244.944 153.495 245.581C153.303 246.217 153.078 246.843 152.823 247.458C152.569 248.072 152.284 248.671 151.97 249.259C151.656 249.844 151.315 250.415 150.944 250.968C150.575 251.52 150.18 252.054 149.757 252.568C149.335 253.08 148.888 253.573 148.419 254.044C147.948 254.513 147.455 254.96 146.943 255.382C146.429 255.805 145.895 256.2 145.343 256.569C144.79 256.94 144.219 257.281 143.634 257.595C143.046 257.909 142.447 258.194 141.833 258.448C141.218 258.703 140.592 258.927 139.956 259.12C139.319 259.312 138.675 259.475 138.025 259.605C137.372 259.737 136.714 259.835 136.053 259.9C135.39 259.965 134.729 260 134.062 260Z" fill="#121212"/>
<path d="M4.0625 77.1875C3.79708 77.1875 3.53167 77.1604 3.26896 77.109C3.00896 77.0575 2.75437 76.9817 2.50792 76.8787C2.26146 76.7758 2.02854 76.6513 1.80646 76.5023C1.58437 76.3533 1.37854 76.1854 1.18896 75.9985C1.00208 75.809 0.834167 75.6031 0.685208 75.381C0.53625 75.159 0.411667 74.926 0.30875 74.6796C0.205833 74.4331 0.13 74.1785 0.0785415 73.9185C0.0270833 73.6558 0 73.3904 0 73.125V48.75C0 48.4846 0.0270833 48.2192 0.0785415 47.9565C0.13 47.6965 0.205833 47.4419 0.30875 47.1954C0.411667 46.949 0.53625 46.716 0.685208 46.494C0.834167 46.2719 1.00208 46.066 1.18896 45.8765C1.37854 45.6896 1.58437 45.5217 1.80646 45.3727C2.02854 45.2237 2.26146 45.0992 2.50792 44.9963C2.75437 44.8933 3.00896 44.8175 3.26896 44.766C3.53167 44.7146 3.79708 44.6875 4.0625 44.6875C4.32792 44.6875 4.59333 44.7146 4.85604 44.766C5.11604 44.8175 5.37063 44.8933 5.61708 44.9963C5.86354 45.0992 6.09646 45.2237 6.31854 45.3727C6.54063 45.5217 6.74646 45.6896 6.93604 45.8765C7.12292 46.066 7.29083 46.2719 7.43979 46.494C7.58875 46.716 7.71333 46.949 7.81625 47.1954C7.91917 47.4419 7.995 47.6965 8.04646 47.9565C8.09792 48.2192 8.125 48.4846 8.125 48.75V73.125C8.125 73.3904 8.09792 73.6558 8.04646 73.9185C7.995 74.1785 7.91917 74.4331 7.81625 74.6796C7.71333 74.926 7.58875 75.159 7.43979 75.381C7.29083 75.6031 7.12292 75.809 6.93604 75.9985C6.74646 76.1854 6.54063 76.3533 6.31854 76.5023C6.09646 76.6513 5.86354 76.7758 5.61708 76.8787C5.37063 76.9817 5.11604 77.0575 4.85604 77.109C4.59333 77.1604 4.32792 77.1875 4.0625 77.1875Z" fill="#121212"/>
<path d="M4.0625 101.562C3.79708 101.562 3.53167 101.535 3.26896 101.484C3.00896 101.432 2.75437 101.357 2.50792 101.254C2.26146 101.151 2.02854 101.026 1.80646 100.877C1.58437 100.728 1.37854 100.56 1.18896 100.374C1.00208 100.184 0.834167 99.9781 0.685208 99.756C0.53625 99.534 0.411667 99.301 0.30875 99.0546C0.205833 98.8081 0.13 98.5535 0.0785415 98.2935C0.0270833 98.0308 0 97.7654 0 97.5V89.375C0 89.1096 0.0270833 88.8442 0.0785415 88.5815C0.13 88.3215 0.205833 88.0669 0.30875 87.8204C0.411667 87.574 0.53625 87.341 0.685208 87.119C0.834167 86.8969 1.00208 86.691 1.18896 86.5015C1.37854 86.3146 1.58437 86.1467 1.80646 85.9977C2.02854 85.8487 2.26146 85.7242 2.50792 85.6213C2.75437 85.5183 3.00896 85.4425 3.26896 85.391C3.53167 85.3396 3.79708 85.3125 4.0625 85.3125C4.32792 85.3125 4.59333 85.3396 4.85604 85.391C5.11604 85.4425 5.37063 85.5183 5.61708 85.6213C5.86354 85.7242 6.09646 85.8487 6.31854 85.9977C6.54063 86.1467 6.74646 86.3146 6.93604 86.5015C7.12292 86.691 7.29083 86.8969 7.43979 87.119C7.58875 87.341 7.71333 87.574 7.81625 87.8204C7.91917 88.0669 7.995 88.3215 8.04646 88.5815C8.09792 88.8442 8.125 89.1096 8.125 89.375V97.5C8.125 97.7654 8.09792 98.0308 8.04646 98.2935C7.995 98.5535 7.91917 98.8081 7.81625 99.0546C7.71333 99.301 7.58875 99.534 7.43979 99.756C7.29083 99.9781 7.12292 100.184 6.93604 100.374C6.74646 100.56 6.54063 100.728 6.31854 100.877C6.09646 101.026 5.86354 101.151 5.61708 101.254C5.37063 101.357 5.11604 101.432 4.85604 101.484C4.59333 101.535 4.32792 101.562 4.0625 101.562Z" fill="#121212"/>
<path d="M150.312 24.375H8.125C7.85958 24.375 7.59417 24.3479 7.33146 24.2965C7.07146 24.245 6.81687 24.1692 6.57042 24.0662C6.32396 23.9633 6.09104 23.8387 5.86896 23.6898C5.64687 23.5408 5.44104 23.3729 5.25146 23.186C5.06458 22.9965 4.89667 22.7906 4.74771 22.5685C4.59875 22.3465 4.47417 22.1135 4.37125 21.8671C4.26833 21.6206 4.1925 21.366 4.14104 21.106C4.08958 20.8433 4.0625 20.5779 4.0625 20.3125C4.0625 20.0471 4.08958 19.7817 4.14104 19.519C4.1925 19.259 4.26833 19.0044 4.37125 18.7579C4.47417 18.5115 4.59875 18.2785 4.74771 18.0565C4.89667 17.8344 5.06458 17.6285 5.25146 17.439C5.44104 17.2521 5.64687 17.0842 5.86896 16.9352C6.09104 16.7863 6.32396 16.6617 6.57042 16.5588C6.81687 16.4558 7.07146 16.38 7.33146 16.3285C7.59417 16.2771 7.85958 16.25 8.125 16.25H150.312C150.578 16.25 150.843 16.2771 151.106 16.3285C151.366 16.38 151.621 16.4558 151.867 16.5588C152.114 16.6617 152.346 16.7863 152.569 16.9352C152.791 17.0842 152.996 17.2521 153.186 17.439C153.373 17.6285 153.541 17.8344 153.69 18.0565C153.839 18.2785 153.963 18.5115 154.066 18.7579C154.169 19.0044 154.245 19.259 154.296 19.519C154.348 19.7817 154.375 20.0471 154.375 20.3125C154.375 20.5779 154.348 20.8433 154.296 21.106C154.245 21.366 154.169 21.6206 154.066 21.8671C153.963 22.1135 153.839 22.3465 153.69 22.5685C153.541 22.7906 153.373 22.9965 153.186 23.186C152.996 23.3729 152.791 23.5408 152.569 23.6898C152.346 23.8387 152.114 23.9633 151.867 24.0662C151.621 24.1692 151.366 24.245 151.106 24.2965C150.843 24.3479 150.578 24.375 150.312 24.375Z" fill="#121212"/>
<path d="M8.125 235.625H150.312V243.75H8.125V235.625Z" fill="#121212"/>
<path d="M195 73.125C194.461 73.125 193.944 73.0221 193.445 72.8163C192.947 72.6104 192.508 72.3152 192.126 71.9361L184.001 63.8084C183.82 63.6188 183.657 63.4156 183.514 63.1936C183.37 62.9715 183.248 62.7386 183.151 62.4921C183.053 62.2484 182.98 61.9965 182.932 61.7365C182.883 61.4765 182.861 61.2165 182.861 60.9511C182.864 60.6884 182.894 60.4284 182.945 60.1684C182.999 59.9111 183.075 59.6592 183.178 59.4154C183.281 59.1744 183.406 58.9415 183.552 58.7221C183.698 58.5027 183.866 58.3023 184.053 58.1154C184.24 57.9286 184.44 57.7606 184.66 57.6144C184.879 57.4681 185.112 57.3436 185.353 57.2406C185.597 57.1377 185.848 57.0619 186.106 57.0077C186.366 56.9563 186.626 56.9265 186.888 56.9238C187.154 56.9238 187.414 56.9454 187.674 56.9942C187.934 57.0429 188.186 57.1161 188.43 57.2136C188.676 57.3111 188.909 57.4329 189.131 57.5765C189.353 57.72 189.556 57.8825 189.746 58.0667L197.871 66.1917C198.155 66.4734 198.393 66.7929 198.583 67.1477C198.773 67.5025 198.905 67.8763 198.984 68.269C199.062 68.6644 199.081 69.0598 199.041 69.4606C199.003 69.8615 198.905 70.2461 198.754 70.6171C198.599 70.9881 198.393 71.3294 198.139 71.6409C197.884 71.9496 197.589 72.2177 197.256 72.4398C196.923 72.6646 196.563 72.8325 196.178 72.949C195.793 73.0654 195.401 73.125 195 73.125Z" fill="#121212"/>
<path d="M186.875 73.125C186.474 73.125 186.081 73.0654 185.697 72.949C185.312 72.8325 184.952 72.6646 184.619 72.4398C184.286 72.2177 183.991 71.9496 183.736 71.6409C183.481 71.3294 183.276 70.9881 183.121 70.6171C182.97 70.2461 182.872 69.8615 182.834 69.4606C182.794 69.0598 182.812 68.6644 182.891 68.269C182.97 67.8763 183.102 67.5025 183.292 67.1477C183.481 66.7929 183.72 66.4734 184.001 66.189L192.126 58.064C192.319 57.8825 192.522 57.72 192.744 57.5765C192.966 57.4329 193.199 57.3111 193.445 57.2136C193.689 57.1161 193.941 57.0429 194.201 56.9942C194.461 56.9454 194.721 56.9238 194.986 56.9238C195.249 56.9265 195.509 56.9563 195.769 57.0077C196.026 57.0619 196.278 57.1377 196.522 57.2406C196.763 57.3436 196.996 57.4681 197.215 57.6144C197.435 57.7606 197.635 57.9286 197.822 58.1154C198.009 58.3023 198.177 58.5027 198.323 58.7221C198.469 58.9415 198.594 59.1744 198.697 59.4154C198.8 59.6592 198.876 59.9111 198.93 60.1684C198.981 60.4284 199.011 60.6884 199.014 60.9511C199.014 61.2165 198.992 61.4765 198.943 61.7365C198.895 61.9965 198.821 62.2484 198.724 62.4921C198.626 62.7386 198.505 62.9715 198.361 63.1936C198.217 63.4156 198.055 63.6188 197.871 63.8084L189.746 71.9334C189.367 72.3152 188.928 72.6104 188.43 72.8163C187.931 73.0221 187.414 73.125 186.875 73.125Z" fill="#121212"/>
<path d="M223.438 73.125C222.899 73.125 222.381 73.0221 221.883 72.8163C221.385 72.6104 220.946 72.3152 220.564 71.9361L212.439 63.8084C212.258 63.6188 212.095 63.4156 211.952 63.1936C211.808 62.9715 211.686 62.7386 211.589 62.4921C211.491 62.2484 211.418 61.9965 211.369 61.7365C211.32 61.4765 211.299 61.2165 211.299 60.9511C211.302 60.6884 211.331 60.4284 211.383 60.1684C211.437 59.9111 211.513 59.6592 211.616 59.4154C211.719 59.1744 211.843 58.9415 211.989 58.7221C212.136 58.5027 212.304 58.3023 212.49 58.1154C212.677 57.9286 212.878 57.7606 213.097 57.6144C213.317 57.4681 213.549 57.3436 213.79 57.2406C214.034 57.1377 214.286 57.0619 214.543 57.0077C214.803 56.9563 215.063 56.9265 215.326 56.9238C215.592 56.9238 215.852 56.9454 216.112 56.9942C216.372 57.0429 216.623 57.1161 216.867 57.2136C217.114 57.3111 217.347 57.4329 217.569 57.5765C217.791 57.72 217.994 57.8825 218.183 58.0667L226.308 66.1917C226.593 66.4734 226.831 66.7929 227.021 67.1477C227.21 67.5025 227.343 67.8763 227.422 68.269C227.5 68.6644 227.519 69.0598 227.478 69.4606C227.44 69.8615 227.343 70.2461 227.191 70.6171C227.037 70.9881 226.831 71.3294 226.577 71.6409C226.322 71.9496 226.027 72.2177 225.694 72.4398C225.36 72.6646 225 72.8325 224.616 72.949C224.231 73.0654 223.838 73.125 223.438 73.125Z" fill="#121212"/>
<path d="M215.313 73.125C214.912 73.125 214.519 73.0654 214.134 72.949C213.75 72.8325 213.39 72.6646 213.057 72.4398C212.721 72.2177 212.428 71.9496 212.174 71.6409C211.919 71.3294 211.713 70.9881 211.559 70.6171C211.407 70.2461 211.31 69.8615 211.272 69.4606C211.231 69.0598 211.25 68.6644 211.329 68.269C211.407 67.8763 211.54 67.5025 211.729 67.1477C211.919 66.7929 212.157 66.4734 212.439 66.189L220.564 58.064C220.756 57.8825 220.959 57.72 221.182 57.5765C221.404 57.4329 221.637 57.3111 221.883 57.2136C222.127 57.1161 222.379 57.0429 222.639 56.9942C222.899 56.9454 223.159 56.9238 223.424 56.9238C223.687 56.9265 223.947 56.9563 224.207 57.0077C224.464 57.0619 224.716 57.1377 224.96 57.2406C225.201 57.3436 225.434 57.4681 225.653 57.6144C225.872 57.7606 226.073 57.9286 226.26 58.1154C226.447 58.3023 226.614 58.5027 226.761 58.7221C226.907 58.9415 227.032 59.1744 227.134 59.4154C227.237 59.6592 227.313 59.9111 227.367 60.1684C227.419 60.4284 227.449 60.6884 227.451 60.9511C227.451 61.2165 227.43 61.4765 227.381 61.7365C227.332 61.9965 227.259 62.2484 227.162 62.4921C227.064 62.7386 226.942 62.9715 226.799 63.1936C226.655 63.4156 226.493 63.6188 226.308 63.8084L218.183 71.9334C217.804 72.3152 217.366 72.6104 216.867 72.8163C216.369 73.0221 215.852 73.125 215.313 73.125Z" fill="#121212"/>
<path d="M166.562 73.125C166.023 73.125 165.506 73.0221 165.008 72.8163C164.51 72.6104 164.071 72.3152 163.689 71.9361L155.564 63.8084C155.382 63.6188 155.22 63.4156 155.076 63.1936C154.933 62.9715 154.811 62.7386 154.713 62.4921C154.616 62.2484 154.543 61.9965 154.494 61.7365C154.445 61.4765 154.424 61.2165 154.424 60.9511C154.426 60.6884 154.456 60.4284 154.508 60.1684C154.562 59.9111 154.638 59.6592 154.741 59.4154C154.843 59.1744 154.968 58.9415 155.114 58.7221C155.261 58.5027 155.428 58.3023 155.615 58.1154C155.802 57.9286 156.003 57.7606 156.222 57.6144C156.441 57.4681 156.674 57.3436 156.915 57.2406C157.159 57.1377 157.411 57.0619 157.668 57.0077C157.928 56.9563 158.188 56.9265 158.451 56.9238C158.716 56.9238 158.976 56.9454 159.236 56.9942C159.496 57.0429 159.748 57.1161 159.992 57.2136C160.238 57.3111 160.471 57.4329 160.693 57.5765C160.916 57.72 161.119 57.8825 161.308 58.0667L169.433 66.1917C169.718 66.4734 169.956 66.7929 170.146 67.1477C170.335 67.5025 170.468 67.8763 170.546 68.269C170.625 68.6644 170.644 69.0598 170.603 69.4606C170.565 69.8615 170.468 70.2461 170.316 70.6171C170.162 70.9881 169.956 71.3294 169.701 71.6409C169.447 71.9496 169.152 72.2177 168.818 72.4398C168.485 72.6646 168.125 72.8325 167.741 72.949C167.356 73.0654 166.963 73.125 166.562 73.125Z" fill="#121212"/>
<path d="M158.437 73.125C158.037 73.125 157.644 73.0654 157.259 72.949C156.875 72.8325 156.515 72.6646 156.181 72.4398C155.848 72.2177 155.553 71.9496 155.299 71.6409C155.044 71.3294 154.838 70.9881 154.684 70.6171C154.532 70.2461 154.435 69.8615 154.397 69.4606C154.356 69.0598 154.375 68.6644 154.454 68.269C154.532 67.8763 154.665 67.5025 154.854 67.1477C155.044 66.7929 155.282 66.4734 155.564 66.189L163.689 58.064C163.881 57.8825 164.084 57.72 164.306 57.5765C164.529 57.4329 164.761 57.3111 165.008 57.2136C165.252 57.1161 165.504 57.0429 165.764 56.9942C166.024 56.9454 166.284 56.9238 166.549 56.9238C166.812 56.9265 167.072 56.9563 167.332 57.0077C167.589 57.0619 167.841 57.1377 168.085 57.2406C168.326 57.3436 168.559 57.4681 168.778 57.6144C168.997 57.7606 169.198 57.9286 169.385 58.1154C169.571 58.3023 169.739 58.5027 169.886 58.7221C170.032 58.9415 170.156 59.1744 170.259 59.4154C170.362 59.6592 170.438 59.9111 170.492 60.1684C170.544 60.4284 170.574 60.6884 170.576 60.9511C170.576 61.2165 170.555 61.4765 170.506 61.7365C170.457 61.9965 170.384 62.2484 170.286 62.4921C170.189 62.7386 170.067 62.9715 169.924 63.1936C169.78 63.4156 169.617 63.6188 169.433 63.8084L161.308 71.9334C160.929 72.3152 160.49 72.6104 159.992 72.8163C159.494 73.0221 158.976 73.125 158.437 73.125Z" fill="#121212"/>
<path d="M146.25 121.875C145.985 121.875 145.719 121.848 145.456 121.796C145.196 121.745 144.942 121.669 144.695 121.566C144.449 121.463 144.216 121.339 143.994 121.19C143.772 121.041 143.566 120.873 143.376 120.686C143.19 120.496 143.022 120.291 142.873 120.069C142.724 119.846 142.599 119.614 142.496 119.367C142.393 119.121 142.317 118.866 142.266 118.606C142.215 118.343 142.188 118.078 142.188 117.813V105.243C140.644 104.062 139.168 102.795 137.767 101.449C136.365 100.1 135.043 98.6781 133.8 97.1804C132.557 95.6827 131.403 94.12 130.339 92.4923C129.271 90.8673 128.299 89.1827 127.424 87.4467C126.547 85.7106 125.77 83.9313 125.095 82.1058C124.418 80.2831 123.847 78.4252 123.381 76.5375C122.915 74.6498 122.555 72.7404 122.303 70.8121C122.051 68.881 121.907 66.9446 121.875 65C121.875 33.6375 152.856 8.125 190.938 8.125C229.019 8.125 260 33.6375 260 65C260 96.3625 229.019 121.875 190.938 121.875C185.069 121.891 179.267 121.276 173.531 120.028C167.798 118.777 162.264 116.924 156.934 114.465L148.788 120.984C148.046 121.58 147.201 121.875 146.25 121.875ZM156.406 105.625C157.059 105.625 157.674 105.771 158.256 106.066C163.323 108.618 168.618 110.541 174.143 111.838C179.665 113.138 185.264 113.774 190.938 113.75C224.537 113.75 251.875 91.8802 251.875 65C251.875 38.1171 224.537 16.25 190.938 16.25C157.335 16.25 130 38.1171 130 65C130.043 66.7198 130.187 68.4288 130.431 70.1323C130.672 71.8358 131.013 73.5177 131.452 75.1806C131.89 76.8435 132.424 78.474 133.052 80.0746C133.681 81.6752 134.401 83.2352 135.211 84.7519C136.021 86.2685 136.917 87.7338 137.897 89.1448C138.878 90.5585 139.937 91.91 141.074 93.1992C142.212 94.4883 143.423 95.7071 144.701 96.8554C145.982 98.0038 147.323 99.0763 148.728 100.068C149.226 100.452 149.616 100.926 149.895 101.492C150.172 102.058 150.312 102.654 150.312 103.285V109.379L153.866 106.535C154.608 105.934 155.453 105.63 156.406 105.625Z" fill="#121212"/>
</g>
<defs>
<clipPath id="clip0_387_1005">
<rect width="260" height="260" fill="white"/>
</clipPath>
</defs>
</svg>
