<svg width="295" height="295" viewBox="0 0 295 295" fill="none" xmlns="http://www.w3.org/2000/svg">
<g clip-path="url(#clip0_387_996)">
<path d="M214.871 121.144C214.871 119.862 213.832 118.827 212.554 118.827C211.272 118.827 210.237 119.862 210.237 121.144C210.237 156.63 181.367 185.5 145.881 185.5C110.395 185.5 81.5275 156.633 81.5275 121.144C81.5275 85.6576 110.398 56.7906 145.884 56.7906C162.656 56.7906 178.533 63.2068 190.604 74.8655C194.371 78.47 205.953 92.123 196.771 116.648C188.496 138.751 176.656 139.477 176.597 139.483C168.602 139.483 162.096 132.974 162.096 124.979V112.407C162.133 111.409 162.133 110.425 162.096 109.448V85.3902C162.096 84.1088 161.058 83.0732 159.779 83.0732C158.501 83.0732 157.462 84.1088 157.462 85.3902V93.7547C155.413 90.8262 152.773 88.6936 149.623 87.5658C137.793 83.3344 123.433 94.2709 116.934 112.447C113.901 120.928 113.123 129.683 114.746 137.089C116.454 144.888 120.606 150.333 126.438 152.414C128.153 153.028 129.92 153.323 131.708 153.323C141.689 153.323 152.331 144.16 158.157 130.024C160.379 138.134 167.797 144.117 176.628 144.117C177.237 144.107 191.624 143.61 201.11 118.273C211.285 91.0935 198.089 75.6153 193.812 71.5283C180.884 59.0338 163.863 52.1566 145.881 52.1566C107.838 52.1566 76.8905 83.104 76.8905 121.147C76.8905 159.189 107.838 190.137 145.881 190.137C183.923 190.137 214.871 159.186 214.871 121.144ZM127.996 148.053C123.725 146.526 120.624 142.282 119.272 136.099C117.834 129.53 118.55 121.684 121.294 114.011C126.109 100.546 135.826 91.2964 144.35 91.2964C145.619 91.2964 146.864 91.5022 148.062 91.9294C152.337 93.4566 155.434 97.7034 156.789 103.883C157.146 105.518 157.37 107.232 157.462 109.002V112.444C157.287 116.817 156.393 121.42 154.761 125.971C149.325 141.185 137.07 151.295 127.996 148.053Z" fill="black"/>
<path d="M289.174 71.6235C286.325 60.7085 278.975 52.0736 269.015 47.9375L252.916 41.2478C248.012 39.2166 242.536 39.4163 237.497 41.8285C232.543 44.1978 228.6 48.4292 226.391 53.7392L219.059 71.3808C216.853 76.6939 216.638 82.4709 218.454 87.6519C220.3 92.925 224.019 96.9505 228.923 98.9909C235.014 101.52 238.667 107.918 238.228 115.28C237.684 124.407 235.816 138.226 230.008 152.217C224.197 166.199 215.722 177.273 209.634 184.102C204.724 189.605 197.613 191.529 191.523 189C181.486 184.836 169.591 190.432 164.997 201.488L157.668 219.13C153.074 230.186 157.499 242.57 167.532 246.74L183.631 253.43C187.774 255.147 192.146 256.002 196.547 256.002C202.723 256.002 208.946 254.318 214.637 251.005C230.472 241.783 253.682 220.35 274.338 170.633C294.994 120.919 293.808 89.3543 289.174 71.6235ZM270.057 168.854C249.896 217.378 227.522 238.136 212.305 246.998C203.82 251.942 194.018 252.726 185.411 249.146L169.312 242.456C161.639 239.27 158.338 229.602 161.949 220.906L169.278 203.264C172.102 196.47 178.324 192.254 184.572 192.254C186.317 192.254 188.069 192.583 189.746 193.28C197.687 196.578 206.853 194.187 213.095 187.181C219.419 180.085 228.229 168.574 234.288 153.993C240.348 139.409 242.29 125.04 242.856 115.557C243.415 106.194 238.646 98.0076 230.705 94.7073C227.033 93.1831 224.234 90.1317 222.83 86.1216C221.394 82.0161 221.576 77.4129 223.343 73.16L230.675 55.5184C232.442 51.2593 235.576 47.8822 239.5 46.0077C243.335 44.1732 247.465 44.0011 251.14 45.5283L267.239 52.2181C275.85 55.7949 282.211 63.2929 284.693 72.7943C289.143 89.8336 290.219 120.332 270.057 168.854Z" fill="black"/>
<path d="M138.032 195.61C136.751 195.61 135.715 196.645 135.715 197.927V217.412L106.025 192.355C105.61 192.002 105.078 191.808 104.531 191.808H17.1868C10.2666 191.805 4.63396 186.176 4.63396 179.252V90.9983C4.63396 84.075 10.2666 78.4454 17.1868 78.4454H84.3362C85.6145 78.4454 86.6532 77.4098 86.6532 76.1284C86.6532 74.847 85.6145 73.8115 84.3362 73.8115H17.1868C7.70995 73.8115 0 81.5214 0 90.9983V179.256C0 188.732 7.70995 196.442 17.1868 196.442H103.686L136.536 224.172C136.963 224.535 137.495 224.719 138.032 224.719C138.361 224.719 138.696 224.649 139.006 224.504C139.824 224.123 140.349 223.303 140.349 222.402V197.927C140.349 196.645 139.311 195.61 138.032 195.61Z" fill="black"/>
<path d="M64.8386 108.523C66.1169 108.523 67.1555 107.488 67.1555 106.206C67.1555 104.922 66.1169 103.886 64.8386 103.886H29.2081C27.9298 103.886 26.8911 104.922 26.8911 106.206C26.8911 107.488 27.9298 108.523 29.2081 108.523H64.8386Z" fill="black"/>
<path d="M14.0586 140.896C14.0586 142.181 15.0942 143.216 16.3756 143.216H70.1731C71.4515 143.216 72.4901 142.181 72.4901 140.896C72.4901 139.615 71.4515 138.579 70.1731 138.579H16.3756C15.0942 138.579 14.0586 139.615 14.0586 140.896Z" fill="black"/>
</g>
<defs>
<clipPath id="clip0_387_996">
<rect width="295" height="295" fill="white"/>
</clipPath>
</defs>
</svg>
