<svg width="295" height="295" viewBox="0 0 295 295" fill="none" xmlns="http://www.w3.org/2000/svg">
<path d="M180.792 177.516C185.936 183.72 184.845 193.111 178.355 198.495C171.865 203.876 162.431 203.209 157.287 197.005C152.143 190.8 153.234 181.41 159.724 176.026C166.214 170.645 175.648 171.312 180.792 177.516Z" fill="#151F28"/>
<path d="M179.329 173.555C179.673 174.367 179.557 175.301 179.04 176.017C177.547 178.076 176.001 179.996 174.394 181.766C169.278 187.408 163.559 191.55 157.155 193.981C156.276 194.316 155.281 194.132 154.583 193.502C142.703 182.783 133.279 171.865 128.221 160.584C124.103 150.259 129.471 139.532 138.742 136.035C143.997 134.047 150.518 134.391 157.275 138.456C157.505 138.592 157.711 138.767 157.886 138.97C166.841 149.273 173.927 160.843 179.329 173.555Z" fill="#DB0007"/>
<path d="M179.326 173.555C179.673 174.367 179.554 175.301 179.037 176.017C177.547 178.076 176.001 179.996 174.394 181.766C164.263 159.994 152.918 142.752 138.742 136.035C143.997 134.047 150.518 134.391 157.275 138.456C157.505 138.592 157.711 138.767 157.886 138.97C166.841 149.273 173.924 160.843 179.326 173.555Z" fill="#FA474D"/>
<path d="M231.71 172.394C234.823 177.996 235.917 183.859 234.946 189.998C234.823 190.782 234.414 191.498 233.788 191.987C214.735 206.896 193.462 210.427 170.246 204.011C168.617 203.562 167.64 201.884 168.042 200.244C169.345 194.934 170.9 189.854 172.925 185.223C174.471 181.689 176.293 178.414 178.484 175.488C178.687 175.215 178.936 174.978 179.213 174.784C193.704 164.73 208.931 161.307 224.873 164.355C225.528 164.484 226.13 164.819 226.578 165.317C228.662 167.628 230.373 169.985 231.71 172.394Z" fill="#DB0007"/>
<path d="M231.71 172.394C211.042 173.967 191.394 178.1 172.925 185.223C174.471 181.689 176.293 178.414 178.484 175.488C178.687 175.215 178.936 174.978 179.212 174.784C193.704 164.73 208.931 161.307 224.873 164.355C225.527 164.484 226.13 164.819 226.578 165.314C228.662 167.628 230.373 169.985 231.71 172.394Z" fill="#FA474D"/>
<path d="M48.2909 188.164C48.2909 196.329 42.0774 202.945 34.4136 202.945C26.7497 202.945 20.5363 196.329 20.5363 188.164C20.5363 180.002 26.7497 173.386 34.4136 173.386C42.0774 173.386 48.2909 180.002 48.2909 188.164Z" fill="#151F28"/>
<path d="M46.3519 191.175C39.026 190.644 32.5115 188.898 27.5364 184.833C24.6294 182.458 22.2448 179.289 20.5363 175.104C25.8924 161.752 34.1831 150.382 43.0178 139.375C48.085 134.612 55.1404 133.312 61.1387 135.113C68.947 137.449 74.973 145.014 72.5301 156.995C66.8851 168.47 58.3393 179.87 46.3519 191.175Z" fill="#DB0007"/>
<path d="M27.5364 184.833C24.6294 182.458 22.2448 179.289 20.5363 175.104C25.8924 161.752 34.1831 150.382 43.0208 139.375C48.085 134.612 55.1404 133.312 61.1387 135.113C49.3787 145.37 38.1625 161.801 27.5364 184.833Z" fill="#FA474D"/>
<path d="M157.315 139.212C156.875 199.426 144.24 235.69 104.19 236.827H104.187C102.924 236.863 101.634 236.863 100.312 236.827C96.9259 236.455 93.7639 235.865 90.8139 235.075C54.3968 225.346 50.3774 185.036 54.3568 137.172L62.6076 137.335L93.5427 137.949L126.543 138.601H126.555L152.61 139.117L157.315 139.212Z" fill="#FA474D"/>
<path d="M152.61 139.117C150.143 194.171 137.9 227.328 104.59 229.243H104.587C103.484 229.31 102.356 229.338 101.207 229.332C98.2565 229.037 95.5124 228.514 92.9557 227.795C62.7797 219.296 59 182.307 62.6076 137.335L93.5426 137.949L126.543 138.601H126.555L152.61 139.117Z" fill="#DB0007"/>
<path d="M137.08 157.991L146.667 157.76C147.878 157.733 148.834 158.796 148.649 159.967L145.417 180.242C145.284 181.056 144.63 181.689 143.794 181.785C140.58 182.15 137.353 181.901 134.117 181.173C133.128 180.952 132.458 180.027 132.593 179.05L135.264 159.583C135.387 158.685 136.152 158.012 137.08 157.991Z" fill="#151F28"/>
<path d="M137.021 161.334L136.812 163.949C136.779 164.37 137.123 164.739 137.556 164.739L145.06 164.733C145.414 164.733 145.712 164.481 145.767 164.14L146.234 161.218C146.305 160.766 145.933 160.357 145.466 160.376L137.707 160.689C137.344 160.704 137.052 160.981 137.021 161.334Z" fill="#F0C808"/>
<path d="M136.394 167.741L135.992 170.28C135.927 170.679 136.219 171.06 136.634 171.115L143.834 172.046C144.209 172.093 144.553 171.856 144.633 171.499L145.444 167.8C145.546 167.342 145.174 166.902 144.691 166.918L137.083 167.148C136.736 167.157 136.45 167.406 136.394 167.741Z" fill="#F0C808"/>
<path d="M135.282 174.723L134.812 177.664C134.747 178.069 135.049 178.453 135.47 178.5L142.964 179.326C143.352 179.369 143.696 179.111 143.757 178.739L144.264 175.55C144.332 175.132 144.015 174.741 143.585 174.708L136.047 174.133C135.672 174.105 135.34 174.36 135.282 174.723Z" fill="#F0C808"/>
<path d="M56.0316 140.426C70.5357 150.247 142.006 151.421 155.871 142.132C158.04 140.678 157.717 137.415 155.321 136.25C139.633 128.635 72.5731 125.584 56.3358 134.038C53.8375 135.337 53.6624 138.819 56.0316 140.426Z" fill="#151F28"/>
<path d="M87.151 185.143C86.8837 187.113 85.759 188.852 84.1211 189.974C70.1701 199.5 54.4275 204.724 37.5142 207.133C34.1923 207.609 30.9689 205.686 29.8688 202.514C28.4614 198.452 27.6286 194.128 27.7177 189.384C27.77 186.627 28.1326 183.727 28.8762 180.66C29.245 179.136 30.1238 177.784 31.3499 176.816C45.2825 165.842 60.4443 158.212 77.3976 156.227C80.747 155.837 83.9029 157.883 84.9262 161.101C85.2673 162.17 85.5746 163.221 85.845 164.266C87.7994 171.767 88.0391 178.659 87.151 185.143Z" fill="#DB0007"/>
<path d="M85.845 164.266C62.6721 168.608 43.2882 176.969 27.7177 189.384C27.77 186.627 28.1326 183.727 28.8762 180.66C29.245 179.136 30.1238 177.784 31.353 176.816C45.2825 165.842 60.4443 158.212 77.3976 156.227C80.747 155.837 83.9029 157.883 84.9262 161.101C85.2673 162.17 85.5746 163.221 85.845 164.266Z" fill="#FA474D"/>
<path d="M114.773 255.003C114.515 255.276 114.187 255.479 113.821 255.584C109.783 256.761 105.844 257.406 101.993 257.526C93.2938 257.805 85.0768 255.405 77.3207 250.409C76.9458 250.166 76.657 249.813 76.4941 249.401C75.6183 247.149 75.5845 245.05 76.3435 243.098C76.7676 242.008 78.0275 241.482 79.1276 241.928C87.6334 245.372 96.3636 247.152 105.346 247.072C108.529 247.047 111.747 246.786 114.998 246.288C116.347 246.082 117.558 247.182 117.453 248.528C117.259 251.082 116.417 253.267 114.773 255.003Z" fill="#DB0007"/>
<path d="M114.777 255.003C114.518 255.276 114.187 255.479 113.821 255.584C109.783 256.761 105.844 257.406 101.993 257.526C106.151 255.227 107.641 251.89 105.346 247.072C108.529 247.047 111.747 246.786 114.998 246.288C116.347 246.082 117.558 247.182 117.453 248.528C117.259 251.082 116.417 253.267 114.777 255.003Z" fill="#FA474D"/>
<path d="M108.652 270.374C108.486 270.792 108.28 271.203 108.028 271.606C107.328 272.746 106.126 273.514 104.786 273.708C102.918 273.984 101.038 274.163 99.1415 274.249C93.9667 274.482 88.6967 274.015 83.3252 272.881C81.4661 272.485 79.8928 271.246 79.1153 269.532C78.7097 268.65 78.4884 267.829 78.47 267.089C78.4208 265.368 80.0188 264.059 81.7273 264.388C88.5645 265.7 95.1621 266.56 101.425 266.754C103.001 266.806 104.553 266.812 106.08 266.772C107.992 266.72 109.334 268.613 108.652 270.374Z" fill="#DB0007"/>
<path d="M108.652 270.374C108.486 270.792 108.28 271.203 108.028 271.606C107.328 272.746 106.126 273.514 104.786 273.708C102.918 273.984 101.037 274.163 99.1415 274.249C100.991 272.288 101.886 269.86 101.425 266.754C103.001 266.806 104.553 266.812 106.083 266.772C107.992 266.72 109.334 268.613 108.652 270.374Z" fill="#FA474D"/>
<path d="M96.7784 31.1962C97.9738 39.742 96.9843 46.2566 94.9408 51.7971L105.232 49.9625C100.742 45.1534 99.2675 38.7065 100.131 30.9965L96.7784 31.1962Z" fill="#151F28"/>
<path d="M111.713 55.1189L106.132 55.9179L88.2572 58.4868C88.9732 54.3845 91.7542 51.0965 99.8268 49.8765C101.102 49.7229 102.307 49.603 103.425 49.5446C108.532 49.265 111.848 50.2237 111.713 55.1189Z" fill="#DB0007"/>
<path d="M111.713 55.1189L106.132 55.9179C106.993 53.8652 105.85 51.7264 103.428 49.5446C108.532 49.265 111.848 50.2237 111.713 55.1189Z" fill="#FA474D"/>
<path d="M105.072 26.1352C105.297 29.9241 102.405 33.1783 98.616 33.4026C94.8271 33.63 91.5729 30.7384 91.3455 26.9495C91.1212 23.1575 94.0128 19.9033 97.8017 19.679C101.594 19.4546 104.848 22.3463 105.072 26.1352Z" fill="#F0C808"/>
<path d="M105.072 26.1352C105.297 29.9241 102.405 33.1814 98.616 33.4057C98.0629 33.4364 97.519 33.4057 96.9966 33.3104C99.9681 32.407 102.048 29.5615 101.855 26.3257C101.664 23.0899 99.2644 20.5087 96.2038 19.9647C96.7108 19.808 97.2486 19.7128 97.8017 19.679C101.591 19.4546 104.845 22.3463 105.072 26.1352Z" fill="black"/>
<path d="M154.018 102.823C154.137 103.889 153.821 104.965 153.13 105.785C147.101 112.96 139.185 118.907 130.166 123.298C110.044 133.106 84.4253 135.184 61.9715 125.91C59.6668 124.957 58.2195 122.659 58.3424 120.173C59.4763 97.0704 56.4587 72.4901 85.8634 59.4763C92.3657 56.6 99.3443 55.0605 106.394 54.9407C109.205 54.8915 112.032 55.0667 114.841 55.4754C136.662 58.6435 150.65 73.0832 154.018 102.823Z" fill="#DB0007"/>
<path d="M153.077 105.847C147.054 112.994 139.16 118.919 130.166 123.298C137.209 103.152 128.832 69.113 106.394 54.9407C109.205 54.8915 112.032 55.0667 114.841 55.4754C136.64 58.6405 150.625 73.0555 154.008 102.743C154.134 103.862 153.803 104.989 153.077 105.847Z" fill="#FA474D"/>
<path d="M109.599 68.9286C84.1733 71.9155 76.9858 86.7976 75.7228 105.539C75.4708 121.423 92.2951 124.499 108.314 116.562C112.81 114.337 117.849 113.249 122.889 113.649C138.088 114.856 149.694 109.175 145.358 93.9053C141.843 74.1587 127.944 68.5199 109.599 68.9286Z" fill="#151F28"/>
<path d="M255.568 156.058C257.861 154.018 260.073 151.006 262.178 146.953C262.894 145.57 264.163 144.501 265.691 144.194C270.961 143.14 274.491 151.384 272.193 159.239C267.98 172.95 260.055 179.292 249.521 180.442C240.413 180.15 233.969 176.714 233.972 165.667C234.175 161.178 236.442 156.931 240.468 152.887C245.876 146.428 251.887 149.009 252.13 154.568C252.207 156.322 254.256 157.226 255.568 156.058Z" fill="#151F28"/>
<path d="M106.151 126.472L94.4307 175.921C93.9022 178.162 95.4602 180.356 97.7526 180.592L118.956 182.783C120.83 182.977 122.563 181.772 123.037 179.95L135.454 132.274C136.013 130.126 134.624 127.956 132.443 127.56L110.542 123.599C108.548 123.236 106.621 124.499 106.151 126.472Z" fill="#F0C808"/>
<path d="M110.736 139.895L108.056 139.24C107.177 139.028 106.636 138.14 106.851 137.261L109.07 128.178C109.282 127.299 110.17 126.761 111.049 126.973L113.729 127.627C114.607 127.843 115.145 128.731 114.93 129.609L112.715 138.693C112.499 139.572 111.614 140.11 110.736 139.895Z" fill="#151F28"/>
<path d="M92.0922 149.11C87.5351 154.804 86.4596 161.54 87.6949 168.97C88.2787 172.471 91.1734 175.144 94.7042 175.473C99.8913 175.961 104.805 175.869 109.144 174.563C109.875 174.345 110.576 174.013 111.212 173.586C116.832 169.828 119.576 164.413 118.169 156.605C117.96 155.447 117.994 154.257 118.295 153.12C119.039 150.306 118.39 148.216 116.777 146.624C115.437 145.303 113.618 144.602 111.744 144.492C106.52 144.194 101.308 145.002 96.0993 146.446C94.5168 146.885 93.1186 147.826 92.0922 149.11Z" fill="#151F28"/>
<path d="M233.606 40.9866C229.559 36.9365 223.966 34.4351 217.79 34.4351C205.434 34.4351 195.419 44.4497 195.419 56.8059V61.3016C195.419 73.6578 205.434 83.6724 217.79 83.6724C230.143 83.6724 240.158 73.6578 240.158 61.3016V56.8059C240.158 50.6294 237.656 45.0367 233.606 40.9866ZM234.562 60.7423C234.562 70.0041 227.052 77.5112 217.79 77.5112C208.525 77.5112 201.018 70.0041 201.018 60.7423V57.3683C201.018 48.1065 208.525 40.5963 217.79 40.5963C222.421 40.5963 226.615 42.4739 229.648 45.5099C232.687 48.5459 234.562 52.7374 234.562 57.3683V60.7423Z" fill="#DB0007"/>
<path d="M240.281 101.087H195.296C193.056 101.087 191.237 99.2706 191.237 97.0273V66.0523C191.237 63.8091 193.056 61.9899 195.296 61.9899H240.281C242.524 61.9899 244.34 63.8091 244.34 66.0523V97.0273C244.34 99.2706 242.524 101.087 240.281 101.087Z" fill="#F0C808"/>
<path d="M223.908 78.6636C223.908 82.2866 220.97 85.2243 217.347 85.2243C213.724 85.2243 210.787 82.2866 210.787 78.6636C210.787 75.0406 213.724 72.106 217.347 72.106C220.97 72.106 223.908 75.0406 223.908 78.6636Z" fill="#151F28"/>
<path d="M220.562 93.6379H214.133V78.6636H220.562V93.6379Z" fill="#151F28"/>
<path d="M266.91 126.712H168.666C164.656 126.712 161.402 123.461 161.402 119.45C161.402 115.437 164.656 112.186 168.666 112.186H266.91C270.924 112.186 274.175 115.437 274.175 119.45C274.175 123.461 270.924 126.712 266.91 126.712Z" fill="#FA474D"/>
<path d="M189.009 122.763L188.078 123.414C187.764 123.636 187.331 123.54 187.134 123.215L186.403 121.982C186.145 121.555 185.524 121.555 185.269 121.986L184.541 123.215C184.347 123.544 183.914 123.636 183.601 123.418L182.657 122.766C182.332 122.542 182.276 122.081 182.54 121.786L183.45 120.769C183.782 120.397 183.598 119.807 183.112 119.69L181.772 119.367C181.391 119.275 181.173 118.873 181.305 118.504L181.659 117.53C181.788 117.17 182.19 116.998 182.54 117.149L183.84 117.714C184.295 117.914 184.799 117.551 184.759 117.057L184.636 115.628C184.602 115.244 184.907 114.912 185.291 114.912H186.4C186.79 114.912 187.095 115.25 187.055 115.637L186.913 117.063C186.867 117.557 187.362 117.926 187.82 117.736L189.267 117.14C189.62 116.995 190.023 117.18 190.143 117.542L190.462 118.513C190.582 118.879 190.364 119.269 189.989 119.358L188.57 119.693C188.084 119.81 187.897 120.397 188.225 120.772L189.126 121.789C189.387 122.084 189.332 122.539 189.009 122.763Z" fill="#151F28" fill-opacity="0.1059"/>
<path d="M99.0801 98.7297C99.2491 100.613 98.149 102.479 96.3175 102.568C94.483 102.657 92.5563 100.89 92.4426 99.0524C92.3473 97.4299 94.2126 98.1367 96.0471 98.0476C97.8785 97.9584 98.8926 96.7446 99.0801 98.7297Z" fill="#F0C808"/>
<path d="M126.982 93.1524C127.452 94.9777 129.53 96.379 131.315 95.958C133.1 95.537 133.939 93.5119 133.448 91.6252C132.907 89.5817 132.049 91.1427 130.264 91.5637C128.479 91.9847 126.426 91.0505 126.982 93.1524Z" fill="#F0C808"/>
<path d="M107.564 105.238C113.043 109.752 118.197 109.039 123 102.731" stroke="#F0C808" stroke-width="3.24074" stroke-linecap="round" stroke-linejoin="round"/>
</svg>
