<svg width="300" height="300" viewBox="0 0 300 300" fill="none" xmlns="http://www.w3.org/2000/svg">
<path d="M218.469 82.9125C199.197 63.6156 173.572 52.9875 146.316 52.9875C138.109 52.9875 130.056 53.9563 122.275 55.8313C121.603 58.0063 120.709 60.1406 119.594 62.1938C128.081 59.7469 137.05 58.4281 146.316 58.4281C199.584 58.4281 242.922 101.822 242.922 155.159C242.922 208.497 199.584 251.891 146.316 251.891C93.0468 251.891 49.7093 208.497 49.7093 155.159C49.7093 145.941 51.0062 137.016 53.4218 128.563C51.3905 129.688 49.2562 130.603 47.0624 131.306C45.2249 139.028 44.2749 147.022 44.2749 155.159C44.2749 182.45 54.8874 208.109 74.1624 227.406C93.4343 246.703 119.059 257.331 146.316 257.331C173.572 257.331 199.197 246.703 218.469 227.406C237.741 208.109 248.356 182.45 248.356 155.159C248.356 127.869 237.741 102.209 218.469 82.9125Z" fill="white"/>
<path d="M53.9719 111.559L57.0625 115.116C57.3532 115.453 57.6375 115.806 57.9188 116.153C67.5875 94.275 85.125 76.6281 106.922 66.8438C106.619 66.5969 106.313 66.35 106.019 66.0938L102.35 62.9031C92.0188 67.8469 82.4969 74.5656 74.1625 82.9125C65.7125 91.3719 58.9282 101.053 53.9719 111.559Z" fill="white"/>
<path d="M72.2625 25.9187C57.3843 17.5219 37.6562 20.1062 24.3937 33.3875C11.1312 46.6656 8.54996 66.4187 16.9343 81.3156C7.16558 92.7031 7.25621 109.447 17.5062 119.709C27.4656 129.681 43.5281 130.05 54.8625 121.097C54.3093 120.325 53.6781 119.516 52.9593 118.684L51.9062 117.472C42.4187 124.912 29.0406 124.647 20.8093 116.403C16.7375 112.325 14.4562 106.812 14.3843 100.878C14.3125 94.8937 16.4781 89.0281 20.4781 84.3656L22.6125 81.8781L21.0062 79.0187C13.4531 65.6031 16.2062 48.2 27.6968 36.6937C39.1875 25.1875 56.5718 22.4344 69.9687 29.9937L72.8218 31.6031L75.3062 29.4656C79.9656 25.4594 85.8218 23.2937 91.8 23.3656C97.725 23.4344 103.231 25.7187 107.303 29.7969C115.537 38.0406 115.8 51.4312 108.372 60.9344L109.584 61.9875C110.412 62.7094 111.222 63.3406 111.991 63.8969C120.934 52.5469 120.566 36.4625 110.606 26.4906C100.356 16.225 83.6343 16.1375 72.2625 25.9187Z" fill="white"/>
<path d="M127.875 74.7719V118.334C127.875 118.812 127.487 119.203 127.006 119.203C126.528 119.203 126.137 118.812 126.137 118.334V74.7719H117.153V118.334C117.153 118.812 116.766 119.203 116.284 119.203C115.806 119.203 115.416 118.812 115.416 118.334V74.7719H106.434V118.334C106.434 118.812 106.044 119.203 105.566 119.203C105.087 119.203 104.697 118.812 104.697 118.334V74.7719H95.7124V125.194C95.7124 130.441 97.6874 135.444 101.275 139.269C107.206 145.6 110.281 154.556 109.712 163.837L106.812 211.147C107.947 211.953 109.112 212.725 110.297 213.462L113.328 164.059C113.959 153.784 110.528 143.844 103.916 136.787C100.962 133.634 99.3343 129.516 99.3343 125.194V78.4H101.072V118.334C101.072 120.812 103.087 122.831 105.566 122.831C108.041 122.831 110.056 120.812 110.056 118.334V78.4H111.794V118.334C111.794 120.812 113.809 122.831 116.284 122.831C118.762 122.831 120.778 120.812 120.778 118.334V78.4H122.516V118.334C122.516 120.812 124.531 122.831 127.006 122.831C129.484 122.831 131.5 120.812 131.5 118.334V78.4H133.237V125.194C133.237 129.516 131.609 133.634 128.656 136.787C122.044 143.844 118.612 153.784 119.244 164.059L122.644 219.506C123.866 219.959 125.1 220.378 126.35 220.759L122.859 163.837C122.287 154.556 125.366 145.6 131.297 139.269C134.884 135.444 136.859 130.441 136.859 125.194V74.7719H127.875Z" fill="white"/>
<path d="M196.919 110.978C196.919 101.447 194.503 92.4594 190.113 85.6719C185.569 78.6437 179.444 74.7719 172.869 74.7719C166.294 74.7719 160.172 78.6437 155.625 85.675C151.238 92.4594 148.822 101.444 148.822 110.978C148.822 122.556 152.338 133.144 158.466 140.025C163.991 146.231 166.856 154.697 166.331 163.262L162.747 221.734C163.991 221.425 165.219 221.081 166.438 220.706L169.95 163.484C170.531 153.962 167.331 144.531 161.169 137.609C155.706 131.475 152.444 121.519 152.444 110.978C152.444 93.0156 161.609 78.4 172.869 78.4C184.131 78.4 193.297 93.0156 193.297 110.978C193.297 121.519 190.034 131.475 184.569 137.609C178.406 144.531 175.206 153.962 175.791 163.484L178.975 215.416C180.166 214.766 181.334 214.084 182.481 213.366L179.406 163.262C178.881 154.697 181.747 146.228 187.275 140.022C193.403 133.141 196.919 122.553 196.919 110.978Z" fill="white"/>
<path d="M200.497 113.266C200.425 115.138 200.266 116.975 200.022 118.784C207.063 129.169 211.178 141.691 211.178 155.159C211.178 179.156 198.113 200.153 178.728 211.397L178.978 215.419C200.3 203.788 214.8 181.138 214.8 155.159C214.8 139.397 209.456 124.863 200.497 113.266Z" fill="white"/>
<path d="M146.316 220.106C137.872 220.106 129.803 218.481 122.4 215.531L122.644 219.509C130.025 222.241 138 223.734 146.316 223.734C153.316 223.734 160.072 222.675 166.434 220.709L166.678 216.825C160.269 218.953 153.425 220.106 146.316 220.106Z" fill="white"/>
<path d="M110.553 209.316C93.0313 197.675 81.4531 177.747 81.4531 155.159C81.4531 142.025 85.3688 129.794 92.0906 119.562V113.325C83.1531 124.909 77.8281 139.422 77.8281 155.159C77.8281 179.75 90.825 201.353 110.297 213.459L110.553 209.316Z" fill="white"/>
<path d="M70.3188 79.0656C81.725 67.6437 95.2406 59.1094 109.988 53.8187C113.041 46.0937 111.684 37.2375 105.778 31.325C102.106 27.6469 97.1344 25.5875 91.775 25.5219C86.3219 25.4562 80.9719 27.4406 76.7125 31.1031L73.0813 34.2281L68.9094 31.875C56.3531 24.7875 40.0313 27.3969 29.2219 38.2187C18.4125 49.0437 15.8063 65.3844 22.8844 77.9594L25.2344 82.1344L22.1156 85.7719C18.4531 90.0375 16.475 95.3937 16.5406 100.853C16.6031 106.219 18.6625 111.2 22.3344 114.878C28.2969 120.847 37.2594 122.169 45.0344 118.997C50.3094 104.15 58.8594 90.5375 70.3188 79.0656Z" fill="white"/>
</svg>
