<svg width="319" height="319" viewBox="0 0 319 319" fill="none" xmlns="http://www.w3.org/2000/svg">
<path d="M232.305 88.1636C211.813 67.6446 184.565 56.3434 155.582 56.3434C146.856 56.3434 138.293 57.3735 130.019 59.3672C129.305 61.68 128.354 63.9495 127.168 66.1327C136.193 63.5309 145.73 62.1286 155.582 62.1286C212.225 62.1286 258.307 108.271 258.307 164.986C258.307 221.702 212.225 267.844 155.582 267.844C98.9398 267.844 52.8576 221.702 52.8576 164.986C52.8576 155.184 54.2366 145.693 56.8053 136.705C54.6454 137.901 52.3758 138.875 50.0431 139.622C48.0893 147.833 47.0791 156.333 47.0791 164.986C47.0791 194.005 58.3637 221.29 78.8595 241.809C99.3519 262.328 126.6 273.629 155.582 273.629C184.565 273.629 211.813 262.328 232.305 241.809C252.798 221.29 264.085 194.005 264.085 164.986C264.085 135.967 252.798 108.683 232.305 88.1636Z" fill="black"/>
<path d="M57.3901 118.625L60.6765 122.406C60.9855 122.765 61.2879 123.141 61.5869 123.509C71.868 100.246 90.5162 81.4812 113.694 71.0772C113.371 70.8147 113.046 70.5521 112.733 70.2797L108.832 66.887C97.8466 72.1438 87.7217 79.2881 78.8595 88.1636C69.8743 97.1587 62.6602 107.453 57.3901 118.625Z" fill="black"/>
<path d="M76.8391 27.5602C61.0187 18.6315 40.0411 21.3796 25.9387 35.502C11.8362 49.6211 9.09149 70.6252 18.0069 86.4656C7.61944 98.5743 7.71581 116.378 18.615 127.291C29.2051 137.894 46.2849 138.286 58.3371 128.766C57.749 127.946 57.0777 127.085 56.3135 126.201L55.1936 124.912C45.1053 132.824 30.8799 132.541 22.1273 123.775C17.7975 119.439 15.3718 113.577 15.2954 107.267C15.219 100.904 17.5217 94.6665 21.7751 89.7087L24.0446 87.0637L22.3366 84.0232C14.3052 69.7579 17.2326 51.2526 29.451 39.0176C41.6694 26.7827 60.1548 23.8552 74.4001 31.8933L77.4339 33.6046L80.0756 31.3317C85.0301 27.0717 91.2573 24.769 97.614 24.8454C103.914 24.9185 109.769 27.3475 114.099 31.684C122.855 40.4498 123.134 54.6885 115.235 64.7935L116.525 65.9133C117.405 66.6809 118.266 67.3521 119.083 67.9436C128.594 55.8748 128.201 38.7717 117.611 28.1683C106.712 17.2525 88.9312 17.1595 76.8391 27.5602Z" fill="black"/>
<path d="M135.974 79.5074V125.829C135.974 126.337 135.562 126.753 135.05 126.753C134.542 126.753 134.126 126.337 134.126 125.829V79.5074H124.573V125.829C124.573 126.337 124.161 126.753 123.649 126.753C123.141 126.753 122.725 126.337 122.725 125.829V79.5074H113.175V125.829C113.175 126.337 112.76 126.753 112.251 126.753C111.743 126.753 111.328 126.337 111.328 125.829V79.5074H101.774V133.123C101.774 138.702 103.874 144.022 107.689 148.089C113.996 154.821 117.266 164.345 116.661 174.214L113.577 224.52C114.784 225.377 116.023 226.198 117.282 226.982L120.506 174.45C121.177 163.524 117.528 152.954 110.497 145.451C107.357 142.098 105.626 137.718 105.626 133.123V83.3654H107.473V125.829C107.473 128.464 109.616 130.611 112.251 130.611C114.883 130.611 117.026 128.464 117.026 125.829V83.3654H118.874V125.829C118.874 128.464 121.017 130.611 123.649 130.611C126.284 130.611 128.427 128.464 128.427 125.829V83.3654H130.275V125.829C130.275 128.464 132.418 130.611 135.05 130.611C137.685 130.611 139.828 128.464 139.828 125.829V83.3654H141.676V133.123C141.676 137.718 139.945 142.098 136.804 145.451C129.773 152.954 126.125 163.524 126.796 174.45L130.411 233.408C131.71 233.89 133.023 234.335 134.352 234.741L130.64 174.214C130.032 164.345 133.305 154.821 139.612 148.089C143.427 144.022 145.527 138.702 145.527 133.123V79.5074H135.974Z" fill="black"/>
<path d="M209.39 118.007C209.39 107.872 206.822 98.3152 202.153 91.0978C197.321 83.6245 190.809 79.5074 183.817 79.5074C176.826 79.5074 170.316 83.6245 165.481 91.1011C160.816 98.3152 158.247 107.869 158.247 118.007C158.247 130.318 161.986 141.576 168.502 148.893C174.377 155.493 177.424 164.494 176.866 173.602L173.054 235.778C174.377 235.449 175.683 235.083 176.979 234.684L180.714 173.838C181.332 163.713 177.929 153.685 171.376 146.325C165.568 139.802 162.099 129.215 162.099 118.007C162.099 98.9066 171.845 83.3654 183.817 83.3654C195.793 83.3654 205.539 98.9066 205.539 118.007C205.539 129.215 202.07 139.802 196.258 146.325C189.705 153.685 186.303 163.713 186.924 173.838L190.31 229.059C191.576 228.367 192.819 227.643 194.038 226.879L190.769 173.602C190.21 164.494 193.258 155.489 199.136 148.89C205.652 141.573 209.39 130.315 209.39 118.007Z" fill="black"/>
<path d="M213.195 120.439C213.119 122.43 212.949 124.383 212.69 126.307C220.176 137.349 224.553 150.664 224.553 164.986C224.553 190.503 210.66 212.829 190.048 224.785L190.313 229.062C212.986 216.694 228.404 192.61 228.404 164.986C228.404 148.225 222.722 132.77 213.195 120.439Z" fill="black"/>
<path d="M155.582 234.046C146.604 234.046 138.024 232.318 130.152 229.182L130.411 233.412C138.26 236.316 146.74 237.904 155.582 237.904C163.026 237.904 170.21 236.778 176.975 234.688L177.234 230.557C170.419 232.82 163.142 234.046 155.582 234.046Z" fill="black"/>
<path d="M117.555 222.572C98.9232 210.194 86.6118 189.004 86.6118 164.986C86.6118 151.02 90.7754 138.014 97.923 127.135V120.502C88.4195 132.82 82.7572 148.252 82.7572 164.986C82.7572 191.134 96.5772 214.105 117.282 226.978L117.555 222.572Z" fill="black"/>
<path d="M74.7723 84.0731C86.9009 71.9279 101.273 62.853 116.953 57.2273C120.2 49.013 118.758 39.5959 112.477 33.3089C108.573 29.3979 103.286 27.2081 97.5874 27.1383C91.7889 27.0685 86.1001 29.1785 81.571 33.073L77.7097 36.3959L73.2736 33.8938C59.9222 26.3574 42.5666 29.132 31.0726 40.6393C19.5786 52.1499 16.8073 69.5254 24.3337 82.8968L26.8326 87.3362L23.5163 91.2041C19.6218 95.7399 17.5184 101.435 17.5882 107.241C17.6547 112.946 19.8445 118.243 23.7489 122.154C30.089 128.501 39.6191 129.906 47.8866 126.533C53.4956 110.746 62.5871 96.2716 74.7723 84.0731Z" fill="black"/>
<path d="M179.317 44.3635C179.104 44.3568 178.885 44.3369 178.666 44.3103C178.406 43.5228 178.18 42.9645 177.988 42.6356C177.802 42.3099 177.556 42.0839 177.257 41.9577C176.964 41.8248 176.479 41.7151 175.808 41.6254L172.924 41.2266L172.299 45.8521C172.209 46.4469 172.206 46.8955 172.286 47.1946C172.365 47.497 172.492 47.7063 172.671 47.8193C172.857 47.9356 173.15 48.0486 173.548 48.1649C173.821 48.2513 174.047 48.3244 174.226 48.3776C174.402 48.4374 174.592 48.5171 174.798 48.6168L174.718 49.2282L166.902 48.1649L166.956 47.5535C167.148 47.5103 167.334 47.4737 167.514 47.4471C167.7 47.4206 167.859 47.4039 167.992 47.394C168.125 47.3873 168.208 47.3774 168.245 47.3674C168.597 47.3508 168.863 47.3109 169.042 47.2478C169.219 47.178 169.368 47.0152 169.494 46.756C169.627 46.4901 169.734 46.0648 169.813 45.48L171.01 36.6809C171.096 36.0628 171.106 35.591 171.036 35.272C170.973 34.953 170.85 34.727 170.664 34.5941C170.478 34.4612 170.176 34.3017 169.76 34.1156C169.368 33.9494 169.042 33.7966 168.777 33.6637L168.856 33.0656L180.46 34.634L182.414 34.8865L181.922 38.4753L181.39 38.4221C181.301 38.2825 181.218 38.1297 181.138 37.9702C181.065 37.804 180.978 37.5814 180.872 37.3056C180.746 36.9434 180.633 36.6543 180.526 36.4416C180.42 36.2223 180.277 36.0229 180.101 35.8435C179.922 35.6674 179.702 35.5378 179.436 35.4581C179.081 35.3517 178.719 35.272 178.347 35.2188C177.981 35.159 177.529 35.0859 176.991 35.0061L174.758 34.7137C174.472 34.6705 174.269 34.6572 174.146 34.6738C174.02 34.6938 173.927 34.7536 173.867 34.8599C173.804 34.9596 173.754 35.1391 173.721 35.4049L173.043 40.3494C173.379 40.3959 173.831 40.4657 174.399 40.5621C174.894 40.6518 175.256 40.7083 175.489 40.7348C176.399 40.8611 177.167 40.8811 177.788 40.8013C178.044 40.7681 178.257 40.6651 178.426 40.4956C178.592 40.3294 178.775 40.0769 178.971 39.738C179.004 39.6848 179.058 39.6051 179.131 39.4987C179.201 39.3857 179.267 39.2861 179.33 39.2063L180.008 39.3259L179.317 44.3635Z" fill="black"/>
<path d="M200.017 39.5518C201.4 40.0303 202.559 40.7813 203.5 41.7981C204.447 42.8182 205.061 44.0178 205.347 45.4002C205.64 46.7758 205.527 48.2014 205.015 49.6801C204.51 51.1422 203.706 52.3151 202.609 53.2024C201.509 54.0863 200.256 54.6312 198.848 54.8372C197.439 55.0499 196.023 54.9103 194.608 54.4252C193.305 53.9733 192.188 53.2489 191.258 52.2587C190.334 51.2651 189.723 50.0988 189.424 48.7497C189.121 47.3939 189.228 45.985 189.743 44.5229C190.301 42.9113 191.142 41.6585 192.268 40.7614C193.391 39.8675 194.637 39.3325 196.003 39.1531C197.375 38.967 198.715 39.0999 200.017 39.5518ZM195.498 53.7606C196.382 54.0696 197.256 54.1128 198.117 53.8935C198.984 53.6709 199.771 53.1791 200.482 52.4182C201.2 51.6638 201.765 50.6869 202.184 49.4807C202.662 48.1083 202.865 46.7891 202.795 45.5198C202.722 44.2537 202.39 43.1539 201.798 42.2234C201.203 41.293 200.383 40.6484 199.339 40.2829C198.469 39.9838 197.605 39.9306 196.747 40.1234C195.887 40.3194 195.089 40.7846 194.355 41.519C193.627 42.2567 193.046 43.2469 192.614 44.4963C192.135 45.8787 191.929 47.2178 192.002 48.5104C192.082 49.7964 192.421 50.9029 193.026 51.8333C193.637 52.7637 194.461 53.4051 195.498 53.7606Z" fill="black"/>
<path d="M224.768 51.2637C226.018 52.028 226.991 53.0049 227.692 54.2012C228.39 55.3974 228.732 56.7 228.716 58.1089C228.706 59.5112 228.294 60.8769 227.48 62.216C226.672 63.5253 225.639 64.5022 224.383 65.1402C223.123 65.7782 221.781 66.0474 220.355 65.951C218.936 65.8513 217.591 65.4127 216.315 64.6351C215.135 63.9174 214.201 62.9737 213.51 61.804C212.819 60.6343 212.467 59.3583 212.46 57.976C212.45 56.5937 212.849 55.2379 213.656 53.9087C214.55 52.4566 215.64 51.4166 216.926 50.7852C218.219 50.1472 219.551 49.8913 220.927 50.0143C222.309 50.1306 223.589 50.546 224.768 51.2637ZM217.312 64.1832C218.109 64.6783 218.953 64.9043 219.85 64.8611C220.744 64.8245 221.618 64.5155 222.469 63.9307C223.326 63.3458 224.09 62.5118 224.755 61.4318C225.516 60.1891 225.998 58.943 226.204 57.6836C226.406 56.4275 226.317 55.2778 225.938 54.241C225.556 53.2043 224.894 52.4001 223.957 51.822C223.176 51.3435 222.342 51.1109 221.459 51.1175C220.571 51.1275 219.691 51.4166 218.813 51.9815C217.943 52.5397 217.165 53.3837 216.474 54.5069C215.71 55.7563 215.228 57.019 215.025 58.295C214.829 59.5644 214.926 60.7141 215.318 61.7508C215.707 62.7942 216.371 63.605 217.312 64.1832Z" fill="black"/>
<path d="M239.562 66.5174C239.881 66.1917 240.18 65.8229 240.466 65.4142C240.589 65.2115 240.632 64.9955 240.599 64.7629C240.572 64.5236 240.499 64.291 240.386 64.0584C240.28 63.8291 240.127 63.55 239.934 63.221C239.791 62.9652 239.685 62.7824 239.615 62.6761L240.067 62.264L245.051 67.049C246.46 68.3981 247.523 69.7672 248.241 71.1562C248.959 72.5385 249.238 73.9341 249.079 75.343C248.926 76.752 248.241 78.0878 247.018 79.3571C246.078 80.3407 244.965 81.0252 243.682 81.4173C242.396 81.8161 241.044 81.8294 239.628 81.4572C238.219 81.0917 236.87 80.2909 235.588 79.0514L229.527 73.243L229.925 72.791L230.47 73.0835C230.869 73.3227 231.195 73.4955 231.454 73.6018C231.71 73.7148 231.986 73.7514 232.278 73.7082C232.577 73.6616 232.876 73.4889 233.168 73.1898L239.562 66.5174ZM235.401 74.4924C234.93 74.9775 234.651 75.4527 234.564 75.9146C234.484 76.3831 234.66 76.845 235.096 77.2969C235.395 77.6159 235.714 77.9349 236.053 78.2539C236.963 79.1312 237.947 79.6628 239.004 79.8489C240.067 80.035 241.08 79.932 242.047 79.5432C243.021 79.1611 243.872 78.5895 244.599 77.8286C245.563 76.8251 246.241 75.7617 246.633 74.6386C247.022 73.5221 247.052 72.379 246.726 71.2093C246.397 70.033 245.669 68.8966 244.546 67.8067L243.124 66.4509L235.401 74.4924Z" fill="black"/>
<path d="M264.058 88.959C264.872 90.1719 265.347 91.4645 265.48 92.8402C265.619 94.2225 265.39 95.5517 264.789 96.8277C264.184 98.1037 263.234 99.1736 261.931 100.044C260.655 100.902 259.313 101.353 257.904 101.4C256.501 101.453 255.172 101.137 253.916 100.456C252.667 99.7817 251.623 98.8214 250.793 97.572C250.022 96.4289 249.563 95.1795 249.424 93.8237C249.291 92.4746 249.507 91.1721 250.075 89.916C250.64 88.6599 251.567 87.5966 252.853 86.726C254.268 85.779 255.697 85.2872 257.133 85.2506C258.575 85.2174 259.897 85.5397 261.094 86.2209C262.296 86.9054 263.287 87.8159 264.058 88.959ZM251.882 97.5853C252.404 98.3628 253.079 98.9277 253.903 99.2733C254.734 99.6189 255.661 99.702 256.681 99.5259C257.698 99.3464 258.741 98.9045 259.804 98.1967C261.007 97.3793 261.964 96.4455 262.675 95.3922C263.383 94.3355 263.782 93.2555 263.872 92.149C263.958 91.0491 263.699 90.0389 263.087 89.1185C262.572 88.3675 261.911 87.8093 261.107 87.4437C260.299 87.0815 259.382 86.9752 258.356 87.1247C257.325 87.2776 256.269 87.7195 255.179 88.4539C253.963 89.2713 252.999 90.2117 252.281 91.285C251.563 92.355 251.165 93.4449 251.085 94.5548C251.005 95.6613 251.271 96.6715 251.882 97.5853Z" fill="black"/>
<path d="M267.769 115.392C267.955 115.116 268.082 114.894 268.155 114.727C268.234 114.558 268.274 114.375 268.274 114.182C268.274 113.996 268.224 113.75 268.128 113.451L267.876 112.76L263.715 114.435C263.19 114.648 262.825 114.847 262.612 115.033C262.406 115.219 262.293 115.405 262.267 115.591C262.247 115.784 262.283 116.05 262.373 116.389C262.426 116.628 262.466 116.841 262.492 117.027C262.519 117.22 262.522 117.429 262.506 117.652L261.921 117.851L259.156 110.992L259.715 110.753C259.901 110.903 260.05 111.052 260.166 111.205C260.279 111.355 260.406 111.531 260.539 111.737C260.688 112.003 260.834 112.192 260.977 112.308C261.117 112.421 261.343 112.458 261.655 112.415C261.974 112.378 262.439 112.235 263.051 111.989L271.265 108.666C271.777 108.464 272.146 108.268 272.368 108.082C272.587 107.895 272.714 107.703 272.74 107.497C272.774 107.294 272.78 106.998 272.754 106.606C272.7 106.191 272.677 105.829 272.687 105.516L273.272 105.29L275.292 110.288C275.831 111.634 276.243 112.84 276.528 113.903C276.821 114.973 276.861 116.01 276.648 117.014C276.442 118.024 275.791 118.755 274.694 119.207C274.01 119.479 273.345 119.529 272.7 119.353C272.062 119.173 271.481 118.841 270.959 118.356C270.434 117.868 269.989 117.306 269.617 116.668C269.527 116.801 269.098 117.479 268.328 118.702C267.743 119.595 267.258 120.353 266.879 120.974C266.507 121.593 266.161 122.191 265.842 122.769C265.682 123.114 265.566 123.41 265.496 123.659C265.433 123.905 265.417 124.184 265.443 124.497C265.47 124.816 265.566 125.188 265.736 125.613L265.124 125.866C264.672 125.218 264.33 124.616 264.101 124.058C263.798 123.294 263.749 122.496 263.955 121.666C264.157 120.842 264.49 120.061 264.951 119.326C265.41 118.599 266.015 117.738 266.759 116.748C267.228 116.143 267.563 115.691 267.769 115.392ZM268.819 113.013C269.198 113.933 269.58 114.704 269.962 115.325C270.341 115.954 270.83 116.429 271.424 116.748C272.026 117.067 272.734 117.06 273.551 116.734C274.455 116.369 275.007 115.844 275.213 115.153C275.425 114.462 275.442 113.747 275.266 113.013C275.086 112.275 274.794 111.404 274.389 110.394L274.295 110.168L268.607 112.468L268.819 113.013Z" fill="black"/>
<path d="M273.648 134.524L273.063 134.418C272.086 134.238 271.296 134.105 270.684 134.019C270.073 133.929 269.608 133.913 269.289 133.966C269.013 134.019 268.81 134.165 268.677 134.404C268.544 134.644 268.454 134.9 268.411 135.175C268.375 135.458 268.358 135.793 268.358 136.186L268.345 136.425L267.694 136.544L266.67 131.121L267.268 131.002C267.365 131.102 267.454 131.195 267.534 131.294C267.62 131.391 267.713 131.52 267.813 131.68C267.963 131.919 268.109 132.112 268.252 132.265C268.401 132.414 268.611 132.53 268.876 132.61C269.053 132.653 269.242 132.697 269.448 132.743C269.661 132.786 269.8 132.813 269.873 132.823L270.259 132.889L282.075 135.096C282.161 135.112 282.308 135.109 282.514 135.082C282.673 135.056 282.799 135.042 282.899 135.042C283.006 135.049 283.099 135.076 283.178 135.122C283.248 135.494 283.271 135.82 283.245 136.106C283.225 136.388 283.138 136.684 282.979 136.996L271.335 144.679C271.123 144.819 270.953 144.971 270.83 145.131C270.714 145.29 270.634 145.443 270.591 145.596C270.545 145.756 270.498 145.962 270.445 146.221C270.408 146.44 270.355 146.679 270.285 146.939L269.687 147.032L268.425 140.346L269.009 140.213C269.185 140.549 269.355 140.838 269.514 141.077C269.674 141.316 269.867 141.516 270.099 141.675C270.329 141.841 270.578 141.904 270.844 141.861C271.153 141.798 272.216 141.2 274.034 140.067C274.14 139.994 274.24 139.927 274.339 139.867C274.446 139.804 274.542 139.751 274.632 139.708L273.648 134.524ZM280.786 135.76L274.725 134.71L275.549 139.07L280.786 135.76Z" fill="black"/>
<path d="M50.1139 306.167H49.9478C48.921 306.167 48.4491 306.762 48.4491 307.4C48.4491 307.995 48.921 308.61 50.0508 308.61C51.5693 308.61 52.43 307.46 52.43 307.46C52.43 307.46 54.9753 308.61 57.5406 308.61C59.1423 308.61 59.86 307.852 59.86 306.805C59.86 306.167 59.6341 305.922 59.6341 305.922C59.6341 305.922 58.8964 306.457 56.5969 306.457C55.0185 306.457 53.8256 306.393 52.8221 306.334L54.7294 295.458C55.0185 293.876 54.7095 293.218 53.1909 293.218H51.7554C48.4491 293.218 46.5816 294.697 46.5816 296.727C46.5816 297.96 47.4057 298.781 48.7382 298.781C49.7849 298.781 50.2967 298.123 50.2967 297.631C50.2967 297.508 50.2767 297.448 50.2767 297.448C50.2767 297.448 50.1538 297.508 49.9278 297.508C49.4161 297.508 49.1071 297.139 49.1071 296.564C49.1071 295.395 50.0308 294.348 51.8983 294.348H52.1043C52.1043 294.614 52.0844 294.923 52.0013 295.355L50.1139 306.167Z" fill="black"/>
<path d="M68.0885 293.218C63.5959 293.218 60.6817 297.345 60.6817 302.904C60.6817 306.742 62.7319 308.61 65.5664 308.61C70.142 308.61 72.9731 304.343 72.9731 298.923C72.9731 295.395 71.1887 293.218 68.0885 293.218ZM63.7188 300.914C64.4366 296.215 66.221 294.348 67.8226 294.348C69.1152 294.348 70.142 295.292 70.142 298.103C70.142 298.84 70.0789 299.93 69.9161 300.914C69.2182 305.347 67.5967 307.48 65.8123 307.48C64.5396 307.48 63.4929 306.556 63.4929 303.725C63.4929 302.987 63.5759 301.901 63.7188 300.914Z" fill="black"/>
<path d="M81.7545 308.61C84.3397 308.61 85.9613 306.373 87.3768 302.824C88.3438 300.382 89.2676 297.076 89.2676 295.208C89.2676 293.939 88.9785 293.035 87.7889 293.035C87.1941 293.035 86.905 293.218 86.905 293.218C87.1941 294.062 87.317 295.065 87.317 296.152C87.317 299.212 86.3301 302.844 85.1206 304.938C84.3829 306.187 83.499 306.825 82.5353 306.825C81.4488 306.825 80.422 306.29 80.422 303.868C80.422 303.213 80.525 302.373 80.6878 301.406L81.7146 295.458C81.9804 293.876 81.6946 293.218 80.1761 293.218H78.7605C75.4542 293.218 73.5867 294.697 73.5867 296.727C73.5867 297.96 74.4108 298.78 75.7433 298.78C76.79 298.78 77.3018 298.123 77.3018 297.631C77.3018 297.508 77.2818 297.448 77.2818 297.448C77.2818 297.448 77.1589 297.508 76.9329 297.508C76.4212 297.508 76.1121 297.139 76.1121 296.564C76.1121 295.394 77.0359 294.348 78.9034 294.348H79.0895C79.0895 294.348 79.0895 294.76 78.9865 295.355L78.0195 301.386C77.8966 302.127 77.8367 303.007 77.8367 303.745C77.8367 306.476 78.9034 308.61 81.7545 308.61Z" fill="black"/>
<path d="M97.8633 294.348C98.9101 294.348 99.4451 294.883 99.4451 295.949C99.4451 297.365 98.5213 298.206 98.5213 298.206C98.5213 298.206 98.8901 298.698 99.774 298.698C101.087 298.698 101.764 297.734 101.764 296.421C101.764 294.717 100.369 293.218 97.6374 293.218C94.4972 293.218 92.221 295.109 92.221 297.671C92.221 298.967 92.9388 300.093 94.1915 300.688C91.8721 301.283 90.4964 302.864 90.4964 304.712C90.4964 307.174 92.6098 308.61 95.8131 308.61C99.3819 308.61 102.316 306.702 102.562 305.49C102.625 305.224 102.562 305.038 102.213 305.038C101.558 305.799 99.8338 306.905 97.1456 306.905C94.3743 306.905 93.3276 305.676 93.3276 304.157C93.3276 302.761 94.2746 301.529 95.9161 301.14H96.388C97.0858 301.14 97.4746 300.874 97.4746 300.359C97.4746 300.216 97.4546 300.136 97.4546 300.136C95.5871 300.216 95.0522 298.967 95.0522 297.714C95.0522 295.886 96.285 294.348 97.8633 294.348Z" fill="black"/>
<path d="M114.573 293.218H113.918C110.612 293.218 108.744 294.697 108.744 296.727C108.744 297.96 109.569 298.78 110.901 298.78C111.948 298.78 112.459 298.123 112.459 297.631C112.459 297.508 112.44 297.448 112.44 297.448C112.44 297.448 112.317 297.508 112.091 297.508C111.579 297.508 111.27 297.139 111.27 296.564C111.27 295.497 111.988 294.574 113.486 294.388L115.663 303.396L115.148 306.373C114.882 307.952 115.168 308.61 116.686 308.61C117.53 308.61 117.856 308.404 117.856 308.404C117.856 308.404 117.63 307.892 117.879 306.456L118.411 303.396L119.644 301.592C122.003 298.123 123.807 295.989 123.807 294.411C123.807 293.527 123.315 293.035 122.166 293.035C121.674 293.035 121.388 293.218 121.388 293.218C121.388 293.218 121.511 293.487 121.511 293.959C121.511 295.989 120.175 298.697 118.351 301.429L118.062 301.858L116.258 294.431C116.071 293.65 115.394 293.218 114.573 293.218Z" fill="black"/>
<path d="M131.626 293.218C127.134 293.218 124.219 297.345 124.219 302.904C124.219 306.742 126.27 308.61 129.104 308.61C133.68 308.61 136.511 304.343 136.511 298.923C136.511 295.395 134.726 293.218 131.626 293.218ZM127.256 300.914C127.974 296.215 129.759 294.348 131.36 294.348C132.653 294.348 133.68 295.292 133.68 298.103C133.68 298.84 133.617 299.93 133.454 300.914C132.756 305.347 131.134 307.48 129.35 307.48C128.077 307.48 127.031 306.556 127.031 303.725C127.031 302.987 127.114 301.901 127.256 300.914Z" fill="black"/>
<path d="M143.611 304.895L145.272 295.458C145.561 293.876 145.252 293.218 143.734 293.218H142.298C138.992 293.218 137.124 294.697 137.124 296.727C137.124 297.96 137.948 298.781 139.281 298.781C140.328 298.781 140.839 298.123 140.839 297.631C140.839 297.508 140.819 297.448 140.819 297.448C140.819 297.448 140.697 297.508 140.471 297.508C139.959 297.508 139.65 297.139 139.65 296.564C139.65 295.395 140.574 294.348 142.441 294.348H142.647C142.647 294.614 142.604 294.943 142.544 295.355L141.045 303.891C140.922 304.629 140.839 305.244 140.839 306.064C140.839 307.583 141.803 308.61 143.282 308.61C144.76 308.61 145.827 307.726 146.628 306.413C147.12 305.593 147.572 304.712 148 303.788C147.877 304.609 147.818 305.307 147.818 306.064C147.818 307.626 148.824 308.61 150.28 308.61C152.167 308.61 153.809 306.825 153.995 305.573C154.035 305.244 153.912 305.038 153.603 305.038C153.317 305.612 152.456 306.825 151.45 306.825C150.752 306.825 150.32 306.31 150.526 305.121L152.207 295.458C152.476 293.876 152.187 293.218 150.669 293.218C149.828 293.218 149.499 293.424 149.499 293.424C149.499 293.424 149.745 293.939 149.479 295.355C148.575 300.176 147.223 303.376 145.744 305.593C145.212 306.393 144.717 306.825 144.245 306.825C143.571 306.825 143.365 306.29 143.611 304.895Z" fill="black"/>
<path d="M163.658 302.226C166.101 301.921 168.234 300.236 168.234 297.98C168.234 295.169 165.792 293.218 160.355 293.218C155.554 293.218 153.397 295.109 153.397 297.139C153.397 298.369 154.221 299.189 155.554 299.189C156.601 299.189 157.112 298.535 157.112 298.043C157.112 297.92 157.092 297.857 157.092 297.857C157.092 297.857 156.969 297.92 156.743 297.92C156.232 297.92 155.923 297.548 155.923 296.976C155.923 295.807 157.072 294.348 160.193 294.348C163.947 294.368 165.383 295.743 165.383 297.857C165.383 300.259 163.825 301.755 161.402 301.755H160.621L161.339 297.631C161.608 296.052 161.319 295.395 159.8 295.395C158.96 295.395 158.631 295.601 158.631 295.601C158.631 295.601 158.857 296.112 158.611 297.528L157.072 306.373C156.807 307.952 157.092 308.61 158.611 308.61C159.452 308.61 159.781 308.404 159.781 308.404C159.781 308.404 159.555 307.892 159.8 306.457L160.415 302.884H161.585C162.509 302.884 162.901 303.459 163.187 304.566L163.579 306.064C163.987 307.646 164.931 308.61 166.39 308.61C168.234 308.61 169.796 306.722 169.939 305.573C169.979 305.244 169.856 305.038 169.55 305.038C169.301 305.553 168.48 306.825 167.536 306.825C166.882 306.825 166.49 306.29 166.184 305.287L165.835 304.157C165.506 303.09 164.665 302.452 163.658 302.226Z" fill="black"/>
<path d="M183.873 301.612L183.604 303.213C183.421 304.3 183.318 305.121 183.318 306.064C183.318 307.626 184.325 308.61 185.78 308.61C187.668 308.61 189.309 306.825 189.495 305.573C189.535 305.244 189.412 305.038 189.103 305.038C188.818 305.612 187.957 306.825 186.95 306.825C186.252 306.825 185.82 306.31 186.026 305.121L187.708 295.458C187.977 293.876 187.688 293.218 186.169 293.218C185.329 293.218 185 293.424 185 293.424C185 293.424 185.226 293.939 184.98 295.355L184.076 300.485H179.892L180.773 295.458C181.039 293.876 180.753 293.218 179.234 293.218H177.799C174.493 293.218 172.625 294.697 172.625 296.727C172.625 297.96 173.449 298.781 174.782 298.781C175.828 298.781 176.34 298.123 176.34 297.631C176.34 297.508 176.32 297.448 176.32 297.448C176.32 297.448 176.197 297.508 175.971 297.508C175.459 297.508 175.15 297.139 175.15 296.564C175.15 295.395 176.074 294.348 177.942 294.348H178.148C178.148 294.614 178.105 294.943 178.045 295.355L176.114 306.373C175.848 307.952 176.134 308.61 177.653 308.61C178.497 308.61 178.822 308.404 178.822 308.404C178.822 308.404 178.6 307.892 178.846 306.457L179.686 301.612H183.873Z" fill="black"/>
<path d="M195.384 304.895L197.046 295.458C197.335 293.876 197.026 293.218 195.507 293.218H194.072C190.765 293.218 188.898 294.697 188.898 296.727C188.898 297.96 189.722 298.781 191.054 298.781C192.101 298.781 192.613 298.123 192.613 297.631C192.613 297.508 192.593 297.448 192.593 297.448C192.593 297.448 192.47 297.508 192.244 297.508C191.732 297.508 191.423 297.139 191.423 296.564C191.423 295.395 192.347 294.348 194.214 294.348H194.421C194.421 294.614 194.377 294.943 194.318 295.355L192.819 303.891C192.696 304.629 192.613 305.244 192.613 306.064C192.613 307.583 193.576 308.61 195.055 308.61C196.534 308.61 197.601 307.726 198.401 306.413C198.893 305.593 199.345 304.712 199.774 303.788C199.651 304.609 199.591 305.307 199.591 306.064C199.591 307.626 200.598 308.61 202.053 308.61C203.941 308.61 205.582 306.825 205.768 305.573C205.808 305.244 205.685 305.038 205.376 305.038C205.09 305.612 204.23 306.825 203.223 306.825C202.525 306.825 202.093 306.31 202.299 305.121L203.981 295.458C204.25 293.876 203.961 293.218 202.442 293.218C201.601 293.218 201.272 293.424 201.272 293.424C201.272 293.424 201.518 293.939 201.252 295.355C200.349 300.176 198.996 303.376 197.517 305.593C196.986 306.393 196.491 306.825 196.019 306.825C195.344 306.825 195.138 306.29 195.384 304.895Z" fill="black"/>
<path d="M210.59 295.394L209.009 304.423C208.763 305.798 208.6 306.805 208.6 307.503C208.6 308.447 208.929 308.796 209.706 308.796C210.221 308.796 210.424 308.61 210.424 308.61C210.424 308.61 209.706 307.091 210.447 302.844L211.677 295.846L214.837 306.988C215.146 308.075 215.658 308.61 216.788 308.61C217.854 308.61 218.243 308.404 218.243 308.404C218.223 308.344 218.12 307.809 218.366 306.433L219.948 297.405C220.194 296.029 220.356 295.026 220.356 294.328C220.356 293.384 220.031 293.035 219.25 293.035C218.735 293.035 218.532 293.218 218.532 293.218C218.532 293.218 219.27 294.736 218.512 298.986L217.299 305.838L214.182 294.839C213.853 293.65 213.259 293.218 212.169 293.218H210.344C207.038 293.218 205.171 294.697 205.171 296.727C205.171 297.96 205.995 298.78 207.327 298.78C208.374 298.78 208.886 298.123 208.886 297.631C208.886 297.508 208.866 297.448 208.866 297.448C208.866 297.448 208.743 297.508 208.517 297.508C208.005 297.508 207.696 297.139 207.696 296.564C207.696 295.394 208.62 294.348 210.487 294.348H210.713C210.693 294.637 210.713 294.677 210.59 295.394Z" fill="black"/>
<path d="M234.824 302.147H230.76C230.022 302.147 229.325 302.064 229.325 302.064C229.325 302.064 229.162 302.329 229.162 302.761C229.162 303.562 229.673 304.074 230.557 304.074C231.275 304.074 231.83 303.994 232.485 303.828C231.953 305.676 230.577 306.825 228.833 306.825C226.679 306.825 225.467 305.264 225.467 302.25C225.467 297.345 228.052 294.348 230.042 294.348C231.255 294.348 231.91 294.963 231.91 296.132C231.91 298.369 230.371 298.987 230.371 298.987C230.371 298.987 230.7 299.684 231.684 299.684C233.123 299.684 234.209 298.515 234.209 296.707C234.209 294.78 232.671 293.218 230.085 293.218C225.879 293.218 222.616 296.953 222.616 302.31C222.616 306.393 225.058 308.61 228.115 308.61C231.458 308.61 233.265 306.044 233.717 303.499C234.455 303.316 234.927 303.027 234.927 302.535C234.927 302.29 234.824 302.147 234.824 302.147Z" fill="black"/>
<path d="M243.319 294.348C244.366 294.348 244.901 294.883 244.901 295.949C244.901 297.365 243.977 298.206 243.977 298.206C243.977 298.206 244.346 298.698 245.23 298.698C246.542 298.698 247.22 297.734 247.22 296.421C247.22 294.717 245.825 293.218 243.093 293.218C239.953 293.218 237.677 295.109 237.677 297.671C237.677 298.967 238.395 300.093 239.647 300.688C237.328 301.283 235.952 302.864 235.952 304.712C235.952 307.174 238.066 308.61 241.269 308.61C244.838 308.61 247.772 306.702 248.018 305.49C248.081 305.224 248.018 305.038 247.669 305.038C247.014 305.799 245.29 306.905 242.601 306.905C239.83 306.905 238.783 305.676 238.783 304.157C238.783 302.761 239.73 301.529 241.372 301.14H241.844C242.542 301.14 242.93 300.874 242.93 300.359C242.93 300.216 242.91 300.136 242.91 300.136C241.043 300.216 240.508 298.967 240.508 297.714C240.508 295.886 241.741 294.348 243.319 294.348Z" fill="black"/>
<path d="M257.089 302.226C259.531 301.921 261.664 300.236 261.664 297.98C261.664 295.169 259.222 293.218 253.786 293.218C248.984 293.218 246.827 295.109 246.827 297.139C246.827 298.369 247.652 299.189 248.984 299.189C250.031 299.189 250.542 298.535 250.542 298.043C250.542 297.92 250.523 297.857 250.523 297.857C250.523 297.857 250.4 297.92 250.174 297.92C249.662 297.92 249.353 297.548 249.353 296.976C249.353 295.807 250.503 294.348 253.623 294.348C257.378 294.368 258.813 295.743 258.813 297.857C258.813 300.259 257.255 301.755 254.832 301.755H254.051L254.769 297.631C255.038 296.052 254.749 295.395 253.231 295.395C252.39 295.395 252.061 295.601 252.061 295.601C252.061 295.601 252.287 296.112 252.041 297.528L250.503 306.373C250.237 307.952 250.523 308.61 252.041 308.61C252.882 308.61 253.211 308.404 253.211 308.404C253.211 308.404 252.985 307.892 253.231 306.457L253.845 302.884H255.015C255.939 302.884 256.331 303.459 256.617 304.566L257.009 306.064C257.418 307.646 258.361 308.61 259.82 308.61C261.664 308.61 263.226 306.722 263.369 305.573C263.409 305.244 263.286 305.038 262.98 305.038C262.731 305.553 261.91 306.825 260.966 306.825C260.312 306.825 259.92 306.29 259.614 305.287L259.265 304.157C258.936 303.09 258.095 302.452 257.089 302.226Z" fill="black"/>
</svg>
