<svg width="295" height="295" viewBox="0 0 295 295" fill="none" xmlns="http://www.w3.org/2000/svg">
<g clip-path="url(#clip0_375_638)">
<path d="M36.875 82.9688H55.3125V119.844L54.6672 120.673L18.4375 92.1875L17.3312 91.0813C18.6126 89.7968 20.0077 88.6475 21.5166 87.6365C23.0254 86.6255 24.6171 85.7743 26.2919 85.0768C27.9697 84.3823 29.6997 83.8568 31.4789 83.5004C33.2612 83.147 35.0589 82.9688 36.875 82.9688Z" fill="#E27B47"/>
<path d="M285.781 110.625V258.125C285.781 259.941 285.603 261.739 285.25 263.518C284.893 265.3 284.368 267.027 283.673 268.705C282.976 270.383 282.124 271.975 281.113 273.483C280.102 274.992 278.953 276.387 277.669 277.669L175.156 175.156L173.589 173.128L240.333 120.673L276.562 92.1875L277.669 91.0813C278.953 92.3627 280.102 93.7578 281.113 95.2666C282.124 96.7754 282.976 98.3671 283.673 100.042C284.368 101.72 284.893 103.45 285.25 105.229C285.603 107.011 285.781 108.809 285.781 110.625Z" fill="#FFBC0D"/>
<path d="M258.125 82.9688C259.941 82.9688 261.739 83.147 263.518 83.5004C265.3 83.8568 267.027 84.3823 268.705 85.0768C270.383 85.7743 271.975 86.6255 273.483 87.6365C274.992 88.6475 276.387 89.7968 277.669 91.0813L276.562 92.1875L240.333 120.673L239.688 119.844V82.9688H258.125Z" fill="#E27B47"/>
<path d="M239.687 119.844L240.333 120.673L173.589 173.128L147.5 193.594L121.411 173.128L54.6672 120.673L55.3125 119.844V18.4375C55.3125 17.8321 55.3709 17.2329 55.4907 16.6398C55.6075 16.0468 55.7826 15.4691 56.0131 14.9098C56.2467 14.3505 56.5294 13.8189 56.8674 13.3149C57.2023 12.8141 57.5834 12.347 58.0136 11.9198C58.4407 11.4896 58.9078 11.1086 59.4087 10.7736C59.9126 10.4356 60.4443 10.1529 61.0035 9.91938C61.5628 9.68891 62.1405 9.51375 62.7336 9.39698C63.3267 9.27714 63.9259 9.21875 64.5312 9.21875H230.469C231.074 9.21875 231.673 9.27714 232.266 9.39698C232.859 9.51375 233.437 9.68891 233.996 9.91938C234.556 10.1529 235.087 10.4356 235.591 10.7736C236.092 11.1086 236.559 11.4896 236.986 11.9198C237.417 12.347 237.798 12.8141 238.133 13.3149C238.471 13.8189 238.753 14.3505 238.987 14.9098C239.217 15.4691 239.392 16.0468 239.509 16.6398C239.629 17.2329 239.687 17.8321 239.687 18.4375V119.844Z" fill="white"/>
<path d="M18.4375 92.1875L54.6672 120.673L121.411 173.128L119.844 175.156L17.3312 277.669C16.0468 276.387 14.8975 274.992 13.8865 273.483C12.8755 271.975 12.0243 270.383 11.3268 268.708C10.6323 267.03 10.1068 265.3 9.75036 263.521C9.39698 261.739 9.21875 259.941 9.21875 258.125V110.625C9.21875 108.809 9.39698 107.011 9.75036 105.232C10.1068 103.45 10.6323 101.723 11.3268 100.045C12.0243 98.3671 12.8755 96.7754 13.8865 95.2666C14.8975 93.7578 16.0468 92.3627 17.3312 91.0813L18.4375 92.1875Z" fill="#FFBC0D"/>
<path d="M175.156 175.156L277.669 277.669C276.387 278.953 274.992 280.103 273.483 281.113C271.975 282.124 270.383 282.976 268.708 283.673C267.03 284.368 265.3 284.893 263.521 285.25C261.739 285.603 259.941 285.781 258.125 285.781H36.875C35.0589 285.781 33.2612 285.603 31.482 285.25C29.6997 284.893 27.9727 284.368 26.2949 283.673C24.6171 282.976 23.0254 282.124 21.5166 281.113C20.0077 280.103 18.6126 278.953 17.3312 277.669L119.844 175.156L121.411 173.128L147.5 193.594L173.589 173.128L175.156 175.156Z" fill="#F0C808"/>
<path d="M258.125 295H36.875C35.6673 295 34.4628 294.942 33.2612 294.822C32.0597 294.705 30.8644 294.527 29.6813 294.29C28.4952 294.057 27.3274 293.762 26.172 293.411C25.0135 293.061 23.8796 292.655 22.7642 292.194C21.6487 291.73 20.5578 291.214 19.4915 290.646C18.4283 290.077 17.3927 289.456 16.3879 288.787C15.383 288.114 14.4151 287.395 13.4809 286.629C12.5467 285.864 11.6556 285.053 10.8013 284.199C9.94703 283.344 9.13578 282.453 8.37063 281.519C7.60547 280.585 6.88641 279.617 6.21344 278.612C5.54354 277.607 4.92281 276.572 4.35432 275.508C3.78583 274.442 3.26958 273.351 2.80557 272.236C2.34464 271.12 1.93901 269.983 1.5887 268.828C1.23839 267.673 0.943386 266.505 0.709844 265.319C0.473229 264.136 0.295 262.94 0.178229 261.739C0.0583855 260.537 0 259.333 0 258.125V110.625C0 109.417 0.0583855 108.213 0.178229 107.011C0.295 105.81 0.473229 104.614 0.709844 103.431C0.943386 102.245 1.23839 101.077 1.5887 99.922C1.93901 98.7635 2.34464 97.6296 2.80557 96.5142C3.26958 95.3987 3.78583 94.3078 4.35432 93.2415C4.92281 92.1783 5.54354 91.1427 6.21344 90.1379C6.88641 89.133 7.60547 88.1651 8.37063 87.2309C9.13578 86.2967 9.94703 85.4056 10.8013 84.5513C11.6556 83.697 12.5467 82.8858 13.4809 82.1206C14.4151 81.3555 15.383 80.6364 16.3879 79.9634C17.3927 79.2935 18.4283 78.6728 19.4915 78.1043C20.5578 77.5358 21.6487 77.0196 22.7642 76.5556C23.8796 76.0946 25.0135 75.689 26.172 75.3387C27.3274 74.9884 28.4952 74.6934 29.6813 74.4598C30.8644 74.2232 32.0597 74.045 33.2612 73.9282C34.4628 73.8084 35.6673 73.75 36.875 73.75H55.3125C55.9179 73.75 56.5171 73.8084 57.1102 73.9282C57.7032 74.045 58.2809 74.2202 58.8402 74.4506C59.3995 74.6842 59.9311 74.9669 60.4351 75.3049C60.9359 75.6398 61.403 76.0209 61.8302 76.4511C62.2604 76.8782 62.6414 77.3422 62.9764 77.8462C63.3144 78.3502 63.5971 78.8818 63.8306 79.441C64.0611 80.0003 64.2363 80.578 64.353 81.1711C64.4729 81.7642 64.5312 82.3634 64.5312 82.9688C64.5312 83.5741 64.4729 84.1733 64.353 84.7664C64.2363 85.3595 64.0611 85.9372 63.8306 86.4965C63.5971 87.0557 63.3144 87.5873 62.9764 88.0913C62.6414 88.5922 62.2604 89.0593 61.8302 89.4864C61.403 89.9166 60.9359 90.2977 60.4351 90.6326C59.9311 90.9706 59.3995 91.2533 58.8402 91.4869C58.2809 91.7173 57.7032 91.8925 57.1102 92.0093C56.5171 92.1291 55.9179 92.1875 55.3125 92.1875H36.875C36.2696 92.1875 35.6673 92.2182 35.0681 92.2766C34.4658 92.335 33.8697 92.4241 33.2766 92.5409C32.6866 92.6607 32.0997 92.8052 31.522 92.9803C30.9443 93.1555 30.3758 93.3614 29.8196 93.5918C29.2603 93.8223 28.7164 94.0804 28.1848 94.3631C27.6501 94.6489 27.1339 94.9593 26.633 95.2942C26.129 95.6292 25.6466 95.9887 25.1795 96.3728C24.7124 96.7569 24.2638 97.1595 23.8366 97.5866C23.4095 98.0138 23.0069 98.4624 22.6228 98.9295C22.2387 99.3966 21.8792 99.879 21.5442 100.383C21.2093 100.884 20.8989 101.4 20.6131 101.935C20.3304 102.466 20.0723 103.01 19.8418 103.57C19.6114 104.126 19.4055 104.694 19.2303 105.272C19.0552 105.85 18.9107 106.437 18.7909 107.027C18.6741 107.62 18.585 108.216 18.5266 108.818C18.4682 109.417 18.4375 110.02 18.4375 110.625V258.125C18.4375 258.73 18.4682 259.333 18.5266 259.932C18.585 260.534 18.6741 261.13 18.7909 261.723C18.9107 262.313 19.0552 262.9 19.2303 263.478C19.4055 264.056 19.6114 264.624 19.8418 265.18C20.0723 265.74 20.3304 266.284 20.6131 266.815C20.8989 267.35 21.2093 267.866 21.5442 268.367C21.8792 268.871 22.2387 269.353 22.6228 269.821C23.0069 270.288 23.4095 270.736 23.8366 271.163C24.2638 271.591 24.7124 271.993 25.1795 272.377C25.6466 272.761 26.129 273.121 26.633 273.456C27.1339 273.791 27.6501 274.101 28.1848 274.387C28.7164 274.67 29.2603 274.928 29.8196 275.158C30.3758 275.389 30.9443 275.595 31.522 275.77C32.0997 275.945 32.6866 276.089 33.2766 276.209C33.8697 276.326 34.4658 276.415 35.0681 276.473C35.6673 276.532 36.2696 276.562 36.875 276.562H258.125C258.73 276.562 259.333 276.532 259.932 276.473C260.534 276.415 261.13 276.326 261.723 276.209C262.313 276.089 262.9 275.945 263.478 275.77C264.056 275.595 264.624 275.389 265.18 275.158C265.74 274.928 266.284 274.67 266.815 274.387C267.35 274.101 267.866 273.791 268.367 273.456C268.871 273.121 269.353 272.761 269.821 272.377C270.288 271.993 270.736 271.591 271.163 271.163C271.591 270.736 271.993 270.288 272.377 269.821C272.761 269.353 273.121 268.871 273.456 268.367C273.791 267.866 274.101 267.35 274.387 266.815C274.67 266.284 274.928 265.74 275.158 265.18C275.389 264.624 275.595 264.056 275.77 263.478C275.945 262.9 276.089 262.313 276.209 261.723C276.326 261.13 276.415 260.534 276.473 259.932C276.532 259.333 276.562 258.73 276.562 258.125V110.625C276.562 110.02 276.532 109.417 276.473 108.818C276.415 108.216 276.326 107.62 276.209 107.027C276.089 106.437 275.945 105.85 275.77 105.272C275.595 104.694 275.389 104.126 275.158 103.57C274.928 103.01 274.67 102.466 274.387 101.935C274.101 101.4 273.791 100.884 273.456 100.383C273.121 99.879 272.761 99.3966 272.377 98.9295C271.993 98.4624 271.591 98.0138 271.163 97.5866C270.736 97.1595 270.288 96.7569 269.821 96.3728C269.353 95.9887 268.871 95.6292 268.367 95.2942C267.866 94.9593 267.35 94.6489 266.815 94.3631C266.284 94.0804 265.74 93.8223 265.18 93.5918C264.624 93.3614 264.056 93.1555 263.478 92.9803C262.9 92.8052 262.313 92.6607 261.723 92.5409C261.13 92.4241 260.534 92.335 259.932 92.2766C259.333 92.2182 258.73 92.1875 258.125 92.1875H239.688C239.082 92.1875 238.483 92.1291 237.89 92.0093C237.297 91.8925 236.719 91.7173 236.16 91.4869C235.601 91.2533 235.069 90.9706 234.565 90.6326C234.061 90.2977 233.597 89.9166 233.17 89.4864C232.74 89.0593 232.359 88.5922 232.024 88.0913C231.686 87.5873 231.403 87.0557 231.169 86.4965C230.939 85.9372 230.764 85.3595 230.647 84.7664C230.527 84.1733 230.469 83.5741 230.469 82.9688C230.469 82.3634 230.527 81.7642 230.647 81.1711C230.764 80.578 230.939 80.0003 231.169 79.441C231.403 78.8818 231.686 78.3502 232.024 77.8462C232.359 77.3422 232.74 76.8782 233.17 76.4511C233.597 76.0209 234.061 75.6398 234.565 75.3049C235.069 74.9669 235.601 74.6842 236.16 74.4506C236.719 74.2202 237.297 74.045 237.89 73.9282C238.483 73.8084 239.082 73.75 239.688 73.75H258.125C259.333 73.75 260.537 73.8084 261.739 73.9282C262.94 74.045 264.136 74.2232 265.319 74.4598C266.505 74.6934 267.673 74.9884 268.828 75.3387C269.983 75.689 271.12 76.0946 272.236 76.5556C273.351 77.0196 274.442 77.5358 275.508 78.1043C276.572 78.6728 277.607 79.2935 278.612 79.9634C279.617 80.6364 280.585 81.3555 281.519 82.1206C282.453 82.8858 283.344 83.697 284.199 84.5513C285.053 85.4056 285.864 86.2967 286.629 87.2309C287.395 88.1651 288.114 89.133 288.787 90.1379C289.456 91.1427 290.077 92.1783 290.646 93.2415C291.214 94.3078 291.73 95.3987 292.194 96.5142C292.655 97.6296 293.061 98.7635 293.411 99.922C293.762 101.077 294.057 102.245 294.29 103.431C294.527 104.614 294.705 105.81 294.822 107.011C294.942 108.213 295 109.417 295 110.625V258.125C295 259.333 294.942 260.537 294.822 261.739C294.705 262.94 294.527 264.136 294.29 265.319C294.057 266.505 293.762 267.673 293.411 268.828C293.061 269.983 292.655 271.12 292.194 272.236C291.73 273.351 291.214 274.442 290.646 275.508C290.077 276.572 289.456 277.607 288.787 278.612C288.114 279.617 287.395 280.585 286.629 281.519C285.864 282.453 285.053 283.344 284.199 284.199C283.344 285.053 282.453 285.864 281.519 286.629C280.585 287.395 279.617 288.114 278.612 288.787C277.607 289.456 276.572 290.077 275.508 290.646C274.442 291.214 273.351 291.73 272.236 292.194C271.12 292.655 269.983 293.061 268.828 293.411C267.673 293.762 266.505 294.057 265.319 294.29C264.136 294.527 262.94 294.705 261.739 294.822C260.537 294.942 259.333 295 258.125 295Z" fill="black"/>
<path d="M147.5 202.813C146.468 202.813 145.463 202.644 144.485 202.305C143.508 201.967 142.614 201.479 141.803 200.84L12.7403 99.4334C12.2517 99.0647 11.8062 98.6499 11.4036 98.1889C10.998 97.731 10.6415 97.2363 10.3373 96.7078C10.03 96.1792 9.77804 95.623 9.58138 95.0422C9.38778 94.4645 9.2495 93.8715 9.17268 93.263C9.09585 92.6577 9.07742 92.0492 9.12044 91.4377C9.16346 90.8293 9.26794 90.227 9.4308 89.637C9.59367 89.0501 9.81184 88.4816 10.0884 87.9346C10.365 87.3876 10.6907 86.8744 11.0687 86.3951C11.4466 85.9126 11.8707 85.4732 12.3347 85.0768C12.8018 84.6804 13.2996 84.3331 13.8343 84.0351C14.369 83.737 14.9282 83.4973 15.5121 83.3099C16.0929 83.1255 16.689 82.9964 17.2975 82.9288C17.9059 82.8612 18.5143 82.8551 19.1228 82.9073C19.7343 82.9626 20.3304 83.0763 20.9174 83.2484C21.5043 83.4205 22.0697 83.6509 22.6105 83.9337C23.1514 84.2194 23.6615 84.5544 24.1347 84.9416L147.5 181.868L270.865 84.9416C271.339 84.5544 271.849 84.2194 272.389 83.9337C272.93 83.6509 273.496 83.4205 274.083 83.2484C274.67 83.0763 275.266 82.9626 275.877 82.9073C276.486 82.8551 277.094 82.8612 277.703 82.9288C278.311 82.9964 278.907 83.1255 279.488 83.3099C280.072 83.4973 280.631 83.737 281.166 84.0351C281.7 84.3331 282.198 84.6804 282.665 85.0768C283.129 85.4732 283.553 85.9126 283.931 86.3951C284.309 86.8744 284.635 87.3876 284.912 87.9346C285.188 88.4816 285.406 89.0501 285.569 89.637C285.732 90.227 285.837 90.8293 285.88 91.4377C285.923 92.0492 285.904 92.6577 285.827 93.263C285.751 93.8715 285.612 94.4645 285.419 95.0422C285.222 95.623 284.97 96.1792 284.663 96.7078C284.359 97.2363 284.002 97.731 283.596 98.1889C283.194 98.6499 282.748 99.0647 282.26 99.4334L153.197 200.84C152.383 201.479 151.489 201.967 150.515 202.305C149.537 202.644 148.533 202.813 147.5 202.813Z" fill="black"/>
<path d="M18.4375 285.781C17.5249 285.781 16.6337 285.649 15.761 285.385C14.8883 285.121 14.074 284.733 13.318 284.226C12.559 283.719 11.8922 283.114 11.3114 282.41C10.7337 281.707 10.2697 280.932 9.92247 280.09C9.57216 279.248 9.35398 278.372 9.26487 277.466C9.17575 276.559 9.21877 275.659 9.397 274.765C9.57523 273.871 9.87945 273.022 10.3097 272.217C10.7399 271.412 11.2746 270.69 11.9199 270.045L113.326 168.639C113.756 168.224 114.223 167.852 114.727 167.526C115.228 167.204 115.757 166.93 116.313 166.706C116.869 166.484 117.441 166.319 118.031 166.208C118.618 166.097 119.211 166.045 119.81 166.051C120.409 166.057 121.002 166.119 121.589 166.239C122.173 166.362 122.745 166.537 123.295 166.767C123.848 167.001 124.373 167.283 124.868 167.615C125.366 167.95 125.827 168.328 126.248 168.752C126.672 169.173 127.05 169.634 127.385 170.132C127.717 170.627 127.999 171.152 128.233 171.705C128.463 172.255 128.638 172.827 128.761 173.411C128.881 173.998 128.943 174.591 128.949 175.19C128.955 175.789 128.903 176.382 128.792 176.969C128.681 177.559 128.516 178.131 128.294 178.687C128.07 179.243 127.796 179.772 127.474 180.273C127.148 180.777 126.776 181.244 126.361 181.674L24.9552 283.08C24.0917 283.944 23.093 284.61 21.9652 285.081C20.8344 285.548 19.6605 285.781 18.4375 285.781Z" fill="black"/>
<path d="M276.563 285.781C275.339 285.781 274.166 285.548 273.035 285.078C271.907 284.61 270.908 283.944 270.045 283.08L168.639 181.674C168.224 181.244 167.852 180.777 167.526 180.273C167.204 179.772 166.93 179.243 166.709 178.687C166.484 178.131 166.319 177.559 166.208 176.969C166.097 176.382 166.045 175.789 166.051 175.19C166.057 174.591 166.119 173.998 166.239 173.411C166.362 172.827 166.537 172.255 166.767 171.705C167.001 171.152 167.283 170.627 167.615 170.132C167.95 169.634 168.328 169.173 168.752 168.752C169.173 168.328 169.634 167.95 170.132 167.615C170.627 167.283 171.152 167.001 171.705 166.767C172.255 166.537 172.827 166.362 173.411 166.239C173.998 166.119 174.591 166.057 175.19 166.051C175.789 166.045 176.382 166.097 176.969 166.208C177.559 166.319 178.131 166.484 178.687 166.709C179.243 166.93 179.772 167.204 180.273 167.526C180.777 167.852 181.244 168.224 181.674 168.639L283.08 270.045C283.725 270.69 284.26 271.412 284.69 272.217C285.121 273.022 285.425 273.871 285.603 274.765C285.781 275.659 285.824 276.559 285.735 277.466C285.646 278.372 285.428 279.248 285.078 280.09C284.727 280.932 284.266 281.707 283.686 282.41C283.108 283.114 282.441 283.722 281.682 284.226C280.923 284.733 280.109 285.121 279.236 285.385C278.366 285.649 277.475 285.781 276.563 285.781Z" fill="black"/>
<path d="M239.688 129.062C239.082 129.062 238.483 129.004 237.89 128.884C237.297 128.768 236.719 128.592 236.16 128.362C235.601 128.128 235.069 127.846 234.565 127.508C234.061 127.173 233.597 126.792 233.17 126.361C232.74 125.934 232.359 125.467 232.024 124.966C231.686 124.462 231.403 123.931 231.169 123.371C230.939 122.812 230.764 122.234 230.647 121.641C230.527 121.048 230.469 120.449 230.469 119.844V18.4375H64.5312V119.844C64.5312 120.449 64.4729 121.048 64.353 121.641C64.2362 122.234 64.0611 122.812 63.8306 123.371C63.5971 123.931 63.3144 124.462 62.9764 124.966C62.6414 125.467 62.2604 125.934 61.8302 126.361C61.403 126.792 60.9359 127.173 60.4351 127.508C59.9311 127.846 59.3995 128.128 58.8402 128.362C58.2809 128.592 57.7032 128.768 57.1102 128.884C56.5171 129.004 55.9179 129.062 55.3125 129.062C54.7071 129.062 54.1079 129.004 53.5148 128.884C52.9218 128.768 52.3441 128.592 51.7848 128.362C51.2255 128.128 50.6939 127.846 50.1899 127.508C49.6891 127.173 49.222 126.792 48.7948 126.361C48.3646 125.934 47.9836 125.467 47.6486 124.966C47.3106 124.462 47.0279 123.931 46.7944 123.371C46.5639 122.812 46.3888 122.234 46.272 121.641C46.1521 121.048 46.0938 120.449 46.0938 119.844V18.4375C46.0938 17.8321 46.1245 17.2298 46.1829 16.6306C46.2413 16.0283 46.3304 15.4322 46.4471 14.8391C46.567 14.2491 46.7114 13.6622 46.8866 13.0845C47.0617 12.5068 47.2676 11.9383 47.4981 11.3821C47.7285 10.8228 47.9867 10.2789 48.2694 9.74729C48.5552 9.2126 48.8655 8.69635 49.2005 8.19547C49.5354 7.69151 49.8949 7.20906 50.2791 6.74198C50.6632 6.2749 51.0657 5.82625 51.4929 5.39911C51.92 4.97198 52.3686 4.56943 52.8357 4.18531C53.3028 3.8012 53.7853 3.44167 54.2892 3.10672C54.7901 2.77177 55.3064 2.46141 55.841 2.17563C56.3727 1.89292 56.9166 1.63479 57.4758 1.40432C58.032 1.17385 58.6005 0.967969 59.1782 0.792812C59.7559 0.617656 60.3429 0.473229 60.9329 0.353386C61.5259 0.236614 62.1221 0.1475 62.7244 0.0891144C63.3236 0.0307292 63.9259 0 64.5312 0H230.469C231.074 0 231.676 0.0307292 232.276 0.0891144C232.878 0.1475 233.474 0.236614 234.067 0.353386C234.657 0.473229 235.244 0.617656 235.822 0.792812C236.399 0.967969 236.968 1.17385 237.524 1.40432C238.083 1.63479 238.627 1.89292 239.159 2.17563C239.694 2.46141 240.21 2.77177 240.711 3.10672C241.215 3.44167 241.697 3.8012 242.164 4.18531C242.631 4.56943 243.08 4.97198 243.507 5.39911C243.934 5.82625 244.337 6.2749 244.721 6.74198C245.105 7.20906 245.465 7.69151 245.8 8.19547C246.134 8.69635 246.445 9.2126 246.731 9.74729C247.013 10.2789 247.271 10.8228 247.502 11.3821C247.732 11.9383 247.938 12.5068 248.113 13.0845C248.289 13.6622 248.433 14.2491 248.553 14.8391C248.67 15.4322 248.759 16.0283 248.817 16.6306C248.876 17.2298 248.906 17.8321 248.906 18.4375V119.844C248.906 120.449 248.848 121.048 248.728 121.641C248.611 122.234 248.436 122.812 248.206 123.371C247.972 123.931 247.689 124.462 247.351 124.966C247.016 125.467 246.635 125.934 246.205 126.361C245.778 126.792 245.311 127.173 244.81 127.508C244.306 127.846 243.774 128.128 243.215 128.362C242.656 128.592 242.078 128.768 241.485 128.884C240.892 129.004 240.293 129.062 239.688 129.062Z" fill="black"/>
<path d="M129.063 119.844C127.839 119.844 126.666 119.61 125.535 119.14C124.407 118.673 123.408 118.006 122.545 117.143L104.107 98.7052C103.693 98.2749 103.321 97.8079 102.995 97.3039C102.672 96.803 102.399 96.2745 102.174 95.7183C101.953 95.1621 101.787 94.5905 101.677 94.0005C101.566 93.4136 101.514 92.8205 101.52 92.2213C101.526 91.6221 101.588 91.029 101.707 90.4421C101.83 89.8582 102.005 89.2867 102.236 88.7366C102.469 88.1835 102.749 87.658 103.084 87.1633C103.419 86.6655 103.797 86.2045 104.221 85.7805C104.642 85.3595 105.103 84.9815 105.601 84.6466C106.096 84.3116 106.621 84.032 107.174 83.7984C107.724 83.568 108.296 83.3928 108.88 83.2699C109.467 83.1501 110.06 83.0886 110.659 83.0824C111.258 83.0763 111.851 83.1285 112.438 83.2392C113.028 83.3498 113.6 83.5157 114.156 83.737C114.712 83.9613 115.241 84.2348 115.741 84.5574C116.245 84.8832 116.712 85.255 117.143 85.6698L129.063 97.5897L177.857 48.7948C178.281 48.3554 178.748 47.9621 179.249 47.6118C179.753 47.2645 180.288 46.9695 180.85 46.7298C181.413 46.4871 181.993 46.3027 182.593 46.1767C183.192 46.0507 183.797 45.9862 184.409 45.98C185.02 45.9739 185.626 46.0292 186.228 46.146C186.83 46.2628 187.414 46.4348 187.98 46.6684C188.545 46.8988 189.083 47.1846 189.593 47.5226C190.103 47.8607 190.573 48.2479 191.006 48.6811C191.44 49.1144 191.827 49.5846 192.165 50.0947C192.503 50.6048 192.789 51.1425 193.019 51.708C193.253 52.2734 193.425 52.8572 193.542 53.4595C193.658 54.0618 193.714 54.6672 193.707 55.2787C193.701 55.8902 193.637 56.4956 193.511 57.0948C193.385 57.694 193.2 58.2748 192.958 58.8371C192.718 59.3995 192.423 59.9342 192.076 60.4381C191.725 60.939 191.332 61.4061 190.893 61.8302L135.58 117.143C134.717 118.006 133.718 118.673 132.59 119.143C131.459 119.61 130.286 119.844 129.063 119.844Z" fill="black"/>
</g>
<defs>
<clipPath id="clip0_375_638">
<rect width="295" height="295" fill="white"/>
</clipPath>
</defs>
</svg>
