<svg width="313" height="287" viewBox="0 0 313 287" fill="none" xmlns="http://www.w3.org/2000/svg">
<g clip-path="url(#clip0_21_2)">
<path d="M310.254 109.755C310.142 109.755 310.032 109.72 309.941 109.654L158.076 1.62218C157.614 1.29495 157.064 1.12007 156.502 1.12105C155.94 1.12203 155.391 1.29882 154.93 1.62766L4.15926 109.653C4.04001 109.738 3.89242 109.772 3.74895 109.746C3.60547 109.721 3.47788 109.638 3.39423 109.516C3.31059 109.394 3.27774 109.243 3.30292 109.097C3.3281 108.95 3.40924 108.82 3.5285 108.734L154.299 0.709068C154.945 0.248763 155.713 0.00132688 156.5 5.32161e-06C157.288 -0.00131624 158.056 0.243538 158.703 0.701673L310.568 108.733C310.664 108.802 310.736 108.899 310.774 109.012C310.812 109.125 310.813 109.248 310.778 109.362C310.743 109.476 310.673 109.575 310.579 109.646C310.485 109.717 310.371 109.755 310.254 109.755L310.254 109.755Z" fill="#3F3D56"/>
<path d="M12.7748 113.584L156.652 4.66614L301.62 121.334L164.065 204.628L89.384 187.24L12.7748 113.584Z" fill="#E6E6E6"/>
<path d="M95.6877 256.075H24.609C24.1726 256.076 23.7403 255.989 23.3369 255.818C22.9336 255.648 22.567 255.398 22.2582 255.083C21.9494 254.768 21.7044 254.394 21.5372 253.982C21.3701 253.571 21.284 253.129 21.284 252.683C21.284 252.237 21.3701 251.796 21.5372 251.384C21.7044 250.972 21.9494 250.598 22.2582 250.283C22.567 249.968 22.9336 249.718 23.3369 249.548C23.7403 249.378 24.1726 249.291 24.609 249.291H95.6877C96.1241 249.291 96.5564 249.378 96.9598 249.548C97.3632 249.718 97.7297 249.968 98.0386 250.283C98.3474 250.598 98.5924 250.972 98.7595 251.384C98.9267 251.796 99.0127 252.237 99.0127 252.683C99.0127 253.129 98.9267 253.571 98.7595 253.982C98.5924 254.394 98.3474 254.768 98.0386 255.083C97.7297 255.398 97.3632 255.648 96.9598 255.818C96.5564 255.989 96.1241 256.076 95.6877 256.075V256.075Z" fill="#DB0007"/>
<path d="M50.1105 241.492H24.609C24.1726 241.492 23.7403 241.405 23.3369 241.235C22.9336 241.065 22.567 240.815 22.2582 240.5C21.9494 240.185 21.7044 239.811 21.5372 239.399C21.3701 238.987 21.284 238.546 21.284 238.1C21.284 237.654 21.3701 237.213 21.5372 236.801C21.7044 236.389 21.9494 236.015 22.2582 235.7C22.567 235.385 22.9336 235.135 23.3369 234.965C23.7403 234.795 24.1726 234.707 24.609 234.708H50.1105C50.5469 234.707 50.9792 234.795 51.3826 234.965C51.786 235.135 52.1525 235.385 52.4614 235.7C52.7702 236.015 53.0152 236.389 53.1823 236.801C53.3495 237.213 53.4355 237.654 53.4355 238.1C53.4355 238.546 53.3495 238.987 53.1823 239.399C53.0152 239.811 52.7702 240.185 52.4614 240.5C52.1525 240.815 51.786 241.065 51.3826 241.235C50.9792 241.405 50.5469 241.492 50.1105 241.492Z" fill="#DB0007"/>
<path d="M158.675 174.25C158.134 174.25 157.599 174.143 157.099 173.935L68.3659 136.327V18.6078C68.3671 17.5668 68.7724 16.5689 69.493 15.8328C70.2136 15.0967 71.1907 14.6827 72.2098 14.6815H242.438C243.457 14.6827 244.434 15.0967 245.155 15.8328C245.875 16.5689 246.28 17.5668 246.282 18.6078V136.409L246.115 136.482L160.298 173.916C159.784 174.137 159.232 174.25 158.675 174.25Z" fill="white"/>
<path d="M158.675 174.53C158.099 174.531 157.528 174.417 156.995 174.194L68.0913 136.514V18.6078C68.0926 17.4925 68.5269 16.4232 69.299 15.6345C70.071 14.8459 71.1179 14.4023 72.2098 14.401H242.438C243.53 14.4023 244.577 14.8459 245.349 15.6345C246.121 16.4232 246.555 17.4925 246.556 18.6078V136.594L160.406 174.174C159.858 174.41 159.269 174.531 158.675 174.53V174.53ZM69.1896 135.765L157.413 173.157C158.236 173.498 159.158 173.493 159.977 173.142L245.458 135.854V18.6078C245.457 17.7899 245.139 17.0058 244.572 16.4274C244.006 15.8491 243.239 15.5238 242.438 15.5228H72.2098C71.4091 15.5238 70.6414 15.8491 70.0752 16.4274C69.5091 17.0058 69.1906 17.7899 69.1896 18.6078L69.1896 135.765Z" fill="#3F3D56"/>
<path d="M309.156 108.633H309.046L246.007 136.128L159.756 173.748C159.419 173.893 159.058 173.968 158.692 173.97C158.326 173.972 157.964 173.901 157.626 173.759L68.6404 136.05L4.05246 108.678L3.95379 108.633H3.84386C2.82475 108.634 1.8477 109.048 1.12709 109.784C0.406467 110.52 0.00113078 111.518 0 112.559V283.074C0.00113223 284.115 0.406468 285.113 1.12709 285.849C1.8477 286.585 2.82475 286.999 3.84386 287H309.156C310.175 286.999 311.152 286.585 311.873 285.849C312.594 285.113 312.999 284.115 313 283.074V112.559C312.999 111.518 312.594 110.52 311.873 109.784C311.152 109.048 310.175 108.634 309.156 108.633V108.633ZM311.902 283.074C311.901 283.817 311.612 284.531 311.097 285.056C310.582 285.582 309.884 285.878 309.156 285.878H3.84386C3.11577 285.878 2.41758 285.582 1.90274 285.056C1.3879 284.531 1.09854 283.817 1.09825 283.074V112.559C1.09924 111.834 1.37465 111.137 1.8669 110.614C2.35914 110.092 3.03011 109.784 3.73956 109.755L68.6404 137.261L157.203 174.797C158.162 175.195 159.236 175.189 160.19 174.78L246.007 137.345L309.266 109.755C309.974 109.786 310.643 110.095 311.134 110.617C311.625 111.14 311.9 111.835 311.902 112.559V283.074Z" fill="#3F3D56"/>
<path d="M157.788 140.869C154.512 140.875 151.323 139.793 148.702 137.786L148.539 137.662L114.323 110.902C112.738 109.662 111.408 108.115 110.409 106.35C109.41 104.585 108.761 102.636 108.499 100.614C108.237 98.593 108.367 96.5386 108.882 94.5686C109.398 92.5985 110.288 90.7515 111.502 89.1329C112.716 87.5142 114.23 86.1557 115.959 85.1349C117.687 84.1141 119.595 83.451 121.574 83.1834C123.553 82.9158 125.564 83.049 127.493 83.5754C129.421 84.1017 131.23 85.011 132.814 86.2512L154.977 103.61L207.351 33.841C208.566 32.2228 210.081 30.8648 211.809 29.8446C213.538 28.8244 215.446 28.1619 217.425 27.8951C219.404 27.6282 221.416 27.7622 223.344 28.2893C225.272 28.8164 227.08 29.7263 228.665 30.9672L228.339 31.4188L228.673 30.9737C231.869 33.4824 233.959 37.1834 234.487 41.2648C235.014 45.3462 233.935 49.4746 231.486 52.7443L169.882 134.809C168.457 136.7 166.625 138.231 164.527 139.282C162.43 140.333 160.124 140.876 157.788 140.869V140.869Z" fill="#DB0007"/>
</g>
<defs>
<clipPath id="clip0_21_2">
<rect width="313" height="287" fill="white"/>
</clipPath>
</defs>
</svg>
