<svg width="300" height="300" viewBox="0 0 300 300" fill="none" xmlns="http://www.w3.org/2000/svg">
<g clip-path="url(#clip0_36_1124)">
<path d="M283.653 219.119C280.969 220.244 278.163 221.259 275.238 222.153C272.3 223.053 269.238 223.838 266.041 224.5C262.831 225.166 259.491 225.719 256.009 226.144C250.741 226.803 245.363 227.178 239.884 227.331C234.384 227.494 228.788 227.441 223.1 227.231C217.4 227.028 211.606 226.678 205.722 226.253C199.828 225.825 193.847 225.313 187.775 224.8C181.778 224.297 175.722 223.784 169.647 223.35C163.563 222.906 157.453 222.541 151.356 222.325C145.247 222.116 139.147 222.044 133.084 222.209C127.006 222.378 120.959 222.766 114.978 223.472C111.213 223.916 107.556 224.475 103.991 225.144C100.419 225.819 96.9438 226.603 93.5501 227.509C90.1469 228.419 86.8282 229.45 83.5782 230.609C80.3188 231.766 77.1313 233.053 74.0032 234.466L8.47818 147.313C11.4438 146.125 14.4501 145.053 17.5157 144.097C20.5751 143.15 23.6907 142.313 26.8782 141.575C30.0563 140.853 33.3032 140.231 36.6376 139.713C39.9594 139.2 43.3719 138.797 46.8751 138.484C52.1438 138.019 57.4251 137.794 62.7313 137.756C68.0282 137.709 73.3594 137.847 78.7344 138.106C84.1032 138.369 89.5188 138.75 95.0001 139.194C100.472 139.634 106.009 140.138 111.613 140.65C117.138 141.156 122.706 141.669 128.288 142.119C133.859 142.559 139.438 142.95 144.997 143.213C150.544 143.478 156.063 143.609 161.519 143.556C166.956 143.509 172.328 143.269 177.594 142.769C180.884 142.469 184.059 142.072 187.125 141.584C190.184 141.094 193.128 140.513 195.975 139.844C198.806 139.175 201.538 138.416 204.175 137.563C206.803 136.706 209.338 135.769 211.781 134.728L291.344 215.378C288.891 216.744 286.331 217.984 283.653 219.119ZM299.875 216.378C299.781 216.191 299.638 215.997 299.444 215.803L215.566 131.444C215.422 131.306 215.238 131.166 215.034 131.034C214.828 130.9 214.594 130.778 214.338 130.659C214.081 130.553 213.806 130.45 213.513 130.356C213.222 130.272 212.916 130.2 212.6 130.147C212.434 130.119 212.263 130.094 212.097 130.072C211.931 130.053 211.766 130.038 211.603 130.031C211.438 130.025 211.278 130.025 211.125 130.025C210.963 130.025 210.813 130.031 210.666 130.047C210.541 130.053 210.425 130.072 210.309 130.094C210.194 130.109 210.078 130.134 209.975 130.156C209.866 130.181 209.766 130.209 209.669 130.241C209.569 130.272 209.478 130.309 209.391 130.35C206.913 131.522 204.338 132.584 201.663 133.541C198.972 134.494 196.184 135.35 193.275 136.088C190.359 136.831 187.328 137.469 184.172 137.997C181.006 138.525 177.713 138.944 174.291 139.263C169.347 139.719 164.331 139.938 159.238 139.984C154.131 140.031 148.95 139.9 143.697 139.65C138.434 139.394 133.103 139.022 127.691 138.578C122.275 138.144 116.784 137.641 111.206 137.125C105.697 136.616 100.131 136.103 94.5438 135.653C88.9501 135.194 83.3313 134.806 77.7094 134.534C72.0813 134.263 66.4469 134.116 60.8313 134.153C55.2001 134.194 49.5907 134.425 44.0094 134.916C40.0688 135.256 36.2407 135.716 32.5188 136.297C28.7813 136.878 25.1469 137.584 21.5969 138.416C18.0344 139.247 14.5594 140.209 11.1501 141.297C7.7313 142.391 4.3813 143.616 1.09067 144.984C0.834425 145.084 0.621925 145.206 0.456299 145.347C0.290674 145.488 0.1688 145.634 0.0969246 145.791C0.0250494 145.947 4.94048e-05 146.116 0.0250494 146.288C0.0531744 146.456 0.131299 146.628 0.259425 146.806L68.7282 238.922C68.8751 239.122 69.0626 239.309 69.2844 239.481C69.5063 239.65 69.7563 239.816 70.0407 239.953C70.3251 240.103 70.6344 240.234 70.9657 240.341C71.2969 240.45 71.6469 240.544 72.0094 240.613C72.2126 240.653 72.4188 240.675 72.6188 240.7C72.8188 240.722 73.0219 240.731 73.2188 240.738C73.4188 240.747 73.6126 240.747 73.8032 240.738C73.9938 240.731 74.1782 240.716 74.3626 240.691C74.5126 240.675 74.6626 240.653 74.8001 240.622C74.9438 240.6 75.0813 240.559 75.2126 240.528C75.3438 240.491 75.4719 240.444 75.5938 240.397C75.7188 240.35 75.8313 240.303 75.9407 240.25C79.1657 238.603 82.4594 237.119 85.8282 235.784C89.1876 234.459 92.6188 233.278 96.1469 232.247C99.6594 231.219 103.269 230.334 106.984 229.597C110.684 228.853 114.494 228.247 118.428 227.781C124.081 227.106 129.766 226.725 135.503 226.563C141.222 226.4 146.997 226.463 152.828 226.663C158.653 226.872 164.544 227.231 170.509 227.656C176.466 228.094 182.497 228.597 188.606 229.116C194.625 229.622 200.694 230.125 206.759 230.559C212.819 230.997 218.881 231.353 224.903 231.563C230.909 231.766 236.875 231.819 242.747 231.647C248.603 231.469 254.363 231.066 259.975 230.359C263.913 229.863 267.678 229.234 271.281 228.466C274.875 227.697 278.303 226.794 281.578 225.756C284.844 224.716 287.95 223.534 290.916 222.222C293.872 220.913 296.681 219.459 299.359 217.875C299.563 217.753 299.722 217.603 299.831 217.45C299.934 217.294 299.994 217.122 300 216.944C300.006 216.759 299.963 216.572 299.875 216.378Z" fill="white"/>
<path d="M231.322 178.341C229.575 178.859 227.788 179.334 225.944 179.753C224.097 180.175 222.197 180.544 220.244 180.863C218.284 181.191 216.269 181.459 214.188 181.688C212.284 181.888 210.347 182.053 208.378 182.175C206.409 182.3 204.406 182.384 202.381 182.431C200.353 182.488 198.294 182.5 196.209 182.488C194.122 182.469 192.009 182.431 189.872 182.363L171.644 151.638C172.775 151.597 173.9 151.559 175.028 151.503C176.153 151.45 177.278 151.388 178.406 151.319C179.525 151.247 180.653 151.169 181.769 151.078C182.894 150.991 184.009 150.891 185.128 150.781C187.188 150.591 189.2 150.366 191.169 150.106C193.128 149.85 195.044 149.563 196.922 149.253C198.797 148.934 200.631 148.594 202.431 148.222C204.228 147.847 205.984 147.447 207.716 147L236.413 176.625C234.763 177.244 233.063 177.819 231.322 178.341ZM264.684 213.034C262.909 213.616 261.088 214.134 259.209 214.6C257.325 215.075 255.391 215.488 253.394 215.85C251.391 216.216 249.328 216.525 247.2 216.784C244.4 217.116 241.534 217.363 238.6 217.519C235.663 217.681 232.656 217.769 229.594 217.775C226.525 217.791 223.397 217.738 220.222 217.638C217.038 217.528 213.806 217.363 210.525 217.172L191.05 184.341C193.228 184.413 195.388 184.45 197.519 184.459C199.647 184.466 201.759 184.45 203.841 184.394C205.919 184.334 207.975 184.25 210.003 184.116C212.028 183.984 214.025 183.822 215.994 183.603C218.088 183.378 220.113 183.106 222.081 182.788C224.053 182.463 225.959 182.097 227.819 181.688C229.675 181.275 231.475 180.809 233.231 180.306C234.988 179.791 236.697 179.234 238.356 178.628L269.863 211.141C268.181 211.828 266.456 212.459 264.684 213.034ZM201.403 216.541C199.716 216.419 198.013 216.278 196.303 216.138C194.591 216.006 192.869 215.859 191.141 215.713C189.403 215.563 187.663 215.416 185.916 215.269C182.369 214.966 178.8 214.663 175.219 214.375C171.638 214.081 168.034 213.809 164.419 213.553C160.803 213.303 157.169 213.078 153.522 212.9C149.878 212.722 146.219 212.581 142.547 212.497L121.666 179.334C124.494 179.475 127.306 179.638 130.116 179.822C132.916 180 135.716 180.213 138.506 180.428C141.291 180.647 144.069 180.872 146.834 181.113C149.603 181.347 152.359 181.584 155.097 181.825C157.872 182.075 160.622 182.316 163.35 182.547C166.075 182.781 168.778 183.006 171.459 183.216C174.134 183.425 176.784 183.613 179.413 183.781C182.034 183.947 184.628 184.084 187.197 184.203L206.444 216.906C204.778 216.797 203.097 216.675 201.403 216.541ZM130.784 212.45C128.197 212.491 125.603 212.569 123.003 212.684C120.403 212.8 117.794 212.956 115.181 213.156C112.563 213.359 109.941 213.609 107.313 213.909C104.991 214.175 102.713 214.478 100.475 214.809C98.2313 215.144 96.0344 215.516 93.8657 215.922C91.6938 216.325 89.5563 216.775 87.4438 217.256C85.3313 217.738 83.2501 218.256 81.1813 218.825L73.9626 209.453L128.197 195.925L138.522 212.434C135.947 212.413 133.369 212.413 130.784 212.45ZM60.8532 183.075C62.9094 182.634 64.9938 182.231 67.1063 181.856C69.2157 181.494 71.3594 181.159 73.5376 180.856C75.7126 180.563 77.9282 180.297 80.1907 180.063C83.3501 179.738 86.5001 179.491 89.6501 179.303C92.7938 179.125 95.9282 179.009 99.0563 178.947C102.181 178.884 105.3 178.875 108.413 178.916C111.519 178.953 114.622 179.038 117.716 179.156L126.847 193.766L72.3094 207.313L54.7376 184.519C56.7563 184 58.7907 183.519 60.8532 183.075ZM34.9719 149.728C36.9219 149.231 38.8969 148.788 40.9063 148.4C42.9126 148.003 44.9532 147.663 47.0376 147.366C49.1157 147.081 51.2344 146.831 53.4063 146.638C55.4126 146.45 57.4438 146.309 59.4907 146.209C61.5376 146.109 63.6063 146.047 65.6938 146.016C67.7782 145.988 69.8813 145.988 72.0032 146.016C74.1251 146.047 76.2657 146.109 78.4251 146.188L87.5751 177.378C86.8313 177.425 86.0876 177.472 85.3438 177.525C84.5969 177.581 83.8532 177.634 83.1094 177.697C82.3594 177.759 81.6126 177.819 80.8657 177.891C80.1157 177.959 79.3688 178.028 78.6219 178.106C76.3594 178.334 74.1438 178.597 71.9626 178.891C69.7844 179.188 67.6438 179.513 65.5344 179.878C63.4188 180.244 61.3376 180.641 59.2813 181.066C57.2188 181.5 55.1813 181.966 53.1594 182.469L29.1813 151.366C31.0876 150.769 33.0157 150.222 34.9719 149.728ZM89.6376 146.806C92.1282 146.978 94.6376 147.166 97.1719 147.375C99.7001 147.575 102.253 147.794 104.822 148.025C107.388 148.253 109.975 148.488 112.578 148.719C114.484 148.897 116.394 149.069 118.309 149.238C120.225 149.409 122.141 149.578 124.066 149.741C125.984 149.906 127.913 150.069 129.838 150.222C131.769 150.372 133.694 150.519 135.631 150.659L138.744 178.528C134.875 178.216 130.988 177.938 127.081 177.697C123.172 177.456 119.247 177.253 115.306 177.122C111.363 176.981 107.4 176.903 103.425 176.903C99.4407 176.913 95.4376 176.991 91.4251 177.175L82.2219 146.356C84.6719 146.481 87.1438 146.638 89.6376 146.806ZM146.584 151.325C148.972 151.45 151.363 151.544 153.753 151.622C156.147 151.691 158.538 151.738 160.928 151.759C163.313 151.775 165.7 151.769 168.084 151.722L186.028 182.213C183.534 182.106 181.009 181.956 178.459 181.794C175.906 181.631 173.325 181.447 170.725 181.244C168.113 181.041 165.484 180.825 162.831 180.6C160.172 180.366 157.494 180.134 154.797 179.894C153.791 179.809 152.784 179.722 151.778 179.631C150.772 179.544 149.763 179.45 148.753 179.366C147.738 179.272 146.728 179.188 145.713 179.1C144.7 179.016 143.684 178.931 142.666 178.847L139.419 150.913C141.806 151.069 144.191 151.209 146.584 151.325ZM209.691 145.381C209.6 145.325 209.497 145.263 209.381 145.209C209.269 145.156 209.144 145.109 209.013 145.059C208.884 145.016 208.744 144.975 208.597 144.947C208.497 144.913 208.394 144.897 208.297 144.881C208.194 144.869 208.097 144.85 207.994 144.844C207.9 144.838 207.8 144.838 207.703 144.838C207.613 144.838 207.516 144.844 207.431 144.85C207.397 144.85 207.363 144.859 207.331 144.859C207.297 144.869 207.266 144.869 207.234 144.875C207.203 144.881 207.172 144.891 207.138 144.891C207.109 144.897 207.078 144.906 207.05 144.913C205.25 145.397 203.413 145.838 201.541 146.241C199.663 146.653 197.747 147.025 195.794 147.359C193.831 147.7 191.825 148.003 189.769 148.275C187.716 148.547 185.606 148.788 183.444 148.997C177.606 149.556 171.722 149.838 165.8 149.913C159.869 149.991 153.916 149.859 147.959 149.594C141.994 149.331 136.034 148.928 130.1 148.453C124.156 147.981 118.238 147.447 112.366 146.909C107.031 146.428 101.759 145.947 96.5719 145.525C91.3782 145.109 86.2594 144.744 81.2282 144.494C76.1844 144.253 71.2251 144.116 66.3532 144.153C61.4657 144.184 56.6626 144.384 51.9438 144.813C49.5751 145.028 47.2626 145.294 44.9938 145.622C42.7188 145.938 40.4938 146.319 38.3063 146.753C36.1126 147.188 33.9594 147.684 31.8407 148.234C29.7126 148.788 27.6188 149.4 25.5469 150.075C25.4001 150.125 25.2751 150.184 25.1782 150.256C25.0782 150.325 25.0032 150.409 24.9563 150.494C24.9094 150.581 24.8907 150.675 24.9032 150.769C24.9157 150.859 24.9563 150.953 25.0313 151.056L78.3626 220.616C78.4313 220.703 78.5157 220.788 78.6094 220.866C78.7032 220.934 78.8094 221.013 78.9313 221.075C79.0469 221.138 79.1813 221.2 79.3157 221.253C79.4532 221.3 79.5969 221.347 79.7438 221.378C79.8594 221.409 79.9782 221.431 80.0938 221.447C80.2094 221.472 80.3282 221.488 80.4376 221.494C80.5501 221.503 80.6657 221.503 80.7719 221.503C80.8813 221.503 80.9876 221.494 81.0907 221.478C81.1344 221.478 81.1719 221.472 81.2157 221.463C81.2563 221.456 81.2969 221.447 81.3376 221.441C81.3751 221.431 81.4157 221.425 81.4532 221.416C81.4938 221.409 81.5313 221.394 81.5657 221.388C83.7344 220.756 85.9219 220.181 88.1376 219.647C90.3532 219.119 92.5938 218.631 94.8719 218.188C97.1438 217.738 99.4532 217.341 101.806 216.975C104.159 216.619 106.556 216.3 109 216.022C115.563 215.259 122.109 214.834 128.641 214.656C135.144 214.478 141.631 214.547 148.094 214.772C154.541 214.991 160.966 215.378 167.347 215.834C173.719 216.3 180.053 216.838 186.325 217.372C192.009 217.853 197.613 218.334 203.113 218.738C208.606 219.144 213.997 219.484 219.263 219.684C224.525 219.894 229.666 219.966 234.656 219.85C239.638 219.725 244.472 219.413 249.138 218.847C251.481 218.559 253.738 218.219 255.931 217.816C258.116 217.413 260.225 216.944 262.269 216.419C264.313 215.897 266.288 215.306 268.206 214.663C270.119 214.009 271.975 213.303 273.781 212.528C273.916 212.475 274.022 212.403 274.103 212.319C274.178 212.241 274.228 212.147 274.247 212.053C274.269 211.963 274.256 211.859 274.219 211.75C274.175 211.65 274.103 211.541 274.003 211.441L209.928 145.575C209.859 145.513 209.778 145.441 209.691 145.381Z" fill="white"/>
<path d="M123.281 118.922C110.135 118.922 99.4752 108.272 99.4752 95.1469C99.4752 82.0094 110.135 71.3688 123.281 71.3688C136.428 71.3688 147.085 82.0094 147.085 95.1469C147.085 108.272 136.428 118.922 123.281 118.922ZM123.281 59.0406C103.319 59.0406 87.1377 75.2031 87.1377 95.1469C87.1377 136.281 123.281 170.991 123.281 170.991C123.281 170.991 159.422 136.281 159.422 95.1469C159.422 75.2031 143.244 59.0406 123.281 59.0406Z" fill="#DB0007"/>
</g>
<defs>
<clipPath id="clip0_36_1124">
<rect width="300" height="300" fill="white"/>
</clipPath>
</defs>
</svg>
