<svg width="295" height="295" viewBox="0 0 295 295" fill="none" xmlns="http://www.w3.org/2000/svg">
<g clip-path="url(#clip0_364_2)">
<mask id="mask0_364_2" style="mask-type:alpha" maskUnits="userSpaceOnUse" x="93" y="191" width="59" height="37">
<path d="M93.6133 191.947H151.827V227.15H93.6133V191.947Z" fill="white"/>
</mask>
<g mask="url(#mask0_364_2)">
<path d="M93.8223 227.162V204.911L151.452 191.984V227.162H93.8223Z" fill="#FCB335"/>
</g>
<mask id="mask1_364_2" style="mask-type:alpha" maskUnits="userSpaceOnUse" x="140" y="79" width="155" height="149">
<path d="M140.813 79.4533H294.213V227.15H140.813V79.4533Z" fill="white"/>
</mask>
<g mask="url(#mask1_364_2)">
<path d="M180.574 79.7176H276.596C283.36 79.7176 288.937 85.0184 289.272 91.7696C291.024 126.973 293.808 227.162 294.038 227.162C294.321 227.162 141.047 227.162 141.047 227.162L167.21 90.7586C168.439 84.3516 174.047 79.7176 180.574 79.7176Z" fill="#FCB335"/>
</g>
<mask id="mask2_364_2" style="mask-type:alpha" maskUnits="userSpaceOnUse" x="81" y="177" width="82" height="51">
<path d="M81.0266 177H162.84V227.15H81.0266V177Z" fill="white"/>
</mask>
<g mask="url(#mask2_364_2)">
<path d="M162.136 199.131L104.774 227.162H81.1556V211.195C81.1556 204.662 85.0736 198.769 91.0965 196.236L128.248 180.617C133.355 178.472 138.84 177.366 144.381 177.366H153.28C158.172 177.366 162.136 181.33 162.136 186.219V199.131Z" fill="#FCB335"/>
</g>
<path d="M81.1558 211.195C81.1558 204.662 85.0737 198.768 91.0966 196.236L128.248 180.617C133.355 178.472 138.841 177.366 144.381 177.366H153.28C158.172 177.366 162.136 181.33 162.136 186.219V199.131" stroke="#622542" stroke-width="1.01412" stroke-linecap="round" stroke-linejoin="round"/>
<mask id="mask3_364_2" style="mask-type:alpha" maskUnits="userSpaceOnUse" x="85" y="202" width="17" height="26">
<path d="M85.7467 202.96H101.48V227.15H85.7467V202.96Z" fill="white"/>
</mask>
<g mask="url(#mask3_364_2)">
<path d="M93.4751 203.227H93.5089C94.0037 203.227 94.4954 203.273 94.9809 203.372C95.4664 203.467 95.9365 203.611 96.3944 203.799C96.8523 203.989 97.2856 204.223 97.6973 204.496C98.1091 204.773 98.4901 205.083 98.8405 205.434C99.1908 205.784 99.5042 206.165 99.7777 206.577C100.054 206.989 100.285 207.422 100.475 207.88C100.666 208.338 100.807 208.808 100.905 209.293C101.001 209.779 101.05 210.27 101.05 210.765V219.628C101.05 220.122 101.001 220.611 100.905 221.096C100.807 221.582 100.666 222.052 100.475 222.51C100.285 222.968 100.054 223.401 99.7777 223.813C99.5042 224.225 99.1908 224.606 98.8405 224.956C98.4901 225.306 98.1091 225.62 97.6973 225.893C97.2856 226.17 96.8523 226.4 96.3944 226.591C95.9365 226.778 95.4664 226.923 94.9809 227.018C94.4954 227.116 94.0037 227.162 93.5089 227.162H93.4751C92.9804 227.162 92.4887 227.116 92.0032 227.018C91.5177 226.923 91.0475 226.778 90.5897 226.591C90.1318 226.4 89.6985 226.17 89.2868 225.893C88.875 225.62 88.4939 225.306 88.1436 224.956C87.7933 224.606 87.4799 224.225 87.2064 223.813C86.9298 223.401 86.6994 222.968 86.5088 222.51C86.3183 222.052 86.177 221.582 86.0786 221.096C85.9834 220.611 85.9342 220.122 85.9342 219.628V210.765C85.9342 210.27 85.9834 209.779 86.0786 209.293C86.177 208.808 86.3183 208.338 86.5088 207.88C86.6994 207.422 86.9298 206.989 87.2064 206.577C87.4799 206.165 87.7933 205.784 88.1436 205.434C88.4939 205.083 88.875 204.773 89.2868 204.496C89.6985 204.223 90.1318 203.989 90.5897 203.799C91.0475 203.611 91.5177 203.467 92.0032 203.372C92.4887 203.273 92.9804 203.227 93.4751 203.227Z" fill="#FB5E00"/>
</g>
<mask id="mask4_364_2" style="mask-type:alpha" maskUnits="userSpaceOnUse" x="268" y="79" width="28" height="149">
<path d="M268.253 79.4533H295V227.15H268.253V79.4533Z" fill="white"/>
</mask>
<g mask="url(#mask4_364_2)">
<path d="M281.104 79.7176H282.463C289.303 79.7176 294.859 85.2734 294.859 92.1107V227.162H268.708V92.1107C268.708 85.2734 274.264 79.7176 281.104 79.7176Z" fill="#FCB335"/>
</g>
<path d="M245.068 51.0473C245.068 51.0473 247.935 56.3173 247.198 63.1699C246.46 70.0226 259.957 69.8105 259.007 77.9261C258.057 86.0447 248.989 83.3037 256.794 91.9478C264.597 100.592 265.755 111.132 248.04 116.402C230.327 121.672 180.242 121.654 186.354 104.175C192.466 86.6962 203.227 107.653 199.113 85.9894C195.001 64.3284 228.281 39.8742 245.068 51.0473Z" fill="#622542"/>
<path d="M235.281 45.6697C235.598 45.4607 239.943 40.3996 245.511 44.1947C251.528 48.297 247.723 55.2633 242.029 57.7923C236.335 60.3244 235.281 45.6697 235.281 45.6697Z" fill="#FB5E00"/>
<path d="M235.072 82.096C235.072 82.096 246.144 81.841 244.982 61.1787C243.824 40.5195 220.175 34.6348 210.292 37.6586C198.587 41.2447 186.778 61.3692 197.426 72.9725C208.076 84.5759 235.072 82.096 235.072 82.096Z" fill="#622542"/>
<mask id="mask5_364_2" style="mask-type:alpha" maskUnits="userSpaceOnUse" x="92" y="192" width="154" height="36">
<path d="M92.8267 192.733H245.44V227.15H92.8267V192.733Z" fill="white"/>
</mask>
<g mask="url(#mask5_364_2)">
<path d="M159.325 199.571C159.325 199.571 125.157 208.169 108.176 215.415C105.109 216.727 102.316 218.595 99.925 220.924L93.5272 227.162H232.171C232.171 227.162 246.171 213.346 245.068 199.571C243.965 185.798 159.325 199.571 159.325 199.571Z" fill="#622542"/>
</g>
<path d="M123.193 58.4899L117.078 39.7851L98.8834 20.5947C98.0599 19.7281 96.6955 19.6759 95.8074 20.4779C95.0546 21.1632 94.8671 22.2756 95.3588 23.1667L100.746 32.9663L93.4567 47.6179L101.505 60.0448L103.745 60.9329L105.939 67.724L123.193 58.4899Z" fill="#FFA68E"/>
<path d="M120.022 48.7887C120.022 48.7887 112.22 49.1482 112.699 43.5064C113.136 38.3654 111.513 35.9593 109.934 34.4505C108.452 33.04 109.476 30.4372 111.519 30.5141C112.515 30.5509 113.636 31.0887 114.801 32.5729C118.519 37.3175 119.463 39.5454 119.463 39.5454L120.022 48.7887Z" fill="#FFA68E"/>
<path d="M120.022 48.7887C120.022 48.7887 112.22 49.1482 112.699 43.5063C113.136 38.3654 111.513 35.9593 109.934 34.4505C108.452 33.04 109.476 30.4372 111.519 30.5141" stroke="#622542" stroke-width="1.01412" stroke-linecap="round" stroke-linejoin="round"/>
<path d="M100.746 32.9662L106.563 44.8246C106.563 44.8246 100.321 51.6434 94.4215 51.9139C94.4215 51.9139 89.2805 45.4208 90.1225 41.5981C90.9645 37.7754 100.746 32.9662 100.746 32.9662Z" fill="#FFA68E"/>
<path d="M93.7056 41.4966L98.4962 50.8322C98.4962 50.8322 97.2702 51.9046 94.4216 51.9138" stroke="#622542" stroke-width="1.01412" stroke-linecap="round" stroke-linejoin="round"/>
<path d="M100.746 32.9662L105.92 43.5094C106.301 44.2869 106.114 45.221 105.466 45.7926L104.347 46.779C103.388 47.6271 101.886 47.3137 101.342 46.1583L96.7262 36.3464" stroke="#622542" stroke-width="1.01412" stroke-linecap="round" stroke-linejoin="round"/>
<path d="M98.4962 50.8322C101.71 50.3405 102.43 48.4722 102.43 48.4722L101.597 46.5608" stroke="#622542" stroke-width="1.01412" stroke-linecap="round" stroke-linejoin="round"/>
<path d="M182.663 101.538L148.923 102.592L123.193 57.4605L104.27 65.3333L128.466 120.806C130.452 124.727 134.2 127.458 138.543 128.15L180.555 134.849L189.203 110.395L182.663 101.538Z" fill="#FB5E00"/>
<path d="M156.875 203.827C177.237 221.465 241.922 209.693 241.922 209.693C262.796 197.042 260.589 114.033 256.3 109.159C252.013 104.283 237.601 105.229 237.601 105.229L201.645 107.758C201.645 107.758 192.577 101.329 182.663 101.538C182.663 101.538 186.67 112.632 182.663 118.682C178.656 124.73 171.066 128.525 173.807 144.968C176.548 161.414 169.33 186.965 157.638 192.091C155.56 193.004 154.617 194.614 154.236 196.23C153.575 199.039 154.697 201.937 156.875 203.827Z" fill="white"/>
<path d="M227.479 89.6278C227.479 89.6278 227.076 93.5673 227.38 97.5252C227.715 101.876 231.363 105.229 235.726 105.229H237.601C237.601 105.229 234.755 112.819 220.31 117.456C205.864 122.093 203.227 112.395 201.645 107.758C203.587 107.272 204.887 105.444 204.705 103.453L203.648 91.8403L227.479 89.6278Z" fill="#FFA68E"/>
<path d="M226.846 90.5773C213.666 102.171 194.894 95.2143 194.894 82.7752C194.897 71.8141 200.379 47.7808 209.554 54.3138C218.727 60.8499 223.051 55.5798 223.051 55.5798C223.051 55.5798 231.59 51.3638 229.799 63.0655C228.007 74.7641 226.213 80.2461 231.486 78.8756C236.759 77.5051 242.874 84.1457 235.914 88.4693C228.954 92.7898 226.846 90.5773 226.846 90.5773Z" fill="#FFA68E"/>
<path d="M205.231 85.9894L221.68 80.3506C221.68 80.3506 223.472 85.9894 217.544 88.7858C208.433 93.0786 205.231 85.9894 205.231 85.9894Z" fill="white"/>
<path d="M226.846 90.5772C222.086 94.7625 216.598 96.5326 211.527 96.4957" stroke="#622542" stroke-width="1.01412" stroke-linecap="round" stroke-linejoin="round"/>
<path d="M236.231 84.1456C232.331 77.8216 228.112 88.1527 228.112 88.1527" stroke="#622542" stroke-width="1.01412" stroke-linecap="round" stroke-linejoin="round"/>
<path d="M232.171 83.8291L233.702 86.9912L230.328 88.1527" stroke="#622542" stroke-width="1.01412" stroke-linecap="round" stroke-linejoin="round"/>
<path d="M211.663 66.1199C211.663 66.1199 220.328 58.6374 222.163 69.706" stroke="#622542" stroke-width="1.01412" stroke-linecap="round" stroke-linejoin="round"/>
<path d="M199.853 62.2204C199.853 62.2204 205.001 58.9201 205.889 64.0703C206.104 65.3148 205.968 66.5931 205.591 67.8008C204.887 70.0348 203.209 74.0788 199.853 76.1345L202.17 79.7176" stroke="#622542" stroke-width="1.01412" stroke-linecap="round" stroke-linejoin="round"/>
<path d="M213.866 69.2881C214.047 69.3404 214.201 69.4602 214.33 69.6446C214.459 69.832 214.551 70.0717 214.606 70.3636C214.662 70.6556 214.674 70.9782 214.649 71.3316C214.622 71.6881 214.557 72.0445 214.456 72.4071C214.351 72.7667 214.216 73.1047 214.053 73.4212C213.887 73.7346 213.703 74.002 213.503 74.2201C213.3 74.4383 213.098 74.595 212.889 74.6842C212.683 74.7763 212.486 74.7948 212.305 74.7425C212.123 74.6903 211.97 74.5705 211.841 74.3861C211.712 74.1986 211.623 73.9589 211.567 73.667C211.512 73.3751 211.497 73.0524 211.521 72.6991C211.549 72.3426 211.613 71.9861 211.718 71.6235C211.819 71.2609 211.954 70.9229 212.12 70.6095C212.283 70.296 212.468 70.0287 212.67 69.8105C212.87 69.5923 213.076 69.4356 213.282 69.3465C213.491 69.2543 213.684 69.2359 213.866 69.2881Z" fill="#622542"/>
<path d="M201.623 65.9479C201.805 66.0001 201.958 66.12 202.087 66.3074C202.213 66.4918 202.305 66.7315 202.361 67.0234C202.416 67.3184 202.431 67.6411 202.404 67.9944C202.379 68.3478 202.315 68.7074 202.21 69.0669C202.109 69.4295 201.974 69.7675 201.808 70.0809C201.642 70.3975 201.46 70.6617 201.258 70.883C201.058 71.1012 200.852 71.2548 200.646 71.347C200.437 71.4361 200.244 71.4545 200.062 71.4054C199.881 71.3531 199.724 71.2333 199.598 71.0458C199.469 70.8615 199.377 70.6218 199.322 70.3299C199.266 70.0349 199.254 69.7122 199.279 69.3588C199.306 69.0054 199.371 68.6459 199.472 68.2864C199.577 67.9238 199.712 67.5857 199.875 67.2723C200.041 66.9558 200.225 66.6915 200.425 66.4703C200.628 66.2521 200.83 66.0984 201.039 66.0063C201.245 65.9171 201.442 65.8987 201.623 65.9479Z" fill="#622542"/>
<path d="M219.167 140.54L217.676 139.062C216.287 137.682 214.305 137.077 212.382 137.445L205.793 138.715L207.191 143.877H218.727L219.167 140.543V140.54Z" fill="#FFA68E"/>
<path d="M208.033 122.191L213.208 157.134C213.386 158.347 212.547 159.478 211.331 159.66L209.68 159.905C210.897 159.724 211.736 158.593 211.555 157.376L206.38 122.434C206.199 121.22 205.068 120.382 203.851 120.56L205.504 120.317C206.721 120.136 207.852 120.975 208.033 122.191Z" fill="#FCB335"/>
<path d="M185.586 123.264L203.851 120.56C204.143 120.517 204.432 120.532 204.721 120.603C205.007 120.677 205.268 120.799 205.504 120.975C205.741 121.15 205.935 121.365 206.088 121.62C206.239 121.872 206.337 122.145 206.38 122.437L211.555 157.376C211.598 157.668 211.586 157.957 211.512 158.243C211.441 158.532 211.315 158.793 211.14 159.03C210.965 159.266 210.75 159.46 210.498 159.613C210.243 159.764 209.972 159.862 209.68 159.905L191.412 162.606C191.12 162.653 190.831 162.637 190.545 162.567C190.26 162.493 189.998 162.37 189.762 162.195C189.522 162.016 189.329 161.804 189.178 161.549C189.024 161.297 188.929 161.024 188.886 160.732L183.711 125.793C183.665 125.501 183.681 125.209 183.754 124.923C183.825 124.638 183.948 124.376 184.123 124.14C184.301 123.903 184.516 123.709 184.768 123.556C185.02 123.405 185.294 123.307 185.586 123.264Z" fill="#622542"/>
<path d="M196.83 130.39C196.83 130.697 196.771 130.992 196.654 131.275C196.538 131.561 196.369 131.813 196.15 132.028C195.932 132.246 195.683 132.415 195.398 132.532C195.115 132.649 194.82 132.707 194.51 132.707C194.202 132.707 193.907 132.649 193.621 132.532C193.339 132.415 193.087 132.246 192.872 132.028C192.653 131.813 192.484 131.561 192.368 131.275C192.251 130.992 192.189 130.697 192.189 130.39C192.189 130.083 192.251 129.785 192.368 129.502C192.484 129.216 192.653 128.967 192.869 128.749C193.087 128.531 193.339 128.365 193.621 128.245C193.907 128.128 194.202 128.07 194.51 128.07C194.82 128.07 195.115 128.128 195.398 128.245C195.683 128.365 195.932 128.531 196.15 128.749C196.369 128.967 196.538 129.216 196.654 129.502C196.771 129.785 196.83 130.083 196.83 130.39Z" fill="white"/>
<path d="M199.448 127.314H199.451C199.564 127.296 199.675 127.302 199.786 127.329C199.896 127.357 199.998 127.406 200.09 127.474C200.179 127.541 200.256 127.624 200.314 127.723C200.373 127.821 200.409 127.926 200.428 128.036L200.855 130.925C200.87 131.038 200.864 131.149 200.837 131.26C200.809 131.37 200.763 131.472 200.695 131.564C200.628 131.656 200.545 131.73 200.446 131.788C200.348 131.847 200.244 131.883 200.13 131.902H200.127C200.013 131.92 199.902 131.914 199.792 131.887C199.681 131.859 199.58 131.81 199.488 131.742C199.399 131.674 199.322 131.592 199.263 131.493C199.205 131.395 199.168 131.29 199.15 131.177L198.722 128.291C198.707 128.178 198.713 128.067 198.741 127.956C198.769 127.846 198.815 127.744 198.882 127.652C198.95 127.56 199.033 127.486 199.131 127.428C199.229 127.369 199.334 127.329 199.448 127.314Z" fill="white"/>
<path d="M224.022 164.856L219.624 162.631L204.106 163.731C202.745 163.731 201.645 162.631 201.645 161.273V159.515C200.13 159.515 198.904 158.289 198.904 156.774V153.929C197.456 153.747 196.372 152.518 196.372 151.062V149.666C196.372 148.511 197.281 147.561 198.434 147.509L198.354 145.14C198.308 143.739 199.356 142.54 200.751 142.399L219.167 140.54L230.327 146.292C230.327 146.292 233.91 147.497 234.756 152.77C235.597 158.04 234.417 166.119 224.022 164.853V164.856Z" fill="#FFA68E"/>
<path d="M198.434 147.509L203.544 147.147" stroke="#622542" stroke-width="1.01412" stroke-linecap="round" stroke-linejoin="round"/>
<path d="M198.904 153.928L203.894 153.612" stroke="#622542" stroke-width="1.01412" stroke-linecap="round" stroke-linejoin="round"/>
<path d="M201.645 159.515H204.807" stroke="#622542" stroke-width="1.01412" stroke-linecap="round" stroke-linejoin="round"/>
<path d="M262.203 117.773C258.22 106.741 253.153 107.629 249.564 110.376C246.814 112.484 245.037 115.622 244.444 119.036L239.036 150.029L230.327 146.292C234.934 148.302 226.542 165.808 221.935 163.799C221.935 163.799 236.443 191.138 252.047 182.073C267.654 173.008 269.129 136.957 262.203 117.773Z" fill="#FB5E00"/>
<path d="M239.036 150.029C239.036 150.029 243.802 149.353 246.353 157.536" stroke="#622542" stroke-width="1.01412" stroke-linecap="round" stroke-linejoin="round"/>
<mask id="mask6_364_2" style="mask-type:alpha" maskUnits="userSpaceOnUse" x="223" y="177" width="65" height="51">
<path d="M223.413 177H287.92V227.15H223.413V177Z" fill="white"/>
</mask>
<g mask="url(#mask6_364_2)">
<path d="M275.828 177.366C271.216 177.366 266.732 178.902 263.088 181.738L232.027 205.904C226.975 209.831 224.022 215.872 224.022 222.27V227.162H268.708L287.265 200.655V188.8C287.265 182.485 282.146 177.366 275.831 177.366H275.828Z" fill="#FCB335"/>
</g>
<path d="M287.266 200.655V188.8C287.266 182.485 282.146 177.366 275.828 177.366C271.216 177.366 266.732 178.905 263.088 181.738L232.027 205.904C226.975 209.831 224.022 215.872 224.022 222.27" stroke="#622542" stroke-width="1.01412" stroke-linecap="round" stroke-linejoin="round"/>
<mask id="mask7_364_2" style="mask-type:alpha" maskUnits="userSpaceOnUse" x="227" y="211" width="21" height="17">
<path d="M227.347 211.613H247.8V227.15H227.347V211.613Z" fill="white"/>
</mask>
<g mask="url(#mask7_364_2)">
<path d="M237.696 212.222H237.739C243.037 212.222 247.339 216.521 247.339 221.815V227.162H228.099V221.815C228.099 216.521 232.402 212.222 237.696 212.222Z" fill="#FB5E00"/>
</g>
<path d="M4.82757 123.796L59.842 112.039C60.1493 111.974 60.4597 111.937 60.7731 111.934C61.0896 111.928 61.4 111.956 61.7103 112.011C62.0176 112.069 62.3188 112.155 62.6107 112.272C62.9026 112.389 63.1823 112.53 63.4465 112.702C63.7077 112.871 63.9536 113.068 64.1779 113.286C64.4053 113.504 64.605 113.744 64.7833 114.002C64.9615 114.263 65.1151 114.537 65.238 114.826C65.364 115.111 65.4593 115.41 65.5238 115.717L82.6707 195.908C82.7383 196.215 82.7721 196.525 82.7752 196.842C82.7813 197.155 82.7537 197.466 82.6984 197.776C82.64 198.083 82.5539 198.384 82.4372 198.676C82.3204 198.968 82.179 199.248 82.007 199.512C81.8379 199.773 81.6413 200.019 81.4231 200.244C81.2049 200.471 80.9652 200.671 80.7071 200.849C80.4459 201.027 80.1724 201.181 79.8836 201.304C79.5947 201.427 79.2966 201.522 78.9893 201.589L23.9749 213.346C23.6676 213.411 23.3573 213.445 23.0438 213.451C22.7273 213.454 22.4169 213.429 22.1066 213.371C21.7993 213.316 21.4981 213.227 21.2062 213.113C20.9143 212.996 20.6347 212.852 20.3735 212.683C20.1092 212.511 19.8634 212.317 19.639 212.096C19.4116 211.878 19.2119 211.638 19.0337 211.38C18.8554 211.122 18.7018 210.848 18.5789 210.559C18.4529 210.27 18.3576 209.972 18.2931 209.665L1.14622 129.474C1.08168 129.167 1.04481 128.857 1.04174 128.543C1.03559 128.23 1.06325 127.916 1.11856 127.609C1.17694 127.299 1.26299 126.998 1.37976 126.706C1.49653 126.414 1.63788 126.137 1.80997 125.873C1.97898 125.609 2.17564 125.366 2.39382 125.138C2.61507 124.914 2.85168 124.711 3.11288 124.533C3.37101 124.355 3.6445 124.204 3.93335 124.078C4.22221 123.955 4.52028 123.86 4.82757 123.796Z" fill="#339967"/>
<path d="M37.8737 143.822C29.1712 145.681 23.6246 154.242 25.4837 162.941L56.9995 156.209C55.1404 147.506 46.5762 141.963 37.8737 143.822Z" fill="#FCB335"/>
<path d="M25.6866 171.733L60.4105 164.312C60.6717 164.257 60.936 164.254 61.2003 164.303C61.4645 164.349 61.7104 164.447 61.9378 164.595C62.1621 164.739 62.3526 164.923 62.5032 165.145C62.6568 165.366 62.7613 165.609 62.8166 165.873L63.2376 167.837C63.2929 168.101 63.2991 168.365 63.2499 168.629C63.2007 168.894 63.1024 169.136 62.958 169.364C62.8105 169.588 62.6261 169.779 62.4049 169.932C62.1836 170.083 61.9408 170.187 61.6766 170.243L26.9557 177.664C26.6914 177.719 26.4271 177.725 26.1629 177.676C25.8986 177.627 25.6528 177.529 25.4284 177.384C25.201 177.237 25.0136 177.052 24.8599 176.831C24.7094 176.61 24.6049 176.367 24.5465 176.106L24.1286 174.139C24.0702 173.878 24.0671 173.614 24.1163 173.349C24.1655 173.085 24.2607 172.839 24.4082 172.612C24.5557 172.388 24.7401 172.197 24.9614 172.046C25.1826 171.893 25.4254 171.788 25.6866 171.733Z" fill="#622542"/>
<path d="M23.8797 163.286L58.6036 155.864C58.8648 155.809 59.1291 155.806 59.3934 155.855C59.6576 155.901 59.9035 156 60.1309 156.147C60.3552 156.292 60.5457 156.476 60.6963 156.697C60.8499 156.919 60.9544 157.161 61.0097 157.426L61.4307 159.389C61.486 159.653 61.4922 159.918 61.443 160.182C61.3938 160.446 61.2955 160.689 61.1511 160.916C61.0036 161.141 60.8192 161.331 60.598 161.485C60.3767 161.635 60.134 161.74 59.8728 161.795L25.1488 169.216C24.8845 169.272 24.6233 169.278 24.356 169.229C24.0917 169.179 23.8489 169.081 23.6216 168.937C23.3972 168.789 23.2067 168.605 23.0531 168.384C22.9025 168.162 22.798 167.92 22.7396 167.658L22.3217 165.692C22.2633 165.43 22.2602 165.166 22.3094 164.902C22.3586 164.638 22.4569 164.392 22.6013 164.164C22.7488 163.94 22.9332 163.75 23.1545 163.599C23.3757 163.445 23.6185 163.341 23.8797 163.286Z" fill="#622542"/>
<path d="M58.2564 162.142C58.7081 164.754 57.5097 167.157 55.5092 167.585C54.2339 167.855 52.9341 167.268 51.9753 166.143C51.5697 167.56 50.6233 168.626 49.3511 168.9C48.0758 169.173 46.776 168.583 45.8264 167.456C45.4147 168.875 44.4682 169.945 43.1929 170.215C41.9177 170.488 40.6178 169.898 39.6683 168.774C39.2627 170.187 38.3162 171.257 37.041 171.53C35.9439 171.764 34.8254 171.355 33.925 170.522C33.4518 171.65 32.5975 172.48 31.5005 172.713C29.497 173.143 27.4197 171.441 26.7651 168.869L58.2564 162.142Z" fill="white"/>
<path d="M28.5597 177.32L60.0632 170.59L60.1708 171.103C61.0097 175.018 58.5083 178.878 54.5934 179.713L37.2806 183.413C33.3657 184.249 29.5062 181.751 28.6672 177.836L28.5597 177.32Z" fill="#FCB335"/>
<path d="M34.0326 156.172C34.0326 156.415 33.9865 156.645 33.8943 156.866C33.8021 157.091 33.67 157.287 33.501 157.456C33.3289 157.628 33.1322 157.757 32.911 157.85C32.6897 157.942 32.4562 157.988 32.2165 157.988C31.9737 157.988 31.7433 157.942 31.519 157.85C31.2977 157.757 31.101 157.628 30.929 157.456C30.7599 157.287 30.6278 157.091 30.5356 156.866C30.4434 156.645 30.3973 156.415 30.3973 156.172C30.3973 155.932 30.4434 155.699 30.5356 155.477C30.6278 155.256 30.7599 155.059 30.929 154.887C31.101 154.718 31.2977 154.586 31.519 154.494C31.7433 154.402 31.9737 154.356 32.2165 154.356C32.4562 154.356 32.6897 154.402 32.911 154.494C33.1322 154.586 33.3289 154.718 33.501 154.887C33.67 155.059 33.8021 155.256 33.8943 155.477C33.9865 155.699 34.0326 155.932 34.0326 156.172Z" fill="white"/>
<path d="M40.8513 148.155C40.8513 148.394 40.8052 148.628 40.713 148.849C40.6209 149.07 40.4887 149.267 40.3197 149.439C40.1476 149.608 39.951 149.74 39.7297 149.832C39.5054 149.925 39.2749 149.971 39.0322 149.971C38.7925 149.971 38.5589 149.925 38.3377 149.832C38.1164 149.74 37.9198 149.608 37.7477 149.439C37.5787 149.267 37.4465 149.07 37.3543 148.849C37.2622 148.628 37.2161 148.394 37.2161 148.155C37.2161 147.912 37.2622 147.681 37.3543 147.457C37.4465 147.236 37.5787 147.039 37.7477 146.87C37.9198 146.698 38.1164 146.569 38.3377 146.477C38.5589 146.385 38.7925 146.338 39.0322 146.338C39.2749 146.338 39.5054 146.385 39.7297 146.477C39.951 146.569 40.1476 146.698 40.3197 146.87C40.4887 147.039 40.6209 147.236 40.713 147.457C40.8052 147.681 40.8513 147.912 40.8513 148.155Z" fill="white"/>
<path d="M30.0162 19.1535L59.9833 12.7495C60.2906 12.6819 60.604 12.6481 60.9174 12.6451C61.2309 12.6389 61.5443 12.6666 61.8516 12.7219C62.162 12.7803 62.4631 12.8663 62.755 12.9831C63.047 13.0968 63.3235 13.2412 63.5878 13.4133C63.8521 13.5823 64.0979 13.779 64.3222 13.9971C64.5466 14.2153 64.7494 14.455 64.9276 14.7131C65.1058 14.9713 65.2564 15.2447 65.3824 15.5336C65.5053 15.8224 65.6006 16.1205 65.6682 16.4278L75.3632 61.7779C75.4308 62.0852 75.4646 62.3956 75.4708 62.709C75.4739 63.0255 75.4462 63.3359 75.3909 63.6462C75.3325 63.9535 75.2465 64.2547 75.1297 64.5466C75.016 64.8385 74.8716 65.1151 74.6995 65.3794C74.5305 65.6436 74.3338 65.8895 74.1156 66.1138C73.8974 66.3381 73.6578 66.5409 73.3996 66.7192C73.1384 66.8974 72.8649 67.048 72.5761 67.174C72.2872 67.2969 71.9892 67.3921 71.6819 67.4567L41.7148 73.8606C41.4075 73.9282 41.0971 73.962 40.7837 73.9682C40.4672 73.9712 40.1568 73.9467 39.8465 73.8883C39.5392 73.833 39.238 73.7439 38.9461 73.6302C38.6542 73.5134 38.3745 73.369 38.1133 73.1999C37.8491 73.0279 37.6032 72.8343 37.3789 72.613C37.1515 72.3948 36.9518 72.1552 36.7735 71.897C36.5953 71.6389 36.4417 71.3654 36.3187 71.0766C36.1928 70.7877 36.0975 70.4896 36.033 70.1823L26.3348 24.8322C26.2703 24.5249 26.2365 24.2146 26.2304 23.9011C26.2273 23.5877 26.2519 23.2743 26.3103 22.967C26.3656 22.6566 26.4516 22.3555 26.5684 22.0635C26.6851 21.7716 26.8296 21.4951 26.9986 21.2308C27.1707 20.9665 27.3643 20.7238 27.5855 20.4964C27.8037 20.272 28.0434 20.0692 28.3015 19.891C28.5596 19.7128 28.8331 19.5622 29.122 19.4393C29.4108 19.3133 29.7089 19.218 30.0162 19.1535Z" fill="#339967"/>
<path d="M41.6073 57.8261L38.5006 35.2218C38.1318 32.5268 40.9005 30.5694 43.6907 31.5527L60.0817 37.3267C62.875 38.31 63.803 41.5673 61.8271 43.4357L45.2303 59.1045C44.0257 60.2415 41.8316 59.4702 41.6073 57.8261Z" fill="#FCB335"/>
<path d="M61.5321 41.8255C54.6058 37.8368 47.3813 35.1941 39.8066 34.1063C38.3685 33.8973 37.4066 32.5483 37.843 31.31L37.8614 31.2608C38.1902 30.3297 39.2104 29.8042 40.286 29.9855C48.5736 31.3898 56.3819 34.1401 63.717 38.2394C64.6696 38.771 65.1366 39.8219 64.8078 40.753L64.771 40.8575C64.3408 42.0775 62.7736 42.5415 61.5321 41.8255Z" fill="#622542"/>
<path d="M45.9678 41.8009C46.1952 41.8808 46.4011 41.9976 46.5824 42.1512C46.7668 42.3048 46.9112 42.48 47.0218 42.6828C47.1324 42.8856 47.197 43.0977 47.2185 43.3158C47.2369 43.5371 47.2123 43.7491 47.1386 43.955C47.0679 44.1609 46.9542 44.3422 46.8006 44.502C46.6469 44.6618 46.4626 44.7847 46.2505 44.8738C46.0385 44.9598 45.8142 45.009 45.5745 45.0121C45.3348 45.0152 45.1043 44.9783 44.8739 44.8984C44.6465 44.8185 44.4406 44.7017 44.2593 44.5481C44.0749 44.3944 43.9305 44.2193 43.8198 44.0165C43.7092 43.8136 43.6447 43.6047 43.6232 43.3834C43.6047 43.1622 43.6293 42.9502 43.7031 42.7443C43.7737 42.5384 43.8874 42.3571 44.0411 42.1973C44.1947 42.0406 44.3791 41.9146 44.5911 41.8285C44.8032 41.7394 45.0306 41.6933 45.2672 41.6872C45.5069 41.6841 45.7373 41.721 45.9678 41.8009Z" fill="#622542"/>
<path d="M48.552 48.1772C48.8071 48.2663 49.0345 48.3954 49.2404 48.5675C49.4432 48.7365 49.6091 48.9362 49.732 49.1605C49.8549 49.3879 49.9256 49.6245 49.9502 49.8704C49.9717 50.1162 49.9441 50.3528 49.8642 50.5833C49.7812 50.8138 49.6552 51.0166 49.4831 51.1948C49.311 51.37 49.1052 51.5082 48.8685 51.6096C48.6319 51.708 48.3799 51.7602 48.1126 51.7633C47.8483 51.7694 47.5871 51.7264 47.3321 51.6373C47.077 51.5482 46.8466 51.416 46.6437 51.247C46.4379 51.075 46.275 50.8783 46.1521 50.6509C46.0292 50.4266 45.9554 50.19 45.9339 49.9441C45.9124 49.6983 45.9401 49.4586 46.0199 49.2312C46.1029 49.0007 46.2289 48.7979 46.401 48.6197C46.5731 48.4415 46.779 48.3032 47.0156 48.2048C47.2522 48.1065 47.5042 48.0543 47.7715 48.0481C48.0358 48.0451 48.297 48.0881 48.552 48.1772Z" fill="#622542"/>
<path d="M54.7871 42.1911C54.9653 42.2557 55.1282 42.3448 55.2695 42.4646C55.4109 42.5845 55.5276 42.7228 55.6137 42.8795C55.6997 43.0393 55.7489 43.2021 55.7643 43.3742C55.7796 43.5463 55.7612 43.7122 55.7028 43.872C55.6475 44.0349 55.5584 44.1763 55.4385 44.2992C55.3187 44.4252 55.1743 44.5204 55.0114 44.588C54.8455 44.6587 54.6672 44.6956 54.4829 44.6986C54.2954 44.7017 54.1141 44.671 53.9359 44.6095C53.7576 44.5481 53.5979 44.4559 53.4565 44.336C53.3121 44.2162 53.1984 44.0779 53.1123 43.9212C53.0263 43.7645 52.9771 43.5985 52.9587 43.4265C52.9433 43.2544 52.9648 43.0884 53.0201 42.9286C53.0785 42.7689 53.1646 42.6244 53.2875 42.5015C53.4073 42.3786 53.5487 42.2803 53.7146 42.2127C53.8806 42.142 54.0557 42.1082 54.2432 42.102C54.4275 42.099 54.6119 42.1297 54.7871 42.1911Z" fill="#622542"/>
<path d="M154.472 5.19323L173.242 9.47995C173.549 9.55063 173.844 9.64896 174.133 9.77802C174.419 9.90709 174.689 10.0638 174.947 10.2451C175.202 10.4264 175.439 10.6323 175.654 10.8597C175.872 11.0871 176.063 11.336 176.229 11.6003C176.398 11.8676 176.536 12.1472 176.65 12.4422C176.76 12.7342 176.843 13.0353 176.896 13.3457C176.948 13.656 176.969 13.9664 176.96 14.2829C176.954 14.5964 176.914 14.9067 176.843 15.214L170.043 44.9752C169.972 45.2825 169.874 45.5775 169.745 45.8633C169.616 46.1521 169.459 46.4226 169.278 46.6807C169.097 46.9357 168.891 47.1723 168.663 47.3874C168.436 47.6026 168.187 47.7961 167.92 47.9621C167.655 48.128 167.376 48.2694 167.081 48.38C166.789 48.4937 166.485 48.5736 166.177 48.6289C165.867 48.6811 165.553 48.7027 165.24 48.6934C164.927 48.6842 164.616 48.6443 164.309 48.5736L145.54 44.2869C145.232 44.2193 144.934 44.1179 144.648 43.9919C144.363 43.8628 144.089 43.7061 143.834 43.5248C143.576 43.3435 143.342 43.1376 143.124 42.9102C142.909 42.6828 142.719 42.4339 142.55 42.1666C142.384 41.9023 142.242 41.6227 142.132 41.3277C142.018 41.0357 141.938 40.7346 141.886 40.4242C141.831 40.1139 141.809 39.8004 141.818 39.487C141.827 39.1735 141.867 38.8632 141.938 38.5559L148.738 8.79469C148.809 8.4874 148.907 8.1924 149.037 7.90354C149.166 7.61776 149.319 7.34735 149.501 7.08922C149.685 6.83417 149.888 6.59755 150.118 6.38245C150.346 6.16735 150.594 5.97375 150.859 5.80781C151.126 5.64188 151.406 5.50052 151.701 5.3899C151.993 5.2762 152.294 5.19323 152.604 5.14099C152.915 5.08875 153.228 5.06724 153.541 5.07646C153.855 5.08568 154.165 5.12563 154.472 5.19323Z" fill="#339967"/>
<path d="M160.883 37.6064L152.383 35.6643L153.87 24.8906L164.226 27.2537L160.883 37.6064Z" fill="white"/>
<path d="M159.755 22.9762C159.441 22.9055 159.248 22.5952 159.318 22.2817L160.916 15.2847C160.99 14.9712 161.301 14.7777 161.611 14.8483L164.862 15.592C165.175 15.6627 165.369 15.973 165.298 16.2865C165.228 16.5968 164.917 16.7935 164.604 16.7228L161.918 16.1082L160.449 22.5398C160.379 22.8533 160.068 23.0469 159.755 22.9762Z" fill="#622542"/>
<path d="M160.538 18.6741L160.916 18.7602C163.67 19.3901 165.397 22.1342 164.767 24.8876L164.764 24.8998L154.408 22.5337L154.411 22.5214C155.041 19.7711 157.785 18.0472 160.538 18.6741Z" fill="#FCB335"/>
<path d="M152.908 22.1895L166.263 25.2409L165.726 27.5979L152.371 24.5465L152.908 22.1895Z" fill="#622542"/>
<path d="M80.2738 91.1027C80.2738 91.4162 80.2462 91.7235 80.1847 92.0308C80.1232 92.335 80.0341 92.63 79.9143 92.9188C79.7944 93.2077 79.65 93.4812 79.4749 93.7393C79.3028 93.9974 79.1061 94.2371 78.8849 94.4584C78.6667 94.6765 78.427 94.8732 78.1658 95.0484C77.9077 95.2205 77.6342 95.368 77.3453 95.4847C77.0595 95.6046 76.7615 95.6937 76.4573 95.7551C76.15 95.8166 75.8427 95.8473 75.5292 95.8473C75.2189 95.8473 74.9116 95.8166 74.6043 95.7551C74.3001 95.6937 74.002 95.6046 73.7162 95.4847C73.4274 95.368 73.1539 95.2205 72.8957 95.0484C72.6345 94.8732 72.3949 94.6765 72.1767 94.4584C71.9554 94.2371 71.7588 93.9974 71.5867 93.7393C71.4115 93.4812 71.2671 93.2077 71.1473 92.9188C71.0274 92.63 70.9383 92.335 70.8768 92.0308C70.8154 91.7235 70.7877 91.4162 70.7877 91.1027C70.7877 90.7924 70.8154 90.4851 70.8768 90.1778C70.9383 89.8736 71.0274 89.5755 71.1473 89.2897C71.2671 89.0009 71.4115 88.7274 71.5867 88.4693C71.7588 88.2111 71.9554 87.9714 72.1767 87.7502C72.3949 87.5289 72.6345 87.3323 72.8957 87.1602C73.1539 86.9881 73.4274 86.8406 73.7162 86.7238C74.002 86.604 74.3001 86.5118 74.6043 86.4534C74.9116 86.392 75.2189 86.3612 75.5292 86.3612C75.8427 86.3612 76.15 86.392 76.4573 86.4534C76.7615 86.5118 77.0595 86.604 77.3453 86.7238C77.6342 86.8406 77.9077 86.9881 78.1658 87.1602C78.427 87.3323 78.6667 87.5289 78.8849 87.7502C79.1061 87.9714 79.3028 88.2111 79.4749 88.4693C79.65 88.7274 79.7944 89.0009 79.9143 89.2897C80.0341 89.5755 80.1232 89.8736 80.1847 90.1778C80.2462 90.4851 80.2738 90.7924 80.2738 91.1027Z" fill="#339967"/>
<path d="M92.8052 98.7974C92.8052 99.16 92.7345 99.5103 92.5962 99.8452C92.4579 100.18 92.2582 100.475 92.0031 100.733C91.745 100.988 91.45 101.188 91.1151 101.326C90.7801 101.465 90.4298 101.535 90.0672 101.535C89.7046 101.535 89.3543 101.465 89.0193 101.326C88.6844 101.188 88.3894 100.988 88.1313 100.733C87.8762 100.475 87.6765 100.18 87.5382 99.8452C87.3999 99.5103 87.3292 99.16 87.3292 98.7974C87.3292 98.4347 87.3999 98.0875 87.5382 97.7526C87.6765 97.4176 87.8762 97.1195 88.1313 96.8645C88.3894 96.6064 88.6844 96.4097 89.0193 96.2714C89.3543 96.1331 89.7046 96.0625 90.0672 96.0625C90.4298 96.0625 90.7801 96.1331 91.1151 96.2714C91.45 96.4097 91.745 96.6064 92.0031 96.8645C92.2582 97.1195 92.4579 97.4176 92.5962 97.7526C92.7345 98.0875 92.8052 98.4347 92.8052 98.7974Z" fill="#339967"/>
<path d="M257.839 23.3234C257.839 23.6922 257.802 24.0579 257.732 24.4174C257.658 24.78 257.553 25.1303 257.412 25.4714C257.271 25.8125 257.099 26.1352 256.893 26.4425C256.687 26.7497 256.456 27.0325 256.195 27.2937C255.934 27.5549 255.651 27.7853 255.344 27.9912C255.037 28.1971 254.714 28.3692 254.373 28.5105C254.032 28.6519 253.682 28.7564 253.319 28.8301C252.956 28.9008 252.594 28.9377 252.225 28.9377C251.856 28.9377 251.491 28.9008 251.128 28.8301C250.765 28.7564 250.415 28.6519 250.074 28.5105C249.733 28.3692 249.41 28.1971 249.103 27.9912C248.796 27.7853 248.513 27.5549 248.252 27.2937C247.99 27.0325 247.76 26.7497 247.554 26.4425C247.348 26.1352 247.176 25.8125 247.035 25.4714C246.893 25.1303 246.789 24.78 246.715 24.4174C246.645 24.0579 246.608 23.6922 246.608 23.3234C246.608 22.9547 246.645 22.589 246.715 22.2295C246.789 21.8669 246.893 21.5166 247.035 21.1755C247.176 20.8344 247.348 20.5117 247.554 20.2044C247.76 19.8971 247.99 19.6144 248.252 19.3532C248.513 19.092 248.796 18.8616 249.103 18.6557C249.41 18.4498 249.733 18.2777 250.074 18.1364C250.415 17.995 250.765 17.8905 251.128 17.8168C251.491 17.7461 251.856 17.7092 252.225 17.7092C252.594 17.7092 252.956 17.7461 253.319 17.8168C253.682 17.8905 254.032 17.995 254.373 18.1364C254.714 18.2777 255.037 18.4498 255.344 18.6557C255.651 18.8616 255.934 19.092 256.195 19.3532C256.456 19.6144 256.687 19.8971 256.893 20.2044C257.099 20.5117 257.271 20.8344 257.412 21.1755C257.553 21.5166 257.658 21.8669 257.732 22.2295C257.802 22.589 257.839 22.9547 257.839 23.3234Z" fill="#339967"/>
<path d="M19.7254 279.054C19.7254 279.383 19.5841 279.693 19.3075 279.988C19.0371 280.283 18.6837 280.551 18.2504 280.787C17.8233 281.027 17.3439 281.236 16.8123 281.414C16.2776 281.596 15.7491 281.746 15.2267 281.869C14.7104 281.998 14.2218 282.096 13.764 282.164C13.303 282.229 12.9404 282.262 12.67 282.262C12.415 282.262 12.1445 282.238 11.8588 282.189C11.5791 282.146 11.3456 282.047 11.1581 281.894C11.0506 281.811 10.9553 281.632 10.8754 281.353C10.7925 281.067 10.7156 280.732 10.6419 280.345C10.5681 279.961 10.5005 279.546 10.4452 279.103C10.396 278.655 10.353 278.215 10.3223 277.788C10.2885 277.364 10.2608 276.974 10.2363 276.62C10.2178 276.261 10.2117 275.978 10.2117 275.772C10.2117 275.447 10.2178 275.044 10.2363 274.568C10.2608 274.095 10.2916 273.591 10.3346 273.056C10.3745 272.515 10.4268 271.968 10.4944 271.409C10.5589 270.843 10.6327 270.312 10.7156 269.811C10.8047 269.313 10.9123 268.864 11.0352 268.471C11.1643 268.072 11.3056 267.755 11.4531 267.525C11.7051 267.165 12.0247 266.984 12.4119 266.984C12.6823 266.984 12.9066 267.076 13.0879 267.254C13.2754 267.436 13.4259 267.669 13.5427 267.955C13.6564 268.244 13.7425 268.563 13.8008 268.914C13.8561 269.267 13.8992 269.62 13.9238 269.971C13.9545 270.315 13.9729 270.634 13.9729 270.929C13.9729 271.218 13.9729 271.446 13.9729 271.618C13.9729 272.66 13.9483 273.692 13.8992 274.715C13.8561 275.732 13.8377 276.756 13.8377 277.788V278.575C14.4339 278.387 15.0853 278.212 15.7921 278.046C16.4958 277.874 17.1688 277.788 17.8079 277.788C18.0353 277.788 18.2658 277.807 18.4963 277.837C18.7236 277.862 18.9295 277.92 19.1108 278.009C19.2891 278.092 19.4366 278.218 19.5533 278.39C19.667 278.556 19.7254 278.778 19.7254 279.054Z" fill="black"/>
<path d="M28.5939 278.255C28.5939 278.707 28.4495 279.149 28.1637 279.583C27.8749 280.019 27.5153 280.403 27.0821 280.738C26.6457 281.076 26.1848 281.35 25.6931 281.562C25.2014 281.768 24.7497 281.869 24.341 281.869C23.6281 281.869 22.9951 281.694 22.4481 281.34C21.898 280.99 21.434 280.538 21.0591 279.988C20.6904 279.441 20.4077 278.839 20.211 278.182C20.0143 277.527 19.916 276.885 19.916 276.252C19.916 275.588 20.0082 274.881 20.1987 274.125C20.3862 273.363 20.6689 272.663 21.0468 272.023C21.431 271.384 21.9103 270.853 22.485 270.425C23.0658 270.001 23.7541 269.786 24.55 269.786C25.0078 269.786 25.4411 269.866 25.8529 270.02C26.2616 270.167 26.618 270.382 26.9223 270.659C27.2326 270.939 27.4815 271.274 27.6721 271.667C27.8595 272.054 27.9548 272.484 27.9548 272.958C27.9548 273.581 27.8196 274.168 27.5491 274.715C27.2849 275.265 26.9346 275.742 26.4921 276.141C26.0496 276.534 25.5395 276.854 24.9679 277.1C24.4025 277.346 23.8186 277.487 23.2225 277.518C23.2716 277.905 23.4222 278.182 23.6773 278.354C23.9385 278.526 24.2488 278.612 24.6114 278.612C24.8818 278.612 25.143 278.547 25.3981 278.415C25.6501 278.277 25.8959 278.126 26.1356 277.96C26.3722 277.797 26.6058 277.65 26.8362 277.518C27.0728 277.379 27.3095 277.309 27.5491 277.309C27.8196 277.309 28.0592 277.401 28.2744 277.579C28.4864 277.751 28.5939 277.979 28.5939 278.255ZM25.3489 273.363C25.3489 273.185 25.3028 273.004 25.2137 272.822C25.1215 272.635 24.974 272.54 24.7712 272.54C24.4824 272.54 24.2365 272.62 24.0337 272.773C23.8371 272.921 23.668 273.114 23.5298 273.351C23.3976 273.581 23.2962 273.83 23.2225 274.101C23.1487 274.365 23.1057 274.611 23.0996 274.838C23.287 274.798 23.5083 274.746 23.7633 274.678C24.0245 274.614 24.2703 274.525 24.5008 274.408C24.7374 274.294 24.9372 274.15 25.1031 273.978C25.266 273.806 25.3489 273.603 25.3489 273.363Z" fill="black"/>
<path d="M34.0348 282.533C33.0914 282.533 32.357 282.404 31.8346 282.152C31.3091 281.906 30.9158 281.559 30.6546 281.107C30.3903 280.658 30.2305 280.111 30.1752 279.472C30.126 278.833 30.1015 278.12 30.1015 277.333C30.1015 276.713 30.1199 276.086 30.1629 275.453C30.2029 274.814 30.2643 274.135 30.3473 273.412C30.1568 273.412 30.0093 273.419 29.9048 273.425C29.7972 273.434 29.7112 273.437 29.6467 273.437C29.2195 273.437 28.8508 273.348 28.5404 273.167C28.2208 272.979 28.061 272.687 28.061 272.294C28.061 272.057 28.1532 271.848 28.3315 271.667C28.5128 271.48 28.7432 271.32 29.0198 271.188C29.3056 271.049 29.6098 270.942 29.9294 270.868C30.2551 270.788 30.5685 270.73 30.8635 270.696C30.8635 270.327 30.8881 269.918 30.9373 269.467C30.9926 269.009 31.0909 268.588 31.2323 268.201C31.3706 267.807 31.558 267.482 31.7977 267.217C32.0435 266.947 32.3508 266.812 32.7196 266.812C32.9316 266.812 33.1191 266.873 33.285 266.996C33.4571 267.119 33.5954 267.279 33.7029 267.476C33.8074 267.672 33.8873 267.89 33.9365 268.127C33.9918 268.367 34.0225 268.6 34.0225 268.828C34.0225 269.092 34.001 269.362 33.961 269.639C33.918 269.918 33.8443 270.266 33.7398 270.684C33.9672 270.659 34.1208 270.644 34.1946 270.634C34.2745 270.628 34.3482 270.622 34.4158 270.622C34.6432 270.622 34.8829 270.644 35.1287 270.684C35.3746 270.727 35.5989 270.791 35.8048 270.88C36.0076 270.972 36.1766 271.095 36.3087 271.249C36.447 271.406 36.5177 271.59 36.5177 271.802C36.5177 272.042 36.4194 272.254 36.2227 272.441C36.0322 272.632 35.7925 272.792 35.4975 272.921C35.2025 273.053 34.886 273.154 34.551 273.228C34.2222 273.302 33.9119 273.351 33.6169 273.376C33.5431 273.926 33.4847 274.43 33.4448 274.887C33.411 275.348 33.3772 275.809 33.3465 276.276C33.3126 276.498 33.285 276.728 33.2604 276.965C33.242 277.195 33.2358 277.432 33.2358 277.678C33.2358 277.85 33.242 278.056 33.2604 278.292C33.2758 278.523 33.3219 278.744 33.3956 278.956C33.4755 279.171 33.6046 279.355 33.7767 279.509C33.9487 279.657 34.1884 279.73 34.5019 279.73C34.6893 279.73 34.8829 279.715 35.0796 279.681C35.2762 279.65 35.476 279.632 35.6819 279.632C36.026 279.632 36.2719 279.752 36.4194 279.988C36.573 280.228 36.6529 280.535 36.6529 280.91C36.6529 281.19 36.5699 281.433 36.4071 281.636C36.2411 281.838 36.0322 282.004 35.7802 282.127C35.5251 282.256 35.2424 282.355 34.9321 282.422C34.6186 282.496 34.3206 282.533 34.0348 282.533Z" fill="black"/>
<path d="M39.0351 268.889C39.0351 269.086 39.0167 269.393 38.986 269.811C38.9614 270.229 38.9153 270.653 38.8508 271.077C38.7832 271.495 38.6818 271.861 38.5435 272.171C38.4113 272.484 38.2485 272.638 38.0518 272.638C37.9289 272.638 37.8213 272.561 37.7322 272.404C37.64 272.242 37.5601 272.042 37.4864 271.802C37.4126 271.566 37.345 271.298 37.2897 271.003C37.2406 270.708 37.1975 270.422 37.1668 270.143C37.133 269.866 37.1084 269.614 37.0931 269.393C37.0746 269.172 37.0685 269.009 37.0685 268.901C37.0685 268.772 37.0746 268.594 37.0931 268.373C37.1084 268.145 37.1453 267.918 37.2037 267.697C37.259 267.476 37.345 267.291 37.4618 267.144C37.5755 266.99 37.7384 266.91 37.9535 266.91C38.1901 266.91 38.3775 266.981 38.5189 267.119C38.6572 267.26 38.7678 267.432 38.8508 267.635C38.9307 267.841 38.9798 268.059 38.9983 268.287C39.0229 268.508 39.0351 268.711 39.0351 268.889Z" fill="black"/>
<path d="M46.1019 270.819C46.1019 271.206 45.9698 271.492 45.7086 271.679C45.4535 271.87 45.1677 272.045 44.8482 272.208C44.5286 272.374 44.2367 272.57 43.9755 272.798C43.7112 273.028 43.5821 273.369 43.5821 273.818C43.5821 274.058 43.6374 274.26 43.7542 274.433C43.8679 274.605 44.0062 274.764 44.1721 274.912C44.335 275.053 44.5163 275.195 44.713 275.342C44.9158 275.484 45.1001 275.646 45.2661 275.834C45.4382 276.024 45.5764 276.252 45.684 276.522C45.7977 276.786 45.8561 277.109 45.8561 277.493C45.8561 278.052 45.7117 278.599 45.4259 279.14C45.1462 279.681 44.7806 280.16 44.3319 280.578C43.8894 280.996 43.3855 281.334 42.82 281.586C42.2608 281.838 41.7138 281.967 41.173 281.967C40.9425 281.967 40.712 281.949 40.4846 281.918C40.2634 281.884 40.0606 281.823 39.8823 281.734C39.701 281.635 39.5505 281.506 39.4275 281.34C39.3046 281.168 39.2432 280.953 39.2432 280.689C39.2432 280.314 39.3169 280.022 39.4644 279.816C39.6119 279.614 39.7994 279.454 40.0298 279.337C40.2572 279.214 40.5 279.122 40.755 279.054C41.0162 278.99 41.259 278.907 41.4802 278.808C41.7076 278.704 41.8982 278.572 42.0457 278.415C42.1932 278.252 42.2669 278.022 42.2669 277.727C42.2669 277.45 42.1563 277.161 41.935 276.866C41.7138 276.565 41.468 276.246 41.1975 275.908C40.9333 275.563 40.6936 275.201 40.4723 274.814C40.2572 274.43 40.1527 274.002 40.1527 273.535C40.1527 272.964 40.2664 272.435 40.4969 271.95C40.7335 271.467 41.0439 271.046 41.4311 270.684C41.8244 270.324 42.2731 270.041 42.7832 269.835C43.2902 269.633 43.8218 269.528 44.3811 269.528C44.5931 269.528 44.8021 269.55 45.008 269.59C45.22 269.623 45.4044 269.694 45.5611 269.799C45.7239 269.897 45.8561 270.029 45.9544 270.192C46.0527 270.358 46.1019 270.567 46.1019 270.819Z" fill="black"/>
<path d="M62.0008 272.822C62.0008 273.996 61.758 275.127 61.2756 276.215C60.7993 277.297 60.1571 278.255 59.3458 279.091C58.5407 279.927 57.6035 280.597 56.531 281.095C55.4555 281.596 54.3308 281.844 53.1508 281.844H53.1139C52.8681 281.844 52.6653 281.74 52.5116 281.525C52.3641 281.304 52.2351 281.027 52.1306 280.689C52.023 280.354 51.9401 279.982 51.8848 279.571C51.8356 279.162 51.7926 278.759 51.7619 278.366C51.7373 277.973 51.725 277.622 51.725 277.309C51.725 276.989 51.725 276.753 51.725 276.596C51.725 276.147 51.7311 275.699 51.7496 275.256C51.7649 274.807 51.7864 274.353 51.811 273.892C51.811 273.753 51.8172 273.541 51.8356 273.253C51.8602 272.967 51.8848 272.644 51.9094 272.282C51.9339 271.922 51.9647 271.544 52.0077 271.151C52.0476 270.757 52.0876 270.395 52.1306 270.057C52.1798 269.713 52.2289 269.415 52.2781 269.159C52.3273 268.898 52.3826 268.717 52.4502 268.619C52.6223 268.333 52.8865 268.075 53.2491 267.844C53.6087 267.617 53.9989 267.432 54.4169 267.291C54.8348 267.144 55.2588 267.033 55.6952 266.959C56.1285 266.886 56.5064 266.849 56.826 266.849C57.7018 266.849 58.4639 267.015 59.1123 267.34C59.7576 267.66 60.2953 268.099 60.7225 268.656C61.1558 269.206 61.4753 269.842 61.6812 270.561C61.8933 271.283 62.0008 272.036 62.0008 272.822ZM58.6452 273.4C58.6452 273.105 58.5899 272.807 58.4854 272.503C58.3778 272.192 58.2273 271.913 58.0306 271.667C57.8401 271.415 57.6065 271.209 57.33 271.052C57.0596 270.899 56.7553 270.819 56.4204 270.819C56.1408 270.819 55.855 270.886 55.56 271.016C55.4924 271.059 55.4309 271.185 55.3756 271.397C55.3264 271.602 55.2834 271.851 55.2527 272.146C55.2189 272.435 55.1912 272.755 55.1666 273.105C55.1421 273.449 55.1236 273.778 55.1175 274.088C55.1083 274.402 55.099 274.678 55.0929 274.924C55.0837 275.164 55.0806 275.318 55.0806 275.391C55.0806 275.533 55.0806 275.732 55.0806 275.994C55.0806 276.249 55.0867 276.504 55.1052 276.756C55.1298 277.011 55.1544 277.232 55.1789 277.419C55.2097 277.601 55.2588 277.69 55.3264 277.69C55.7259 277.69 56.1254 277.536 56.5187 277.223C56.9121 276.912 57.2685 276.531 57.5881 276.08C57.9077 275.622 58.1597 275.146 58.3502 274.654C58.5469 274.162 58.6452 273.744 58.6452 273.4Z" fill="black"/>
<path d="M66.189 267.869C66.189 268.05 66.1398 268.213 66.0415 268.361C65.9431 268.508 65.811 268.64 65.6481 268.754C65.4914 268.871 65.3193 268.957 65.1319 269.012C64.9413 269.07 64.7693 269.098 64.6156 269.098C64.3452 269.098 64.1055 269.033 63.9027 268.901C63.706 268.772 63.6077 268.566 63.6077 268.287C63.6077 268.084 63.6569 267.906 63.7552 267.758C63.8597 267.605 63.9826 267.476 64.124 267.377C64.2715 267.279 64.4374 267.205 64.6279 267.156C64.8154 267.101 64.9967 267.07 65.1687 267.07C65.4207 267.07 65.6543 267.131 65.8694 267.254C66.0814 267.371 66.189 267.574 66.189 267.869ZM66.3487 274.654C66.3487 274.844 66.3487 275.041 66.3487 275.244C66.3487 275.45 66.3395 275.646 66.3242 275.834C66.3149 276.064 66.3119 276.369 66.3119 276.743C66.3119 277.121 66.2934 277.53 66.2627 277.973C66.2381 278.415 66.1951 278.864 66.1398 279.312C66.0814 279.764 65.9831 280.179 65.8448 280.554C65.7126 280.923 65.5375 281.227 65.3162 281.463C65.095 281.694 64.8184 281.814 64.4927 281.832C64.2376 281.838 64.0256 281.74 63.8535 281.525C63.6815 281.313 63.537 281.039 63.4233 280.701C63.3066 280.357 63.2205 279.976 63.1652 279.558C63.116 279.14 63.0792 278.735 63.0546 278.341C63.03 277.948 63.0177 277.588 63.0177 277.26C63.0177 276.925 63.0177 276.676 63.0177 276.51C63.0177 276.298 63.0177 275.994 63.0177 275.6C63.0177 275.207 63.03 274.786 63.0546 274.334C63.0792 273.886 63.1283 273.425 63.2021 272.958C63.2758 272.491 63.3803 272.066 63.5217 271.679C63.6599 271.295 63.8412 270.985 64.0625 270.745C64.2899 270.499 64.5818 270.376 64.9352 270.376C65.2855 270.376 65.5559 270.558 65.7465 270.917C65.9339 271.28 66.0722 271.701 66.1644 272.183C66.2627 272.66 66.3149 273.136 66.3242 273.609C66.3395 274.085 66.3487 274.433 66.3487 274.654Z" fill="black"/>
<path d="M76.3711 274.654C76.0269 275.573 75.6459 276.531 75.2279 277.53C74.8162 278.532 74.3737 279.466 73.9004 280.333C73.6054 280.867 73.2766 281.31 72.9171 281.66C72.5545 282.01 72.1427 282.189 71.6756 282.189C71.3069 282.189 70.9443 281.998 70.594 281.623C70.2406 281.239 69.9118 280.784 69.6106 280.259C69.3156 279.736 69.0575 279.202 68.8363 278.661C68.615 278.12 68.4491 277.69 68.3446 277.37C68.2371 277.011 68.1141 276.627 67.9759 276.215C67.8437 275.806 67.7239 275.388 67.6194 274.961C67.5118 274.537 67.4258 274.113 67.3613 273.695C67.2937 273.271 67.2629 272.872 67.2629 272.503C67.2629 271.98 67.3551 271.553 67.5456 271.224C67.7331 270.89 68.0988 270.721 68.6396 270.721C68.8516 270.721 69.0452 270.788 69.2173 270.917C69.3955 271.04 69.5553 271.218 69.6967 271.446C69.8442 271.667 69.9825 271.931 70.1146 272.232C70.2529 272.527 70.3789 272.856 70.4956 273.216C70.6186 273.56 70.7323 273.922 70.8398 274.297C70.9443 274.666 71.0518 275.029 71.1594 275.379C71.2639 275.723 71.3745 276.061 71.4913 276.387C71.605 276.716 71.7525 277.038 71.9338 277.358C72.0321 277.112 72.1366 276.839 72.2534 276.534C72.3763 276.233 72.5053 275.908 72.6467 275.563C72.785 275.213 72.9325 274.857 73.0892 274.494C73.2521 274.125 73.4272 273.766 73.6177 273.412C73.9773 272.699 74.3583 272.091 74.7609 271.581C75.1696 271.074 75.5752 270.819 75.9777 270.819C76.3465 270.819 76.6077 270.936 76.7644 271.163C76.9273 271.384 77.0102 271.676 77.0102 272.036C77.0102 272.398 76.9488 272.807 76.8259 273.265C76.7091 273.717 76.5585 274.181 76.3711 274.654Z" fill="black"/>
<path d="M86.0816 278.255C86.0816 278.707 85.9372 279.149 85.6514 279.583C85.3625 280.019 85.003 280.403 84.5697 280.738C84.1334 281.076 83.6724 281.35 83.1808 281.562C82.6891 281.768 82.2374 281.869 81.8287 281.869C81.1158 281.869 80.4827 281.694 79.9358 281.34C79.3857 280.99 78.9217 280.538 78.5468 279.988C78.1781 279.441 77.8954 278.839 77.6987 278.182C77.502 277.527 77.4037 276.885 77.4037 276.252C77.4037 275.588 77.4959 274.881 77.6864 274.125C77.8738 273.363 78.1566 272.663 78.5345 272.023C78.9186 271.384 79.398 270.853 79.9726 270.425C80.5534 270.001 81.2418 269.786 82.0376 269.786C82.4955 269.786 82.9288 269.866 83.3406 270.02C83.7493 270.167 84.1057 270.382 84.4099 270.659C84.7203 270.939 84.9692 271.274 85.1597 271.667C85.3472 272.054 85.4424 272.484 85.4424 272.958C85.4424 273.581 85.3072 274.168 85.0368 274.715C84.7725 275.265 84.4222 275.742 83.9797 276.141C83.5372 276.534 83.0271 276.854 82.4556 277.1C81.8901 277.346 81.3063 277.487 80.7101 277.518C80.7593 277.905 80.9099 278.182 81.1649 278.354C81.4261 278.526 81.7365 278.612 82.0991 278.612C82.3695 278.612 82.6307 278.547 82.8858 278.415C83.1377 278.277 83.3836 278.126 83.6233 277.96C83.8599 277.797 84.0934 277.65 84.3239 277.518C84.5605 277.379 84.7971 277.309 85.0368 277.309C85.3072 277.309 85.5469 277.401 85.762 277.579C85.9741 277.751 86.0816 277.979 86.0816 278.255ZM82.8366 273.363C82.8366 273.185 82.7905 273.004 82.7014 272.822C82.6092 272.635 82.4617 272.54 82.2589 272.54C81.97 272.54 81.7242 272.62 81.5214 272.773C81.3247 272.921 81.1557 273.114 81.0174 273.351C80.8853 273.581 80.7839 273.83 80.7101 274.101C80.6364 274.365 80.5934 274.611 80.5872 274.838C80.7747 274.798 80.9959 274.746 81.251 274.678C81.5122 274.614 81.758 274.525 81.9885 274.408C82.2251 274.294 82.4248 274.15 82.5908 273.978C82.7536 273.806 82.8366 273.603 82.8366 273.363Z" fill="black"/>
<path d="M94.9828 267.869C94.9828 268.05 94.9336 268.213 94.8353 268.361C94.7369 268.508 94.6048 268.64 94.4419 268.754C94.2852 268.871 94.1131 268.957 93.9257 269.012C93.7352 269.07 93.5631 269.098 93.4094 269.098C93.139 269.098 92.8993 269.033 92.6965 268.901C92.4999 268.772 92.4015 268.566 92.4015 268.287C92.4015 268.084 92.4507 267.906 92.549 267.758C92.6535 267.605 92.7764 267.476 92.9178 267.377C93.0653 267.279 93.2312 267.205 93.4217 267.156C93.6092 267.101 93.7905 267.07 93.9626 267.07C94.2145 267.07 94.4481 267.131 94.6632 267.254C94.8752 267.371 94.9828 267.574 94.9828 267.869ZM95.1426 274.654C95.1426 274.844 95.1426 275.041 95.1426 275.244C95.1426 275.45 95.1333 275.646 95.118 275.834C95.1088 276.064 95.1057 276.369 95.1057 276.743C95.1057 277.121 95.0873 277.53 95.0565 277.973C95.0319 278.415 94.9889 278.864 94.9336 279.312C94.8752 279.764 94.7769 280.179 94.6386 280.554C94.5065 280.923 94.3313 281.227 94.1101 281.463C93.8888 281.694 93.6123 281.814 93.2865 281.832C93.0315 281.838 92.8194 281.74 92.6474 281.525C92.4753 281.313 92.3308 281.039 92.2171 280.701C92.1004 280.357 92.0143 279.976 91.959 279.558C91.9099 279.14 91.873 278.735 91.8484 278.341C91.8238 277.948 91.8115 277.588 91.8115 277.26C91.8115 276.925 91.8115 276.676 91.8115 276.51C91.8115 276.298 91.8115 275.994 91.8115 275.6C91.8115 275.207 91.8238 274.786 91.8484 274.334C91.873 273.886 91.9221 273.425 91.9959 272.958C92.0696 272.491 92.1741 272.066 92.3155 271.679C92.4538 271.295 92.6351 270.985 92.8563 270.745C93.0837 270.499 93.3756 270.376 93.729 270.376C94.0793 270.376 94.3498 270.558 94.5403 270.917C94.7277 271.28 94.866 271.701 94.9582 272.183C95.0565 272.66 95.1088 273.136 95.118 273.609C95.1333 274.085 95.1426 274.433 95.1426 274.654Z" fill="black"/>
<path d="M102.227 282.373C102.006 282.373 101.825 282.265 101.686 282.053C101.554 281.848 101.456 281.617 101.391 281.353C101.324 281.082 101.281 280.812 101.256 280.542C101.238 280.265 101.232 280.056 101.232 279.915C101.232 279.515 101.25 279.113 101.293 278.71C101.342 278.311 101.394 277.911 101.453 277.518C101.517 277.118 101.57 276.716 101.613 276.313C101.662 275.914 101.686 275.514 101.686 275.121C101.686 274.958 101.677 274.786 101.662 274.605C101.653 274.417 101.625 274.242 101.576 274.076C101.533 273.904 101.459 273.766 101.355 273.658C101.247 273.554 101.109 273.498 100.937 273.498C100.814 273.498 100.678 273.597 100.531 273.793C100.383 273.984 100.242 274.199 100.113 274.445C99.9901 274.691 99.8826 274.937 99.7935 275.182C99.7105 275.428 99.6706 275.613 99.6706 275.736C99.6706 276.031 99.6736 276.332 99.6829 276.633C99.689 276.928 99.6951 277.229 99.6951 277.53V278.686C99.6767 278.931 99.6583 279.183 99.6337 279.435C99.6091 279.681 99.5661 279.927 99.5108 280.173C99.4678 280.412 99.4063 280.64 99.3264 280.861C99.2526 281.082 99.1482 281.276 99.0191 281.439C98.8962 281.605 98.7487 281.74 98.5766 281.844C98.4045 281.949 98.1986 282.004 97.962 282.004C97.6916 282.004 97.4704 281.918 97.2983 281.746C97.1262 281.574 96.9848 281.353 96.8804 281.082C96.7728 280.806 96.696 280.499 96.6468 280.161C96.5976 279.816 96.5638 279.484 96.5485 279.165C96.53 278.839 96.5239 278.538 96.5239 278.268C96.53 277.991 96.5362 277.773 96.5362 277.616V276.67C96.5362 276.172 96.5239 275.674 96.4993 275.182C96.4809 274.685 96.4747 274.187 96.4747 273.695C96.4747 273.434 96.4778 273.099 96.487 272.687C96.4932 272.269 96.5423 271.864 96.6345 271.47C96.7329 271.077 96.8865 270.742 97.1016 270.462C97.3136 270.186 97.624 270.044 98.0358 270.044C98.2232 270.044 98.3922 270.106 98.5397 270.229C98.6872 270.346 98.8132 270.487 98.9208 270.659C99.0345 270.831 99.1297 271.022 99.2035 271.224C99.2772 271.421 99.3325 271.593 99.3756 271.741C99.5046 271.553 99.6613 271.372 99.8426 271.2C100.021 271.028 100.224 270.877 100.445 270.745C100.672 270.607 100.927 270.499 101.207 270.426C101.493 270.346 101.812 270.303 102.166 270.303C102.845 270.303 103.373 270.469 103.751 270.794C104.136 271.123 104.418 271.529 104.6 272.011C104.778 272.497 104.888 273.019 104.931 273.584C104.971 274.144 104.993 274.648 104.993 275.096C104.993 275.327 104.971 275.662 104.931 276.104C104.888 276.547 104.824 277.038 104.735 277.579C104.652 278.12 104.538 278.673 104.391 279.239C104.243 279.804 104.065 280.32 103.862 280.787C103.665 281.254 103.432 281.636 103.161 281.931C102.891 282.226 102.578 282.373 102.227 282.373Z" fill="black"/>
<path d="M115.564 282.533C114.621 282.533 113.886 282.404 113.364 282.152C112.838 281.906 112.445 281.559 112.184 281.107C111.919 280.658 111.76 280.111 111.704 279.472C111.655 278.833 111.631 278.12 111.631 277.333C111.631 276.713 111.649 276.086 111.692 275.453C111.732 274.814 111.793 274.135 111.876 273.412C111.686 273.412 111.538 273.419 111.434 273.425C111.326 273.434 111.24 273.437 111.176 273.437C110.749 273.437 110.38 273.348 110.07 273.167C109.75 272.979 109.59 272.687 109.59 272.294C109.59 272.057 109.682 271.848 109.861 271.667C110.042 271.48 110.272 271.32 110.549 271.188C110.835 271.049 111.139 270.942 111.459 270.868C111.784 270.788 112.098 270.73 112.393 270.696C112.393 270.327 112.417 269.918 112.466 269.467C112.522 269.009 112.62 268.588 112.761 268.201C112.9 267.807 113.087 267.482 113.327 267.217C113.573 266.947 113.88 266.812 114.249 266.812C114.461 266.812 114.648 266.873 114.814 266.996C114.986 267.119 115.125 267.279 115.232 267.476C115.337 267.672 115.416 267.89 115.466 268.127C115.521 268.367 115.552 268.6 115.552 268.828C115.552 269.092 115.53 269.362 115.49 269.639C115.447 269.918 115.373 270.266 115.269 270.684C115.496 270.659 115.65 270.644 115.724 270.634C115.804 270.628 115.877 270.622 115.945 270.622C116.172 270.622 116.412 270.644 116.658 270.684C116.904 270.727 117.128 270.791 117.334 270.88C117.537 270.972 117.706 271.095 117.838 271.249C117.976 271.406 118.047 271.59 118.047 271.802C118.047 272.042 117.949 272.254 117.752 272.441C117.561 272.632 117.322 272.792 117.027 272.921C116.732 273.053 116.415 273.154 116.08 273.228C115.751 273.302 115.441 273.351 115.146 273.376C115.072 273.926 115.014 274.43 114.974 274.887C114.94 275.348 114.906 275.809 114.876 276.276C114.842 276.498 114.814 276.728 114.79 276.965C114.771 277.195 114.765 277.432 114.765 277.678C114.765 277.85 114.771 278.056 114.79 278.292C114.805 278.523 114.851 278.744 114.925 278.956C115.005 279.171 115.134 279.355 115.306 279.509C115.478 279.657 115.718 279.73 116.031 279.73C116.218 279.73 116.412 279.715 116.609 279.681C116.805 279.65 117.005 279.632 117.211 279.632C117.555 279.632 117.801 279.752 117.949 279.988C118.102 280.228 118.182 280.535 118.182 280.91C118.182 281.19 118.099 281.433 117.936 281.636C117.77 281.838 117.561 282.004 117.309 282.127C117.054 282.256 116.772 282.355 116.461 282.422C116.148 282.496 115.85 282.533 115.564 282.533Z" fill="black"/>
<path d="M122.383 282.385C121.701 282.385 121.108 282.204 120.601 281.844C120.091 281.485 119.667 281.027 119.323 280.468C118.979 279.912 118.714 279.288 118.536 278.599C118.364 277.911 118.278 277.235 118.278 276.571C118.278 275.868 118.364 275.139 118.536 274.383C118.714 273.631 118.982 272.945 119.335 272.331C119.695 271.71 120.153 271.2 120.712 270.807C121.277 270.413 121.944 270.217 122.715 270.217C123.459 270.217 124.095 270.422 124.621 270.831C125.152 271.243 125.579 271.75 125.899 272.355C126.218 272.955 126.443 273.615 126.575 274.334C126.704 275.056 126.75 275.736 126.71 276.375C126.667 277.081 126.557 277.794 126.378 278.513C126.197 279.236 125.936 279.884 125.592 280.456C125.247 281.021 124.808 281.485 124.276 281.844C123.742 282.204 123.112 282.385 122.383 282.385ZM122.58 273.363C122.374 273.363 122.193 273.471 122.039 273.683C121.892 273.898 121.769 274.156 121.671 274.457C121.572 274.761 121.492 275.084 121.437 275.428C121.388 275.766 121.363 276.061 121.363 276.313C121.363 276.633 121.391 276.983 121.449 277.358C121.505 277.727 121.588 278.068 121.695 278.378C121.8 278.692 121.932 278.953 122.088 279.165C122.242 279.371 122.42 279.472 122.617 279.472C122.829 279.472 123.01 279.374 123.158 279.177C123.312 278.974 123.434 278.719 123.527 278.415C123.625 278.105 123.693 277.77 123.736 277.407C123.776 277.038 123.797 276.694 123.797 276.375C123.797 276.08 123.766 275.757 123.711 275.404C123.662 275.053 123.588 274.725 123.49 274.42C123.391 274.11 123.262 273.855 123.109 273.658C122.952 273.462 122.777 273.363 122.58 273.363Z" fill="black"/>
<path d="M139.955 274.138C139.955 274.205 139.946 274.273 139.93 274.347C139.912 274.42 139.893 274.491 139.869 274.556C139.752 274.86 139.568 275.118 139.316 275.33C139.061 275.536 138.763 275.637 138.418 275.637C137.893 275.637 137.536 275.376 137.349 274.851C137.324 274.786 137.312 274.712 137.312 274.629C137.312 274.54 137.306 274.451 137.3 274.359V273.781C137.266 273.594 137.217 273.446 137.152 273.339C137.085 273.234 136.974 273.179 136.82 273.179C136.59 273.179 136.372 273.323 136.169 273.609C135.963 273.898 135.782 274.236 135.628 274.629C135.471 275.023 135.345 275.425 135.247 275.834C135.155 276.246 135.112 276.577 135.112 276.829C135.112 277.035 135.124 277.281 135.149 277.567C135.18 277.856 135.235 278.132 135.309 278.403C135.388 278.667 135.499 278.894 135.64 279.091C135.788 279.282 135.972 279.374 136.194 279.374C136.421 279.374 136.63 279.306 136.82 279.165C137.017 279.027 137.208 278.864 137.398 278.673C137.57 278.51 137.758 278.341 137.964 278.169C138.166 277.997 138.406 277.911 138.676 277.911C139.002 277.911 139.26 278.034 139.451 278.28C139.648 278.52 139.746 278.79 139.746 279.091C139.746 279.543 139.626 279.964 139.389 280.357C139.15 280.751 138.852 281.092 138.492 281.377C138.13 281.666 137.73 281.887 137.288 282.053C136.851 282.226 136.433 282.312 136.034 282.312C135.312 282.312 134.7 282.13 134.202 281.771C133.711 281.411 133.308 280.956 132.998 280.406C132.694 279.85 132.472 279.248 132.334 278.599C132.202 277.945 132.137 277.321 132.137 276.731C132.137 276.052 132.23 275.318 132.42 274.531C132.607 273.738 132.893 273.001 133.28 272.318C133.665 271.639 134.159 271.074 134.768 270.622C135.373 270.174 136.095 269.946 136.931 269.946C137.453 269.946 137.905 270.063 138.283 270.29C138.658 270.512 138.971 270.807 139.217 271.175C139.463 271.538 139.648 271.947 139.77 272.404C139.9 272.856 139.967 273.299 139.967 273.732C139.967 273.806 139.967 273.876 139.967 273.941C139.967 274.009 139.961 274.073 139.955 274.138Z" fill="black"/>
<path d="M150.141 276.633C150.141 276.863 150.134 277.204 150.128 277.653C150.119 278.096 150.098 278.56 150.067 279.042C150.033 279.527 149.987 279.985 149.932 280.419C149.882 280.855 149.815 281.168 149.735 281.365C149.627 281.62 149.489 281.838 149.317 282.029C149.145 282.216 148.911 282.312 148.616 282.312C148.165 282.312 147.836 282.13 147.633 281.771C147.436 281.411 147.304 280.966 147.24 280.431C147.172 279.899 147.145 279.322 147.154 278.698C147.169 278.068 147.166 277.487 147.141 276.952C147.117 276.421 147.043 275.975 146.92 275.613C146.797 275.253 146.576 275.072 146.256 275.072C145.82 275.072 145.485 275.142 145.249 275.281C145.018 275.422 144.849 275.606 144.745 275.834C144.646 276.064 144.588 276.326 144.572 276.621C144.554 276.909 144.529 277.211 144.499 277.53C144.474 277.844 144.453 278.255 144.437 278.772C144.428 279.288 144.37 279.801 144.265 280.308C144.158 280.818 143.982 281.254 143.737 281.623C143.491 281.983 143.125 282.164 142.643 282.164C142.348 282.164 142.108 282.047 141.93 281.82C141.758 281.599 141.616 281.31 141.512 280.947C141.404 280.588 141.327 280.191 141.278 279.755C141.229 279.312 141.198 278.882 141.192 278.464C141.192 278.046 141.192 277.665 141.192 277.321C141.198 276.971 141.205 276.707 141.205 276.534C141.205 276.264 141.211 275.828 141.229 275.219C141.254 274.605 141.297 273.922 141.364 273.167C141.429 272.414 141.515 271.639 141.622 270.843C141.727 270.041 141.868 269.313 142.04 268.656C142.219 267.992 142.434 267.457 142.68 267.045C142.925 266.637 143.211 266.437 143.54 266.443C143.752 266.461 143.936 266.554 144.093 266.726C144.247 266.898 144.376 267.125 144.474 267.402C144.572 267.672 144.652 267.967 144.72 268.287C144.785 268.606 144.834 268.923 144.867 269.233C144.898 269.547 144.92 269.836 144.929 270.106C144.935 270.37 144.941 270.573 144.941 270.721C144.941 271.065 144.932 271.415 144.917 271.765C144.907 272.109 144.892 272.454 144.867 272.798C145.169 272.389 145.574 272.054 146.084 271.79C146.601 271.519 147.117 271.384 147.633 271.384C148.303 271.384 148.807 271.569 149.145 271.937C149.489 272.3 149.729 272.749 149.87 273.289C150.018 273.83 150.098 274.405 150.116 275.01C150.131 275.619 150.141 276.16 150.141 276.633Z" fill="black"/>
<path d="M159.923 278.255C159.923 278.707 159.779 279.149 159.493 279.583C159.204 280.019 158.845 280.403 158.411 280.738C157.975 281.076 157.514 281.35 157.022 281.562C156.531 281.768 156.079 281.869 155.67 281.869C154.957 281.869 154.324 281.694 153.777 281.34C153.227 280.99 152.763 280.538 152.388 279.988C152.02 279.441 151.737 278.839 151.54 278.182C151.344 277.527 151.245 276.885 151.245 276.252C151.245 275.588 151.337 274.881 151.528 274.125C151.715 273.363 151.998 272.663 152.376 272.023C152.76 271.384 153.24 270.853 153.814 270.425C154.395 270.001 155.083 269.786 155.879 269.786C156.337 269.786 156.77 269.866 157.182 270.02C157.591 270.167 157.947 270.382 158.251 270.659C158.562 270.939 158.811 271.274 159.001 271.667C159.189 272.054 159.284 272.484 159.284 272.958C159.284 273.581 159.149 274.168 158.878 274.715C158.614 275.265 158.264 275.742 157.821 276.141C157.379 276.534 156.869 276.854 156.297 277.1C155.732 277.346 155.148 277.487 154.552 277.518C154.601 277.905 154.751 278.182 155.006 278.354C155.268 278.526 155.578 278.612 155.941 278.612C156.211 278.612 156.472 278.547 156.727 278.415C156.979 278.277 157.225 278.126 157.465 277.96C157.701 277.797 157.935 277.65 158.165 277.518C158.402 277.379 158.639 277.309 158.878 277.309C159.149 277.309 159.388 277.401 159.604 277.579C159.816 277.751 159.923 277.979 159.923 278.255ZM156.678 273.363C156.678 273.185 156.632 273.004 156.543 272.822C156.451 272.635 156.303 272.54 156.1 272.54C155.812 272.54 155.566 272.62 155.363 272.773C155.166 272.921 154.997 273.114 154.859 273.351C154.727 273.581 154.625 273.83 154.552 274.101C154.478 274.365 154.435 274.611 154.429 274.838C154.616 274.798 154.837 274.746 155.093 274.678C155.354 274.614 155.6 274.525 155.83 274.408C156.067 274.294 156.266 274.15 156.432 273.978C156.595 273.806 156.678 273.603 156.678 273.363Z" fill="black"/>
<path d="M168.13 274.138C168.13 274.205 168.12 274.273 168.105 274.347C168.087 274.42 168.068 274.491 168.044 274.556C167.927 274.86 167.742 275.118 167.49 275.33C167.235 275.536 166.937 275.637 166.593 275.637C166.068 275.637 165.711 275.376 165.524 274.851C165.499 274.786 165.487 274.712 165.487 274.629C165.487 274.54 165.481 274.451 165.475 274.359V273.781C165.441 273.594 165.392 273.446 165.327 273.339C165.26 273.234 165.149 273.179 164.995 273.179C164.765 273.179 164.547 273.323 164.344 273.609C164.138 273.898 163.957 274.236 163.803 274.629C163.646 275.023 163.52 275.425 163.422 275.834C163.33 276.246 163.287 276.577 163.287 276.829C163.287 277.035 163.299 277.281 163.324 277.567C163.354 277.856 163.41 278.132 163.483 278.403C163.563 278.667 163.674 278.894 163.815 279.091C163.963 279.282 164.147 279.374 164.368 279.374C164.596 279.374 164.805 279.306 164.995 279.165C165.192 279.027 165.382 278.864 165.573 278.673C165.745 278.51 165.932 278.341 166.138 278.169C166.341 277.997 166.581 277.911 166.851 277.911C167.177 277.911 167.435 278.034 167.626 278.28C167.822 278.52 167.921 278.79 167.921 279.091C167.921 279.543 167.801 279.964 167.564 280.357C167.325 280.751 167.026 281.092 166.667 281.377C166.304 281.666 165.905 281.887 165.462 282.053C165.026 282.226 164.608 282.312 164.209 282.312C163.486 282.312 162.875 282.13 162.377 281.771C161.885 281.411 161.483 280.956 161.173 280.406C160.868 279.85 160.647 279.248 160.509 278.599C160.377 277.945 160.312 277.321 160.312 276.731C160.312 276.052 160.404 275.318 160.595 274.531C160.782 273.738 161.068 273.001 161.455 272.318C161.839 271.639 162.334 271.074 162.943 270.622C163.548 270.174 164.27 269.946 165.106 269.946C165.628 269.946 166.08 270.063 166.458 270.29C166.833 270.512 167.146 270.807 167.392 271.175C167.638 271.538 167.822 271.947 167.945 272.404C168.074 272.856 168.142 273.299 168.142 273.732C168.142 273.806 168.142 273.876 168.142 273.941C168.142 274.009 168.136 274.073 168.13 274.138Z" fill="black"/>
<path d="M178.106 271.065C178.106 271.433 178.008 271.811 177.811 272.196C177.621 272.583 177.393 272.967 177.123 273.351C176.853 273.729 176.564 274.088 176.263 274.433C175.958 274.771 175.697 275.078 175.476 275.354C175.663 275.649 175.897 276.04 176.177 276.522C176.453 277.008 176.72 277.524 176.976 278.071C177.227 278.621 177.443 279.153 177.615 279.669C177.793 280.185 177.885 280.621 177.885 280.972C177.885 281.251 177.799 281.51 177.627 281.746C177.455 281.974 177.215 282.09 176.914 282.09C176.684 282.09 176.45 281.995 176.213 281.808C175.983 281.611 175.749 281.359 175.513 281.046C175.282 280.726 175.061 280.376 174.849 279.988C174.634 279.604 174.437 279.226 174.259 278.858C174.087 278.483 173.927 278.129 173.78 277.801C173.638 277.475 173.534 277.211 173.46 277.014C173.288 277.186 173.104 277.33 172.907 277.444C172.71 277.561 172.52 277.69 172.342 277.837C172.342 278.117 172.329 278.51 172.305 279.017C172.286 279.518 172.225 280.013 172.12 280.505C172.022 280.996 171.856 281.427 171.629 281.795C171.407 282.164 171.079 282.348 170.645 282.348C170.292 282.348 170.022 282.189 169.834 281.869C169.653 281.559 169.518 281.193 169.428 280.775C169.345 280.357 169.296 279.933 169.281 279.497C169.262 279.063 169.256 278.735 169.256 278.513C169.256 277.53 169.281 276.547 169.33 275.563C169.385 274.574 169.422 273.584 169.441 272.601C169.441 272.374 169.444 272.079 169.453 271.716C169.459 271.347 169.481 270.951 169.514 270.524C169.554 270.1 169.616 269.67 169.699 269.233C169.779 268.791 169.896 268.394 170.043 268.041C170.191 267.681 170.378 267.396 170.608 267.181C170.845 266.959 171.128 266.849 171.457 266.849C171.693 266.849 171.893 266.941 172.059 267.119C172.231 267.3 172.366 267.531 172.464 267.807C172.563 268.087 172.637 268.397 172.686 268.742C172.735 269.086 172.766 269.43 172.784 269.774C172.809 270.112 172.821 270.426 172.821 270.721C172.821 271.016 172.821 271.249 172.821 271.421C172.821 271.544 172.815 271.722 172.809 271.95C172.799 272.18 172.79 272.423 172.784 272.675C172.775 272.93 172.772 273.163 172.772 273.376C172.772 273.591 172.787 273.744 172.821 273.843C172.91 273.843 173.048 273.753 173.239 273.572C173.426 273.394 173.644 273.163 173.89 272.884C174.136 272.598 174.4 272.3 174.689 271.987C174.975 271.676 175.267 271.381 175.562 271.102C175.863 270.825 176.158 270.595 176.447 270.413C176.742 270.235 177.015 270.143 177.271 270.143C177.541 270.143 177.744 270.238 177.885 270.426C178.033 270.607 178.106 270.819 178.106 271.065Z" fill="black"/>
<path d="M193.565 282.066C193.138 282.066 192.754 281.838 192.41 281.39C192.072 280.941 191.777 280.4 191.525 279.767C191.269 279.128 191.061 278.477 190.898 277.813C190.732 277.149 190.609 276.596 190.529 276.153C190.421 276.424 190.277 276.753 190.099 277.137C189.917 277.524 189.708 277.93 189.472 278.354C189.241 278.781 188.992 279.211 188.722 279.644C188.458 280.071 188.184 280.462 187.899 280.812C187.61 281.156 187.324 281.436 187.038 281.648C186.758 281.86 186.485 281.967 186.215 281.967C185.852 281.967 185.539 281.795 185.268 281.451C184.998 281.101 184.767 280.646 184.58 280.087C184.389 279.531 184.229 278.913 184.1 278.231C183.977 277.552 183.882 276.872 183.818 276.19C183.75 275.511 183.701 274.881 183.67 274.297C183.646 273.707 183.633 273.237 183.633 272.884C183.633 272.549 183.649 272.229 183.682 271.925C183.722 271.615 183.793 271.341 183.891 271.102C183.99 270.865 184.131 270.677 184.322 270.536C184.518 270.398 184.776 270.327 185.096 270.327C185.397 270.327 185.661 270.444 185.883 270.671C186.104 270.893 186.288 271.188 186.436 271.556C186.583 271.919 186.7 272.328 186.792 272.786C186.891 273.246 186.964 273.714 187.014 274.187C187.069 274.663 187.106 275.127 187.124 275.576C187.139 276.018 187.155 276.399 187.173 276.719C187.253 276.433 187.37 276.089 187.517 275.686C187.665 275.278 187.825 274.844 187.997 274.383C188.169 273.926 188.356 273.471 188.562 273.019C188.765 272.57 188.971 272.165 189.177 271.802C189.389 271.443 189.595 271.151 189.791 270.929C189.988 270.702 190.179 270.585 190.369 270.585H190.394C190.63 270.585 190.861 270.702 191.082 270.929C191.309 271.151 191.531 271.443 191.746 271.802C191.958 272.165 192.158 272.573 192.348 273.031C192.536 273.492 192.708 273.959 192.864 274.433C193.027 274.9 193.165 275.361 193.282 275.809C193.405 276.252 193.507 276.633 193.59 276.952C193.596 276.568 193.614 276.135 193.639 275.649C193.669 275.158 193.725 274.666 193.799 274.174C193.872 273.683 193.971 273.203 194.094 272.736C194.223 272.269 194.379 271.857 194.561 271.495C194.748 271.126 194.979 270.831 195.249 270.61C195.525 270.389 195.845 270.278 196.208 270.278C196.576 270.278 196.85 270.41 197.031 270.671C197.209 270.936 197.302 271.249 197.302 271.618C197.302 272.02 197.252 272.552 197.154 273.216C197.056 273.879 196.914 274.605 196.736 275.391C196.564 276.172 196.358 276.959 196.122 277.751C195.891 278.538 195.636 279.251 195.36 279.89C195.08 280.529 194.785 281.055 194.475 281.463C194.17 281.863 193.866 282.066 193.565 282.066Z" fill="black"/>
<path d="M207.469 276.633C207.469 276.863 207.462 277.204 207.456 277.653C207.447 278.096 207.426 278.56 207.395 279.042C207.361 279.527 207.315 279.985 207.26 280.419C207.21 280.855 207.143 281.168 207.063 281.365C206.955 281.62 206.817 281.838 206.645 282.029C206.473 282.216 206.239 282.312 205.944 282.312C205.493 282.312 205.164 282.13 204.961 281.771C204.764 281.411 204.632 280.966 204.568 280.431C204.5 279.899 204.473 279.322 204.482 278.698C204.497 278.068 204.494 277.487 204.469 276.952C204.445 276.421 204.371 275.975 204.248 275.613C204.125 275.253 203.904 275.072 203.584 275.072C203.148 275.072 202.813 275.142 202.577 275.281C202.346 275.422 202.177 275.606 202.073 275.834C201.974 276.064 201.916 276.326 201.9 276.621C201.882 276.909 201.857 277.211 201.827 277.53C201.802 277.844 201.781 278.255 201.765 278.772C201.756 279.288 201.698 279.801 201.593 280.308C201.486 280.818 201.31 281.254 201.065 281.623C200.819 281.983 200.453 282.164 199.971 282.164C199.676 282.164 199.436 282.047 199.258 281.82C199.086 281.599 198.944 281.31 198.84 280.947C198.732 280.588 198.655 280.191 198.606 279.755C198.557 279.312 198.526 278.882 198.52 278.464C198.52 278.046 198.52 277.665 198.52 277.321C198.526 276.971 198.533 276.707 198.533 276.534C198.533 276.264 198.539 275.828 198.557 275.219C198.582 274.605 198.625 273.922 198.692 273.167C198.757 272.414 198.843 271.639 198.95 270.843C199.055 270.041 199.196 269.313 199.368 268.656C199.547 267.992 199.762 267.457 200.008 267.045C200.253 266.637 200.539 266.437 200.868 266.443C201.08 266.461 201.264 266.554 201.421 266.726C201.575 266.898 201.704 267.125 201.802 267.402C201.9 267.672 201.98 267.967 202.048 268.287C202.113 268.606 202.162 268.923 202.195 269.233C202.226 269.547 202.248 269.836 202.257 270.106C202.263 270.37 202.269 270.573 202.269 270.721C202.269 271.065 202.26 271.415 202.245 271.765C202.235 272.109 202.22 272.454 202.195 272.798C202.497 272.389 202.902 272.054 203.412 271.79C203.929 271.519 204.445 271.384 204.961 271.384C205.631 271.384 206.135 271.569 206.473 271.937C206.817 272.3 207.057 272.749 207.198 273.289C207.346 273.83 207.426 274.405 207.444 275.01C207.459 275.619 207.469 276.16 207.469 276.633Z" fill="black"/>
<path d="M217.362 278.993C217.362 279.232 217.353 279.543 217.337 279.927C217.319 280.314 217.263 280.689 217.165 281.058C217.073 281.427 216.925 281.743 216.723 282.004C216.526 282.275 216.246 282.41 215.887 282.41C215.395 282.41 215.014 282.25 214.744 281.931C214.479 281.611 214.356 281.211 214.375 280.726C213.948 281.104 213.465 281.399 212.925 281.611C212.384 281.823 211.834 281.931 211.277 281.931C210.89 281.931 210.521 281.835 210.171 281.648C209.827 281.46 209.52 281.224 209.249 280.935C208.985 280.64 208.773 280.308 208.61 279.939C208.453 279.571 208.377 279.208 208.377 278.845C208.377 278.206 208.573 277.65 208.967 277.174C209.36 276.691 209.842 276.282 210.417 275.944C210.989 275.61 211.597 275.342 212.236 275.146C212.881 274.943 213.459 274.807 213.969 274.74C213.969 274.675 213.972 274.617 213.982 274.568C213.988 274.512 213.994 274.445 213.994 274.371C213.994 273.962 213.877 273.631 213.65 273.376C213.428 273.124 213.109 272.994 212.691 272.994C212.362 272.994 212.076 273.053 211.831 273.167C211.591 273.283 211.367 273.409 211.155 273.548C210.939 273.689 210.727 273.815 210.515 273.929C210.3 274.045 210.064 274.101 209.802 274.101C209.507 274.101 209.252 274.009 209.04 273.818C208.834 273.631 208.733 273.388 208.733 273.093C208.733 272.66 208.862 272.263 209.126 271.901C209.388 271.541 209.716 271.237 210.11 270.991C210.503 270.745 210.927 270.555 211.388 270.413C211.846 270.275 212.267 270.204 212.654 270.204C213.014 270.204 213.373 270.25 213.736 270.339C214.095 270.422 214.436 270.555 214.756 270.733C215.076 270.914 215.361 271.135 215.616 271.397C215.878 271.652 216.087 271.95 216.243 272.294C216.489 272.795 216.68 273.32 216.821 273.867C216.968 274.417 217.082 274.983 217.165 275.563C217.245 276.147 217.3 276.728 217.325 277.309C217.35 277.883 217.362 278.446 217.362 278.993ZM214.166 278.354L214.117 276.989C214.083 276.989 214.055 276.989 214.031 276.989C214.006 276.983 213.982 276.977 213.957 276.977C213.776 276.977 213.554 277.023 213.293 277.112C213.038 277.195 212.792 277.315 212.556 277.469C212.316 277.616 212.113 277.785 211.941 277.973C211.775 278.163 211.695 278.354 211.695 278.55C211.695 278.741 211.76 278.867 211.892 278.931C212.021 278.999 212.178 279.03 212.359 279.03C212.645 279.03 212.955 278.956 213.293 278.808C213.628 278.655 213.92 278.501 214.166 278.354Z" fill="black"/>
<path d="M223.211 282.533C222.268 282.533 221.533 282.404 221.011 282.152C220.485 281.906 220.092 281.559 219.831 281.107C219.567 280.658 219.407 280.111 219.352 279.472C219.302 278.833 219.278 278.12 219.278 277.333C219.278 276.713 219.296 276.086 219.339 275.453C219.379 274.814 219.441 274.135 219.524 273.412C219.333 273.412 219.186 273.419 219.081 273.425C218.974 273.434 218.888 273.437 218.823 273.437C218.396 273.437 218.027 273.348 217.717 273.167C217.397 272.979 217.237 272.687 217.237 272.294C217.237 272.057 217.33 271.848 217.508 271.667C217.689 271.48 217.92 271.32 218.196 271.188C218.482 271.049 218.786 270.942 219.106 270.868C219.431 270.788 219.745 270.73 220.04 270.696C220.04 270.327 220.065 269.918 220.114 269.467C220.169 269.009 220.267 268.588 220.409 268.201C220.547 267.807 220.734 267.482 220.974 267.217C221.22 266.947 221.527 266.812 221.896 266.812C222.108 266.812 222.295 266.873 222.461 266.996C222.633 267.119 222.772 267.279 222.879 267.476C222.984 267.672 223.064 267.89 223.113 268.127C223.168 268.367 223.199 268.6 223.199 268.828C223.199 269.092 223.177 269.362 223.137 269.639C223.094 269.918 223.021 270.266 222.916 270.684C223.144 270.659 223.297 270.644 223.371 270.634C223.451 270.628 223.525 270.622 223.592 270.622C223.82 270.622 224.059 270.644 224.305 270.684C224.551 270.727 224.775 270.791 224.981 270.88C225.184 270.972 225.353 271.095 225.485 271.249C225.623 271.406 225.694 271.59 225.694 271.802C225.694 272.042 225.596 272.254 225.399 272.441C225.209 272.632 224.969 272.792 224.674 272.921C224.379 273.053 224.062 273.154 223.727 273.228C223.399 273.302 223.088 273.351 222.793 273.376C222.72 273.926 222.661 274.43 222.621 274.887C222.587 275.348 222.554 275.809 222.523 276.276C222.489 276.498 222.461 276.728 222.437 276.965C222.418 277.195 222.412 277.432 222.412 277.678C222.412 277.85 222.418 278.056 222.437 278.292C222.452 278.523 222.498 278.744 222.572 278.956C222.652 279.171 222.781 279.355 222.953 279.509C223.125 279.657 223.365 279.73 223.678 279.73C223.866 279.73 224.059 279.715 224.256 279.681C224.453 279.65 224.652 279.632 224.858 279.632C225.202 279.632 225.448 279.752 225.596 279.988C225.749 280.228 225.829 280.535 225.829 280.91C225.829 281.19 225.746 281.433 225.583 281.636C225.418 281.838 225.209 282.004 224.957 282.127C224.702 282.256 224.419 282.355 224.108 282.422C223.795 282.496 223.497 282.533 223.211 282.533Z" fill="black"/>
<path d="M228.212 268.889C228.212 269.086 228.193 269.393 228.162 269.811C228.138 270.229 228.092 270.653 228.027 271.077C227.96 271.495 227.858 271.861 227.72 272.171C227.588 272.484 227.425 272.638 227.228 272.638C227.105 272.638 226.998 272.561 226.909 272.404C226.816 272.242 226.737 272.042 226.663 271.802C226.589 271.566 226.521 271.298 226.466 271.003C226.417 270.708 226.374 270.422 226.343 270.143C226.309 269.866 226.285 269.614 226.269 269.393C226.251 269.172 226.245 269.009 226.245 268.901C226.245 268.772 226.251 268.594 226.269 268.373C226.285 268.145 226.322 267.918 226.38 267.697C226.435 267.476 226.521 267.291 226.638 267.144C226.752 266.99 226.915 266.91 227.13 266.91C227.366 266.91 227.554 266.981 227.695 267.119C227.834 267.26 227.944 267.432 228.027 267.635C228.107 267.841 228.156 268.059 228.175 268.287C228.199 268.508 228.212 268.711 228.212 268.889Z" fill="black"/>
<path d="M235.278 270.819C235.278 271.206 235.146 271.492 234.885 271.679C234.63 271.87 234.344 272.045 234.025 272.208C233.705 272.374 233.413 272.57 233.152 272.798C232.888 273.028 232.759 273.369 232.759 273.818C232.759 274.058 232.814 274.26 232.931 274.433C233.044 274.605 233.183 274.764 233.349 274.912C233.511 275.053 233.693 275.195 233.889 275.342C234.092 275.484 234.277 275.646 234.442 275.834C234.615 276.024 234.753 276.252 234.86 276.522C234.974 276.786 235.032 277.109 235.032 277.493C235.032 278.052 234.888 278.599 234.602 279.14C234.323 279.681 233.957 280.16 233.508 280.578C233.066 280.996 232.562 281.334 231.996 281.586C231.437 281.838 230.89 281.967 230.349 281.967C230.119 281.967 229.888 281.949 229.661 281.918C229.44 281.884 229.237 281.823 229.059 281.734C228.877 281.635 228.727 281.506 228.604 281.34C228.481 281.168 228.42 280.953 228.42 280.689C228.42 280.314 228.493 280.022 228.641 279.816C228.788 279.614 228.976 279.454 229.206 279.337C229.434 279.214 229.676 279.122 229.931 279.054C230.193 278.99 230.435 278.907 230.657 278.808C230.884 278.704 231.075 278.572 231.222 278.415C231.37 278.252 231.443 278.022 231.443 277.727C231.443 277.45 231.333 277.161 231.111 276.866C230.89 276.565 230.644 276.246 230.374 275.908C230.11 275.563 229.87 275.201 229.649 274.814C229.434 274.43 229.329 274.002 229.329 273.535C229.329 272.964 229.443 272.435 229.673 271.95C229.91 271.467 230.22 271.046 230.607 270.684C231.001 270.324 231.449 270.041 231.96 269.835C232.467 269.633 232.998 269.528 233.557 269.528C233.77 269.528 233.978 269.55 234.184 269.59C234.396 269.623 234.581 269.694 234.737 269.799C234.9 269.897 235.032 270.029 235.131 270.192C235.229 270.358 235.278 270.567 235.278 270.819Z" fill="black"/>
<path d="M245.535 282.533C244.592 282.533 243.858 282.404 243.335 282.152C242.81 281.906 242.416 281.559 242.155 281.107C241.891 280.658 241.731 280.111 241.676 279.472C241.627 278.833 241.602 278.12 241.602 277.333C241.602 276.713 241.62 276.086 241.664 275.453C241.703 274.814 241.765 274.135 241.848 273.412C241.657 273.412 241.51 273.419 241.405 273.425C241.298 273.434 241.212 273.437 241.147 273.437C240.72 273.437 240.351 273.348 240.041 273.167C239.721 272.979 239.562 272.687 239.562 272.294C239.562 272.057 239.654 271.848 239.832 271.667C240.013 271.48 240.244 271.32 240.52 271.188C240.806 271.049 241.11 270.942 241.43 270.868C241.756 270.788 242.069 270.73 242.364 270.696C242.364 270.327 242.389 269.918 242.438 269.467C242.493 269.009 242.592 268.588 242.733 268.201C242.871 267.807 243.059 267.482 243.298 267.217C243.544 266.947 243.851 266.812 244.22 266.812C244.432 266.812 244.62 266.873 244.786 266.996C244.958 267.119 245.096 267.279 245.204 267.476C245.308 267.672 245.388 267.89 245.437 268.127C245.492 268.367 245.523 268.6 245.523 268.828C245.523 269.092 245.502 269.362 245.462 269.639C245.419 269.918 245.345 270.266 245.24 270.684C245.468 270.659 245.621 270.644 245.695 270.634C245.775 270.628 245.849 270.622 245.916 270.622C246.144 270.622 246.384 270.644 246.629 270.684C246.875 270.727 247.1 270.791 247.305 270.88C247.508 270.972 247.677 271.095 247.809 271.249C247.948 271.406 248.018 271.59 248.018 271.802C248.018 272.042 247.92 272.254 247.723 272.441C247.533 272.632 247.293 272.792 246.998 272.921C246.703 273.053 246.387 273.154 246.052 273.228C245.723 273.302 245.412 273.351 245.117 273.376C245.044 273.926 244.985 274.43 244.945 274.887C244.912 275.348 244.878 275.809 244.847 276.276C244.813 276.498 244.786 276.728 244.761 276.965C244.743 277.195 244.736 277.432 244.736 277.678C244.736 277.85 244.743 278.056 244.761 278.292C244.776 278.523 244.822 278.744 244.896 278.956C244.976 279.171 245.105 279.355 245.277 279.509C245.449 279.657 245.689 279.73 246.002 279.73C246.19 279.73 246.384 279.715 246.58 279.681C246.777 279.65 246.977 279.632 247.182 279.632C247.527 279.632 247.772 279.752 247.92 279.988C248.074 280.228 248.154 280.535 248.154 280.91C248.154 281.19 248.071 281.433 247.908 281.636C247.742 281.838 247.533 282.004 247.281 282.127C247.026 282.256 246.743 282.355 246.433 282.422C246.119 282.496 245.821 282.533 245.535 282.533Z" fill="black"/>
<path d="M257.628 276.633C257.628 276.863 257.622 277.204 257.616 277.653C257.607 278.096 257.585 278.56 257.554 279.042C257.52 279.527 257.474 279.985 257.419 280.419C257.37 280.855 257.302 281.168 257.222 281.365C257.115 281.62 256.977 281.838 256.804 282.029C256.632 282.216 256.399 282.312 256.104 282.312C255.652 282.312 255.323 282.13 255.121 281.771C254.924 281.411 254.792 280.966 254.727 280.431C254.66 279.899 254.632 279.322 254.641 278.698C254.657 278.068 254.653 277.487 254.629 276.952C254.604 276.421 254.531 275.975 254.408 275.613C254.285 275.253 254.063 275.072 253.744 275.072C253.308 275.072 252.973 275.142 252.736 275.281C252.505 275.422 252.336 275.606 252.232 275.834C252.134 276.064 252.075 276.326 252.06 276.621C252.041 276.909 252.017 277.211 251.986 277.53C251.962 277.844 251.94 278.255 251.925 278.772C251.915 279.288 251.857 279.801 251.753 280.308C251.645 280.818 251.47 281.254 251.224 281.623C250.978 281.983 250.613 282.164 250.13 282.164C249.835 282.164 249.595 282.047 249.417 281.82C249.245 281.599 249.104 281.31 248.999 280.947C248.892 280.588 248.815 280.191 248.766 279.755C248.717 279.312 248.686 278.882 248.68 278.464C248.68 278.046 248.68 277.665 248.68 277.321C248.686 276.971 248.692 276.707 248.692 276.534C248.692 276.264 248.698 275.828 248.717 275.219C248.741 274.605 248.784 273.922 248.852 273.167C248.916 272.414 249.002 271.639 249.11 270.843C249.214 270.041 249.356 269.313 249.528 268.656C249.706 267.992 249.921 267.457 250.167 267.045C250.413 266.637 250.699 266.437 251.027 266.443C251.239 266.461 251.424 266.554 251.581 266.726C251.734 266.898 251.863 267.125 251.962 267.402C252.06 267.672 252.14 267.967 252.207 268.287C252.272 268.606 252.321 268.923 252.355 269.233C252.386 269.547 252.407 269.836 252.416 270.106C252.423 270.37 252.429 270.573 252.429 270.721C252.429 271.065 252.419 271.415 252.404 271.765C252.395 272.109 252.379 272.454 252.355 272.798C252.656 272.389 253.062 272.054 253.572 271.79C254.088 271.519 254.604 271.384 255.121 271.384C255.79 271.384 256.294 271.569 256.632 271.937C256.977 272.3 257.216 272.749 257.358 273.289C257.505 273.83 257.585 274.405 257.603 275.01C257.619 275.619 257.628 276.16 257.628 276.633Z" fill="black"/>
<path d="M267.411 278.255C267.411 278.707 267.266 279.149 266.98 279.583C266.692 280.019 266.332 280.403 265.899 280.738C265.462 281.076 265.001 281.35 264.51 281.562C264.018 281.768 263.566 281.869 263.158 281.869C262.445 281.869 261.812 281.694 261.265 281.34C260.715 280.99 260.251 280.538 259.876 279.988C259.507 279.441 259.224 278.839 259.028 278.182C258.831 277.527 258.733 276.885 258.733 276.252C258.733 275.588 258.825 274.881 259.015 274.125C259.203 273.363 259.486 272.663 259.863 272.023C260.248 271.384 260.727 270.853 261.302 270.425C261.882 270.001 262.571 269.786 263.367 269.786C263.824 269.786 264.258 269.866 264.67 270.02C265.078 270.167 265.435 270.382 265.739 270.659C266.049 270.939 266.298 271.274 266.489 271.667C266.676 272.054 266.771 272.484 266.771 272.958C266.771 273.581 266.636 274.168 266.366 274.715C266.102 275.265 265.751 275.742 265.309 276.141C264.866 276.534 264.356 276.854 263.785 277.1C263.219 277.346 262.635 277.487 262.039 277.518C262.088 277.905 262.239 278.182 262.494 278.354C262.755 278.526 263.065 278.612 263.428 278.612C263.698 278.612 263.96 278.547 264.215 278.415C264.467 278.277 264.713 278.126 264.952 277.96C265.189 277.797 265.422 277.65 265.653 277.518C265.889 277.379 266.126 277.309 266.366 277.309C266.636 277.309 266.876 277.401 267.091 277.579C267.303 277.751 267.411 277.979 267.411 278.255ZM264.166 273.363C264.166 273.185 264.119 273.004 264.03 272.822C263.938 272.635 263.791 272.54 263.588 272.54C263.299 272.54 263.053 272.62 262.85 272.773C262.654 272.921 262.485 273.114 262.346 273.351C262.214 273.581 262.113 273.83 262.039 274.101C261.965 274.365 261.922 274.611 261.916 274.838C262.104 274.798 262.325 274.746 262.58 274.678C262.841 274.614 263.087 274.525 263.317 274.408C263.554 274.294 263.754 274.15 263.92 273.978C264.083 273.806 264.166 273.603 264.166 273.363Z" fill="black"/>
<path d="M275.138 274.334C274.947 274.353 274.784 274.334 274.646 274.285C274.514 274.236 274.382 274.187 274.253 274.138C274.136 274.082 274.019 274.033 273.896 273.99C273.773 273.941 273.638 273.926 273.491 273.941C273.226 273.95 272.993 274.024 272.79 274.162C272.584 274.294 272.397 274.463 272.225 274.666C272.059 274.863 271.917 275.084 271.794 275.33C271.678 275.576 271.589 275.818 271.524 276.055C271.481 276.212 271.45 276.455 271.426 276.78C271.407 277.109 271.401 277.462 271.401 277.837C271.383 278.225 271.377 278.587 271.377 278.931C271.377 279.276 271.364 279.552 271.34 279.755C271.321 279.97 271.284 280.219 271.229 280.505C271.18 280.784 271.097 281.052 270.983 281.304C270.876 281.559 270.728 281.771 270.541 281.943C270.35 282.121 270.111 282.213 269.816 282.213C269.594 282.213 269.398 282.143 269.226 282.004C269.06 281.872 268.921 281.697 268.808 281.476C268.7 281.254 268.611 281.002 268.537 280.714C268.463 280.419 268.405 280.117 268.365 279.804C268.322 279.484 268.291 279.165 268.267 278.845C268.248 278.526 268.236 278.228 268.23 277.948C268.221 277.662 268.221 277.401 268.23 277.161C268.236 276.916 268.242 276.719 268.242 276.571C268.224 276.104 268.199 275.637 268.168 275.17C268.135 274.697 268.119 274.224 268.119 273.757C268.119 273.462 268.132 273.139 268.156 272.786C268.187 272.426 268.261 272.091 268.377 271.778C268.5 271.458 268.675 271.194 268.906 270.979C269.143 270.767 269.465 270.659 269.877 270.659C270.104 270.659 270.298 270.733 270.455 270.88C270.618 271.028 270.75 271.209 270.848 271.421C270.946 271.636 271.02 271.861 271.069 272.097C271.125 272.337 271.161 272.558 271.18 272.761C271.499 272.239 271.856 271.814 272.249 271.495C272.649 271.169 273.171 270.991 273.81 270.966C274.13 270.951 274.443 270.979 274.757 271.052C275.076 271.126 275.362 271.246 275.617 271.409C275.878 271.575 276.09 271.79 276.256 272.06C276.428 272.325 276.518 272.635 276.527 272.994C276.557 273.422 276.432 273.75 276.146 273.978C275.866 274.208 275.531 274.328 275.138 274.334Z" fill="black"/>
<path d="M285.202 278.255C285.202 278.707 285.058 279.149 284.772 279.583C284.483 280.019 284.123 280.403 283.69 280.738C283.254 281.076 282.793 281.35 282.301 281.562C281.81 281.768 281.358 281.869 280.949 281.869C280.236 281.869 279.603 281.694 279.056 281.34C278.506 280.99 278.042 280.538 277.667 279.988C277.299 279.441 277.016 278.839 276.819 278.182C276.623 277.527 276.524 276.885 276.524 276.252C276.524 275.588 276.616 274.881 276.807 274.125C276.994 273.363 277.277 272.663 277.655 272.023C278.039 271.384 278.518 270.853 279.093 270.425C279.674 270.001 280.362 269.786 281.158 269.786C281.616 269.786 282.049 269.866 282.461 270.02C282.87 270.167 283.226 270.382 283.53 270.659C283.841 270.939 284.09 271.274 284.28 271.667C284.468 272.054 284.563 272.484 284.563 272.958C284.563 273.581 284.428 274.168 284.157 274.715C283.893 275.265 283.543 275.742 283.1 276.141C282.658 276.534 282.148 276.854 281.576 277.1C281.011 277.346 280.427 277.487 279.831 277.518C279.88 277.905 280.03 278.182 280.285 278.354C280.547 278.526 280.857 278.612 281.22 278.612C281.49 278.612 281.751 278.547 282.006 278.415C282.258 278.277 282.504 278.126 282.744 277.96C282.98 277.797 283.214 277.65 283.444 277.518C283.681 277.379 283.918 277.309 284.157 277.309C284.428 277.309 284.667 277.401 284.883 277.579C285.095 277.751 285.202 277.979 285.202 278.255ZM281.957 273.363C281.957 273.185 281.911 273.004 281.822 272.822C281.73 272.635 281.582 272.54 281.379 272.54C281.091 272.54 280.845 272.62 280.642 272.773C280.445 272.921 280.276 273.114 280.138 273.351C280.006 273.581 279.904 273.83 279.831 274.101C279.757 274.365 279.714 274.611 279.708 274.838C279.895 274.798 280.116 274.746 280.371 274.678C280.633 274.614 280.878 274.525 281.109 274.408C281.346 274.294 281.545 274.15 281.711 273.978C281.874 273.806 281.957 273.603 281.957 273.363Z" fill="black"/>
<path d="M82.4895 249.039C82.3328 249.039 82.2068 249.088 82.1084 249.186C82.0101 249.285 81.9609 249.402 81.9609 249.531V257.889C81.9609 258.242 81.8687 258.491 81.6905 258.639C81.5184 258.78 81.2419 258.848 80.867 258.848H75.348C75.0192 258.848 74.7887 258.783 74.6597 258.651C74.5275 258.522 74.463 258.313 74.463 258.024V235.088C74.463 234.851 74.5153 234.667 74.6228 234.535C74.7365 234.406 74.8932 234.338 75.0899 234.338H81.3709C81.543 234.338 81.6813 234.4 81.7888 234.523C81.9025 234.639 81.9609 234.805 81.9609 235.026V242.696C81.9609 243.133 82.1576 243.348 82.5509 243.348H88.1068C88.5001 243.348 88.6968 243.133 88.6968 242.696V235.026C88.6968 234.805 88.749 234.639 88.8566 234.523C88.9703 234.4 89.1178 234.338 89.2991 234.338H95.5678C95.7706 234.338 95.9273 234.406 96.0349 234.535C96.1394 234.667 96.1947 234.851 96.1947 235.088V258.024C96.1947 258.313 96.1271 258.522 95.998 258.651C95.8659 258.783 95.6354 258.848 95.3097 258.848H89.7907C89.4128 258.848 89.1331 258.78 88.9549 258.639C88.7828 258.491 88.6968 258.242 88.6968 257.889V249.531C88.6968 249.402 88.6476 249.285 88.5493 249.186C88.4509 249.088 88.3219 249.039 88.1682 249.039H82.4895Z" fill="#DB0007"/>
<path d="M120.523 249.162C120.523 252.776 119.604 255.351 117.77 256.881C115.941 258.414 113.332 259.18 109.94 259.18C106.129 259.18 103.413 258.301 101.79 256.537C100.174 254.776 99.369 252.1 99.369 248.51V235.088C99.369 234.851 99.4213 234.667 99.5288 234.535C99.6425 234.406 99.7992 234.338 99.9959 234.338H106.277C106.67 234.338 106.867 234.569 106.867 235.026V249.297C106.867 250.929 107.18 252.109 107.813 252.837C108.443 253.559 109.341 253.919 110.505 253.919C111.651 253.919 112.576 253.559 113.283 252.837C113.987 252.109 114.34 250.895 114.34 249.199V235.088C114.34 234.59 114.549 234.338 114.967 234.338H119.921C120.32 234.338 120.523 234.569 120.523 235.026V249.162Z" fill="#DB0007"/>
<path d="M144.896 234.338C145.231 234.338 145.4 234.523 145.4 234.891V258.258C145.4 258.43 145.326 258.574 145.178 258.688C145.037 258.796 144.859 258.848 144.638 258.848H140.114C139.918 258.848 139.758 258.817 139.635 258.749C139.512 258.685 139.371 258.553 139.217 258.356L130.133 246.028C130.041 245.923 129.964 245.88 129.9 245.905C129.832 245.923 129.802 245.985 129.802 246.089V258.123C129.826 258.387 129.777 258.574 129.654 258.688C129.531 258.796 129.316 258.848 129.015 258.848H124.516C123.966 258.848 123.693 258.626 123.693 258.184V235.088C123.693 234.59 123.932 234.338 124.418 234.338H129.802C130.087 234.338 130.299 234.375 130.441 234.449C130.588 234.523 130.748 234.682 130.92 234.928L138.861 245.966C138.99 246.163 139.109 246.261 139.217 246.261C139.331 246.261 139.389 246.12 139.389 245.831V235.026C139.389 234.569 139.629 234.338 140.114 234.338H144.896Z" fill="#DB0007"/>
<path d="M159.665 259.18C157.379 259.18 155.357 258.651 153.605 257.594C151.851 256.537 150.495 255.068 149.537 253.181C148.584 251.298 148.111 249.134 148.111 246.691C148.111 244.178 148.615 241.965 149.623 240.054C150.637 238.136 152.05 236.649 153.863 235.592C155.683 234.535 157.76 234.006 160.095 234.006C161.994 234.006 163.687 234.357 165.172 235.051C166.653 235.739 167.854 236.637 168.773 237.743C169.689 238.843 170.288 240.005 170.568 241.234C170.641 241.504 170.678 241.713 170.678 241.861C170.678 242.067 170.632 242.202 170.543 242.266C170.451 242.334 170.31 242.374 170.113 242.389L164.459 243.25C164.219 243.25 164.068 243.21 164.004 243.127C163.936 243.038 163.869 242.862 163.795 242.598C163.623 241.584 163.208 240.751 162.554 240.103C161.905 239.448 161.032 239.12 159.935 239.12C158.633 239.12 157.643 239.679 156.973 240.791C156.3 241.907 155.965 243.809 155.965 246.495C155.965 249.316 156.328 251.276 157.059 252.382C157.787 253.482 158.832 254.029 160.194 254.029C161.979 254.029 163.171 253.255 163.77 251.706L163.869 251.411L163.93 251.153C163.93 250.956 163.81 250.858 163.574 250.858H160.464C160.218 250.858 160.046 250.806 159.948 250.698C159.849 250.585 159.8 250.391 159.8 250.121V246.949C159.8 246.581 160.034 246.396 160.501 246.396L169.744 246.458C170.144 246.458 170.451 246.553 170.666 246.74C170.887 246.931 170.998 247.177 170.998 247.478V258.282C170.998 258.439 170.943 258.574 170.838 258.688C170.731 258.796 170.598 258.848 170.445 258.848H169.191C168.788 258.848 168.435 258.639 168.134 258.221L166.806 256.303C166.782 256.239 166.736 256.205 166.671 256.205C166.628 256.205 166.551 256.26 166.438 256.365C165.872 256.924 165.325 257.391 164.803 257.766C164.287 258.135 163.598 258.464 162.738 258.749C161.884 259.035 160.86 259.18 159.665 259.18Z" fill="#DB0007"/>
<path d="M195.416 257.791C195.465 257.883 195.49 258.006 195.49 258.159C195.49 258.356 195.428 258.522 195.306 258.651C195.183 258.783 195.023 258.848 194.826 258.848H188.41C187.949 258.848 187.654 258.62 187.525 258.159L184.415 249.629C184.348 249.457 184.237 249.328 184.083 249.236C183.927 249.147 183.696 249.1 183.395 249.1H181.871C181.739 249.1 181.64 249.147 181.576 249.236C181.508 249.328 181.477 249.405 181.477 249.469V257.889C181.477 258.242 181.385 258.491 181.207 258.639C181.035 258.78 180.758 258.848 180.383 258.848H174.84C174.502 258.848 174.274 258.783 174.152 258.651C174.035 258.522 173.979 258.313 173.979 258.024V235.088C173.979 234.59 174.188 234.338 174.606 234.338H185.644C188.831 234.338 191.305 234.95 193.068 236.17C194.829 237.393 195.711 239.113 195.711 241.332C195.711 242.856 195.309 244.215 194.507 245.401C193.701 246.59 192.663 247.426 191.384 247.908C191.252 247.976 191.188 248.086 191.188 248.24C191.188 248.308 191.212 248.406 191.262 248.535L195.416 257.791ZM185.337 244.184C186.179 244.184 186.827 243.972 187.279 243.545C187.728 243.111 187.955 242.531 187.955 241.799C187.955 240.988 187.685 240.358 187.144 239.906C186.603 239.448 185.933 239.218 185.14 239.218H182.239C181.951 239.218 181.751 239.273 181.637 239.378C181.53 239.476 181.477 239.645 181.477 239.882V243.483C181.477 243.729 181.514 243.91 181.588 244.024C181.668 244.132 181.822 244.184 182.043 244.184H185.337Z" fill="#DB0007"/>
<path d="M220.89 234.338C221.289 234.338 221.492 234.47 221.492 234.731C221.492 234.799 221.446 234.916 221.357 235.088L213.625 247.576C213.469 247.798 213.374 248.043 213.343 248.314C213.309 248.578 213.294 249.061 213.294 249.764V257.889C213.294 258.242 213.201 258.491 213.023 258.639C212.851 258.78 212.575 258.848 212.2 258.848H206.656C206.318 258.848 206.091 258.783 205.968 258.651C205.851 258.522 205.796 258.313 205.796 258.024V249.334C205.796 249.024 205.762 248.778 205.697 248.596C205.63 248.409 205.507 248.172 205.329 247.884L197.597 235.26C197.514 235.106 197.474 234.962 197.474 234.83C197.474 234.504 197.714 234.338 198.199 234.338H204.837C205.147 234.338 205.372 234.384 205.513 234.473C205.66 234.556 205.808 234.741 205.955 235.026L210.024 242.365C210.129 242.586 210.215 242.696 210.282 242.696C210.396 242.696 210.497 242.595 210.589 242.389L214.584 235.026C214.713 234.741 214.858 234.556 215.014 234.473C215.168 234.384 215.399 234.338 215.703 234.338H220.89Z" fill="#DB0007"/>
</g>
<defs>
<clipPath id="clip0_364_2">
<rect width="295" height="295" fill="white"/>
</clipPath>
</defs>
</svg>
