<svg width="350" height="350" viewBox="0 0 350 350" fill="none" xmlns="http://www.w3.org/2000/svg">
<g clip-path="url(#clip0_5_64448)">
<mask id="mask0_5_64448" style="mask-type:alpha" maskUnits="userSpaceOnUse" x="111" y="227" width="70" height="43">
<path d="M111.067 227.733H180.133V269.5H111.067V227.733Z" fill="white"/>
</mask>
<g mask="url(#mask0_5_64448)">
<path d="M111.315 269.515V243.115L179.689 227.777V269.515H111.315Z" fill="#FCB335"/>
</g>
<mask id="mask1_5_64448" style="mask-type:alpha" maskUnits="userSpaceOnUse" x="167" y="94" width="183" height="176">
<path d="M167.067 94.2667H349.067V269.5H167.067V94.2667Z" fill="white"/>
</mask>
<g mask="url(#mask1_5_64448)">
<path d="M214.24 94.5802H328.165C336.19 94.5802 342.807 100.869 343.204 108.879C345.282 150.646 348.585 269.515 348.859 269.515C349.194 269.515 167.344 269.515 167.344 269.515L198.384 107.68C199.843 100.078 206.496 94.5802 214.24 94.5802Z" fill="#F7BCBD"/>
</g>
<mask id="mask2_5_64448" style="mask-type:alpha" maskUnits="userSpaceOnUse" x="96" y="210" width="98" height="60">
<path d="M96.1333 210H193.2V269.5H96.1333V210Z" fill="white"/>
</mask>
<g mask="url(#mask2_5_64448)">
<path d="M192.365 236.257L124.308 269.515H96.2864V250.571C96.2864 242.82 100.935 235.827 108.081 232.823L152.159 214.291C158.218 211.746 164.726 210.434 171.299 210.434H181.858C187.662 210.434 192.365 215.137 192.365 220.938V236.257Z" fill="#F7BCBD"/>
</g>
<path d="M96.2865 250.571C96.2865 242.82 100.935 235.827 108.081 232.823L152.159 214.291C158.218 211.746 164.726 210.434 171.3 210.434H181.858C187.662 210.434 192.365 215.137 192.365 220.937V236.257" stroke="#622542" stroke-width="1.01412" stroke-linecap="round" stroke-linejoin="round"/>
<mask id="mask3_5_64448" style="mask-type:alpha" maskUnits="userSpaceOnUse" x="101" y="240" width="20" height="30">
<path d="M101.733 240.8H120.4V269.5H101.733V240.8Z" fill="white"/>
</mask>
<g mask="url(#mask3_5_64448)">
<path d="M110.903 241.117H110.943C111.53 241.117 112.113 241.172 112.689 241.289C113.265 241.402 113.823 241.573 114.366 241.795C114.909 242.021 115.423 242.298 115.912 242.623C116.4 242.951 116.853 243.319 117.268 243.735C117.684 244.151 118.056 244.603 118.38 245.091C118.708 245.58 118.982 246.094 119.208 246.637C119.434 247.18 119.602 247.738 119.718 248.314C119.831 248.89 119.89 249.473 119.89 250.06V260.575C119.89 261.162 119.831 261.742 119.718 262.318C119.602 262.894 119.434 263.452 119.208 263.995C118.982 264.538 118.708 265.052 118.38 265.541C118.056 266.029 117.684 266.481 117.268 266.897C116.853 267.312 116.4 267.684 115.912 268.009C115.423 268.337 114.909 268.61 114.366 268.836C113.823 269.059 113.265 269.23 112.689 269.343C112.113 269.46 111.53 269.515 110.943 269.515H110.903C110.316 269.515 109.732 269.46 109.156 269.343C108.58 269.23 108.022 269.059 107.479 268.836C106.936 268.61 106.422 268.337 105.933 268.009C105.445 267.684 104.993 267.312 104.577 266.897C104.161 266.481 103.79 266.029 103.465 265.541C103.137 265.052 102.864 264.538 102.637 263.995C102.411 263.452 102.244 262.894 102.127 262.318C102.014 261.742 101.956 261.162 101.956 260.575V250.06C101.956 249.473 102.014 248.89 102.127 248.314C102.244 247.738 102.411 247.18 102.637 246.637C102.864 246.094 103.137 245.58 103.465 245.091C103.79 244.603 104.161 244.151 104.577 243.735C104.993 243.319 105.445 242.951 105.933 242.623C106.422 242.298 106.936 242.021 107.479 241.795C108.022 241.573 108.58 241.402 109.156 241.289C109.732 241.172 110.316 241.117 110.903 241.117Z" fill="#DB0007"/>
</g>
<mask id="mask4_5_64448" style="mask-type:alpha" maskUnits="userSpaceOnUse" x="318" y="94" width="32" height="176">
<path d="M318.267 94.2667H350V269.5H318.267V94.2667Z" fill="white"/>
</mask>
<g mask="url(#mask4_5_64448)">
<path d="M333.514 94.5802H335.125C343.241 94.5802 349.832 101.172 349.832 109.284V269.515H318.806V109.284C318.806 101.172 325.398 94.5802 333.514 94.5802Z" fill="#F7BCBD"/>
</g>
<path d="M290.759 60.5646C290.759 60.5646 294.16 66.8172 293.285 74.9474C292.41 83.0776 308.423 82.826 307.296 92.4547C306.17 102.087 295.411 98.8349 304.671 109.091C313.928 119.346 315.303 131.852 294.284 138.104C273.27 144.357 213.846 144.335 221.098 123.597C228.349 102.86 241.117 127.724 236.235 102.021C231.357 76.3219 270.842 47.3083 290.759 60.5646Z" fill="#622542"/>
<path d="M279.147 54.1844C279.522 53.9365 284.678 47.9318 291.284 52.4344C298.422 57.3016 293.909 65.5667 287.153 68.5672C280.397 71.5714 279.147 54.1844 279.147 54.1844Z" fill="#DB0007"/>
<path d="M278.899 97.4021C278.899 97.4021 292.035 97.0995 290.657 72.5849C289.282 48.0739 261.224 41.0922 249.499 44.6797C235.612 48.9344 221.601 72.8109 234.234 86.5776C246.87 100.344 278.899 97.4021 278.899 97.4021Z" fill="#622542"/>
<mask id="mask5_5_64448" style="mask-type:alpha" maskUnits="userSpaceOnUse" x="110" y="228" width="182" height="42">
<path d="M110.133 228.667H291.2V269.5H110.133V228.667Z" fill="white"/>
</mask>
<g mask="url(#mask5_5_64448)">
<path d="M189.029 236.779C189.029 236.779 148.491 246.98 128.344 255.577C124.706 257.133 121.392 259.35 118.555 262.114L110.965 269.515H275.457C275.457 269.515 292.068 253.123 290.759 236.779C289.45 220.438 189.029 236.779 189.029 236.779Z" fill="#622542"/>
</g>
<path d="M146.161 69.3948L138.906 47.2026L117.319 24.4343C116.342 23.4062 114.723 23.3442 113.67 24.2958C112.777 25.1088 112.554 26.4286 113.138 27.4859L119.529 39.1125L110.881 56.4958L120.429 71.2396L123.087 72.2932L125.69 80.3505L146.161 69.3948Z" fill="#FFA68E"/>
<path d="M142.399 57.8849C142.399 57.8849 133.142 58.3115 133.711 51.6177C134.229 45.5183 132.304 42.6636 130.43 40.8735C128.672 39.2 129.886 36.112 132.311 36.2031C133.492 36.2469 134.823 36.8849 136.205 38.6459C140.616 44.275 141.735 46.9183 141.735 46.9183L142.399 57.8849Z" fill="#FFA68E"/>
<path d="M142.399 57.8848C142.399 57.8848 133.142 58.3114 133.711 51.6177C134.229 45.5182 132.304 42.6635 130.43 40.8734C128.672 39.2 129.886 36.1119 132.311 36.2031" stroke="#622542" stroke-width="1.01412" stroke-linecap="round" stroke-linejoin="round"/>
<path d="M119.529 39.1125L126.43 53.1818C126.43 53.1818 119.026 61.2719 112.026 61.5927C112.026 61.5927 105.926 53.8891 106.925 49.3536C107.924 44.8182 119.529 39.1125 119.529 39.1125Z" fill="#FFA68E"/>
<path d="M111.176 49.2333L116.86 60.3093C116.86 60.3093 115.405 61.5817 112.026 61.5926" stroke="#622542" stroke-width="1.01412" stroke-linecap="round" stroke-linejoin="round"/>
<path d="M119.529 39.1125L125.668 51.6213C126.12 52.5437 125.898 53.6521 125.129 54.3302L123.802 55.5005C122.664 56.5068 120.881 56.1349 120.236 54.764L114.76 43.1229" stroke="#622542" stroke-width="1.01412" stroke-linecap="round" stroke-linejoin="round"/>
<path d="M116.86 60.3093C120.674 59.726 121.527 57.5093 121.527 57.5093L120.539 55.2416" stroke="#622542" stroke-width="1.01412" stroke-linecap="round" stroke-linejoin="round"/>
<path d="M216.719 120.469L176.688 121.72L146.161 68.1735L123.71 77.5141L152.418 143.329C154.773 147.981 159.221 151.222 164.372 152.042L214.218 159.99L224.478 130.977L216.719 120.469Z" fill="#DB0007"/>
<path d="M186.123 241.828C210.281 262.755 287.026 248.788 287.026 248.788C311.792 233.778 309.174 135.293 304.084 129.511C298.998 123.725 281.9 124.848 281.9 124.848L239.24 127.848C239.24 127.848 228.481 120.221 216.719 120.469C216.719 120.469 221.473 133.631 216.719 140.809C211.965 147.984 202.96 152.487 206.212 171.996C209.464 191.508 200.9 221.823 187.028 227.905C184.563 228.988 183.444 230.898 182.992 232.816C182.208 236.148 183.539 239.586 186.123 241.828Z" fill="white"/>
<path d="M269.89 106.338C269.89 106.338 269.413 111.012 269.773 115.708C270.171 120.87 274.498 124.848 279.676 124.848H281.9C281.9 124.848 278.523 133.853 261.384 139.355C244.245 144.856 241.117 133.35 239.24 127.848C241.544 127.272 243.086 125.103 242.871 122.741L241.617 108.963L269.89 106.338Z" fill="#FFA68E"/>
<path d="M269.139 107.465C253.502 121.22 231.23 112.966 231.23 98.2078C231.233 85.2031 237.738 56.6891 248.624 64.4401C259.507 72.1948 264.637 65.9422 264.637 65.9422C264.637 65.9422 274.768 60.9401 272.643 74.8234C270.517 88.7031 268.388 95.2073 274.644 93.5813C280.901 91.9552 288.156 99.8339 279.898 104.964C271.64 110.09 269.139 107.465 269.139 107.465Z" fill="#FFA68E"/>
<path d="M243.494 102.021L263.01 95.3312C263.01 95.3312 265.136 102.021 258.103 105.339C247.293 110.432 243.494 102.021 243.494 102.021Z" fill="white"/>
<path d="M269.139 107.465C263.492 112.43 256.98 114.53 250.965 114.486" stroke="#622542" stroke-width="1.01412" stroke-linecap="round" stroke-linejoin="round"/>
<path d="M280.274 99.8338C275.647 92.3307 270.641 104.588 270.641 104.588" stroke="#622542" stroke-width="1.01412" stroke-linecap="round" stroke-linejoin="round"/>
<path d="M275.457 99.4583L277.273 103.21L273.27 104.588" stroke="#622542" stroke-width="1.01412" stroke-linecap="round" stroke-linejoin="round"/>
<path d="M251.125 78.4474C251.125 78.4474 261.406 69.5698 263.583 82.7021" stroke="#622542" stroke-width="1.01412" stroke-linecap="round" stroke-linejoin="round"/>
<path d="M237.114 73.8208C237.114 73.8208 243.221 69.9052 244.275 76.0156C244.53 77.4922 244.369 79.0088 243.921 80.4416C243.086 83.0921 241.095 87.8901 237.114 90.3291L239.863 94.5802" stroke="#622542" stroke-width="1.01412" stroke-linecap="round" stroke-linejoin="round"/>
<path d="M253.739 82.2062C253.954 82.2682 254.136 82.4104 254.29 82.6292C254.443 82.8515 254.552 83.1359 254.618 83.4823C254.683 83.8286 254.698 84.2114 254.669 84.6307C254.636 85.0536 254.559 85.4765 254.439 85.9068C254.315 86.3333 254.155 86.7344 253.961 87.1099C253.765 87.4818 253.546 87.7989 253.309 88.0578C253.068 88.3167 252.828 88.5026 252.58 88.6083C252.335 88.7177 252.102 88.7396 251.887 88.6776C251.672 88.6156 251.49 88.4734 251.336 88.2547C251.183 88.0323 251.078 87.7479 251.012 87.4015C250.946 87.0552 250.928 86.6724 250.957 86.2531C250.99 85.8302 251.067 85.4073 251.191 84.9771C251.311 84.5469 251.471 84.1458 251.668 83.7739C251.861 83.4021 252.08 83.0849 252.321 82.826C252.558 82.5672 252.802 82.3812 253.046 82.2755C253.294 82.1661 253.524 82.1443 253.739 82.2062Z" fill="#622542"/>
<path d="M239.214 78.2433C239.429 78.3052 239.611 78.4474 239.765 78.6698C239.914 78.8886 240.023 79.1729 240.089 79.5193C240.155 79.8693 240.173 80.2521 240.14 80.6714C240.111 81.0906 240.034 81.5172 239.91 81.9438C239.79 82.374 239.63 82.775 239.433 83.1469C239.236 83.5224 239.021 83.836 238.78 84.0985C238.543 84.3573 238.299 84.5396 238.055 84.649C237.807 84.7547 237.577 84.7766 237.362 84.7183C237.147 84.6563 236.961 84.5141 236.811 84.2917C236.658 84.0729 236.549 83.7886 236.483 83.4422C236.418 83.0922 236.403 82.7094 236.432 82.2901C236.465 81.8709 236.542 81.4443 236.662 81.0177C236.786 80.5875 236.946 80.1865 237.14 79.8146C237.336 79.4391 237.555 79.1255 237.792 78.863C238.033 78.6042 238.273 78.4219 238.521 78.3125C238.766 78.2068 238.999 78.1849 239.214 78.2433Z" fill="#622542"/>
<path d="M260.028 166.742L258.26 164.989C256.612 163.352 254.26 162.633 251.978 163.071L244.161 164.577L245.82 170.702H259.507L260.028 166.746V166.742Z" fill="#FFA68E"/>
<path d="M246.819 144.973L252.959 186.43C253.17 187.87 252.175 189.211 250.731 189.427L248.773 189.718C250.217 189.503 251.213 188.161 250.997 186.718L244.858 145.261C244.643 143.821 243.301 142.826 241.857 143.037L243.819 142.749C245.263 142.534 246.604 143.529 246.819 144.973Z" fill="#FCB335"/>
<path d="M220.186 146.245L241.857 143.037C242.204 142.986 242.546 143.004 242.889 143.088C243.228 143.176 243.538 143.321 243.819 143.529C244.099 143.737 244.329 143.992 244.511 144.295C244.69 144.594 244.807 144.918 244.858 145.265L250.997 186.718C251.048 187.064 251.034 187.407 250.946 187.746C250.862 188.089 250.713 188.398 250.505 188.679C250.297 188.96 250.042 189.19 249.743 189.372C249.441 189.551 249.12 189.667 248.773 189.718L227.099 192.923C226.753 192.978 226.41 192.959 226.071 192.876C225.732 192.788 225.422 192.642 225.141 192.434C224.857 192.223 224.627 191.971 224.448 191.669C224.266 191.37 224.153 191.045 224.102 190.699L217.962 149.246C217.908 148.899 217.926 148.553 218.014 148.214C218.097 147.875 218.243 147.565 218.451 147.284C218.662 147.004 218.918 146.774 219.217 146.592C219.516 146.413 219.84 146.296 220.186 146.245Z" fill="#622542"/>
<path d="M233.527 154.7C233.527 155.065 233.457 155.415 233.319 155.75C233.18 156.089 232.98 156.388 232.721 156.643C232.462 156.902 232.167 157.103 231.828 157.241C231.492 157.38 231.142 157.449 230.774 157.449C230.409 157.449 230.059 157.38 229.72 157.241C229.385 157.103 229.086 156.902 228.831 156.643C228.572 156.388 228.371 156.089 228.233 155.75C228.094 155.415 228.021 155.065 228.021 154.7C228.021 154.335 228.094 153.982 228.233 153.646C228.371 153.307 228.572 153.012 228.827 152.753C229.086 152.494 229.385 152.297 229.72 152.155C230.059 152.017 230.409 151.947 230.774 151.947C231.142 151.947 231.492 152.017 231.828 152.155C232.167 152.297 232.462 152.494 232.721 152.753C232.98 153.012 233.18 153.307 233.319 153.646C233.457 153.982 233.527 154.335 233.527 154.7Z" fill="white"/>
<path d="M236.633 151.051H236.636C236.771 151.029 236.903 151.036 237.034 151.069C237.165 151.102 237.285 151.16 237.395 151.24C237.5 151.32 237.592 151.419 237.661 151.535C237.73 151.652 237.774 151.776 237.796 151.907L238.303 155.334C238.321 155.469 238.313 155.601 238.281 155.732C238.248 155.863 238.193 155.983 238.113 156.093C238.033 156.202 237.934 156.29 237.818 156.359C237.701 156.428 237.577 156.472 237.442 156.494H237.438C237.304 156.516 237.172 156.508 237.041 156.476C236.91 156.443 236.79 156.384 236.68 156.304C236.574 156.224 236.483 156.126 236.414 156.009C236.345 155.892 236.301 155.768 236.279 155.633L235.772 152.21C235.754 152.075 235.761 151.944 235.794 151.813C235.827 151.681 235.882 151.561 235.962 151.452C236.042 151.342 236.141 151.255 236.257 151.185C236.374 151.116 236.498 151.069 236.633 151.051Z" fill="white"/>
<path d="M265.788 195.592L260.571 192.952L242.16 194.257C240.545 194.257 239.24 192.952 239.24 191.341V189.255C237.442 189.255 235.987 187.801 235.987 186.003V182.627C234.27 182.412 232.983 180.954 232.983 179.226V177.57C232.983 176.199 234.062 175.073 235.43 175.011L235.335 172.2C235.28 170.537 236.523 169.116 238.179 168.948L260.028 166.742L273.27 173.567C273.27 173.567 277.521 174.996 278.523 181.253C279.522 187.505 278.122 197.09 265.788 195.588V195.592Z" fill="#FFA68E"/>
<path d="M235.43 175.011L241.493 174.581" stroke="#622542" stroke-width="1.01412" stroke-linecap="round" stroke-linejoin="round"/>
<path d="M235.988 182.627L241.908 182.251" stroke="#622542" stroke-width="1.01412" stroke-linecap="round" stroke-linejoin="round"/>
<path d="M239.24 189.255H242.991" stroke="#622542" stroke-width="1.01412" stroke-linecap="round" stroke-linejoin="round"/>
<path d="M311.088 139.73C306.363 126.642 300.351 127.695 296.093 130.955C292.83 133.456 290.722 137.178 290.019 141.229L283.602 178.001L273.27 173.567C278.735 175.952 268.778 196.722 263.313 194.338C263.313 194.338 280.525 226.774 299.039 216.019C317.556 205.264 319.306 162.491 311.088 139.73Z" fill="#DB0007"/>
<path d="M283.602 178C283.602 178 289.257 177.198 292.283 186.907" stroke="#622542" stroke-width="1.01412" stroke-linecap="round" stroke-linejoin="round"/>
<mask id="mask6_5_64448" style="mask-type:alpha" maskUnits="userSpaceOnUse" x="265" y="210" width="77" height="60">
<path d="M265.067 210H341.6V269.5H265.067V210Z" fill="white"/>
</mask>
<g mask="url(#mask6_5_64448)">
<path d="M327.254 210.434C321.781 210.434 316.462 212.257 312.138 215.622L275.286 244.293C269.292 248.952 265.789 256.12 265.789 263.71V269.515H318.806L340.823 238.066V224C340.823 216.508 334.75 210.434 327.257 210.434H327.254Z" fill="#F7BCBD"/>
</g>
<path d="M340.824 238.066V224C340.824 216.508 334.75 210.434 327.254 210.434C321.781 210.434 316.462 212.26 312.138 215.622L275.286 244.293C269.292 248.952 265.789 256.12 265.789 263.71" stroke="#622542" stroke-width="1.01412" stroke-linecap="round" stroke-linejoin="round"/>
<mask id="mask7_5_64448" style="mask-type:alpha" maskUnits="userSpaceOnUse" x="269" y="251" width="26" height="19">
<path d="M269.733 251.067H294V269.5H269.733V251.067Z" fill="white"/>
</mask>
<g mask="url(#mask7_5_64448)">
<path d="M282.013 251.789H282.064C288.349 251.789 293.453 256.889 293.453 263.171V269.515H270.627V263.171C270.627 256.889 275.731 251.789 282.013 251.789Z" fill="#DB0007"/>
</g>
<path d="M44.9349 170.636C34.6099 172.842 28.0292 182.999 30.2349 193.32L67.6266 185.332C65.4209 175.007 55.2599 168.43 44.9349 170.636Z" fill="#F7BCBD"/>
<path d="M30.4755 203.751L71.6734 194.946C71.9833 194.881 72.2968 194.877 72.6104 194.935C72.9239 194.99 73.2156 195.107 73.4854 195.282C73.7515 195.453 73.9776 195.672 74.1562 195.934C74.3385 196.197 74.4625 196.485 74.5281 196.798L75.0276 199.128C75.0932 199.442 75.1005 199.755 75.0422 200.069C74.9838 200.382 74.8672 200.67 74.6958 200.94C74.5208 201.206 74.302 201.432 74.0395 201.615C73.777 201.793 73.489 201.917 73.1755 201.983L31.9812 210.787C31.6677 210.853 31.3541 210.86 31.0406 210.802C30.727 210.744 30.4354 210.627 30.1692 210.456C29.8994 210.281 29.677 210.062 29.4948 209.799C29.3161 209.537 29.1921 209.249 29.1229 208.939L28.627 206.606C28.5578 206.296 28.5541 205.982 28.6125 205.669C28.6708 205.355 28.7838 205.064 28.9588 204.794C29.1338 204.528 29.3526 204.302 29.6151 204.123C29.8776 203.941 30.1656 203.817 30.4755 203.751Z" fill="#622542"/>
<path d="M28.3318 193.729L69.5297 184.924C69.8396 184.858 70.1532 184.855 70.4667 184.913C70.7802 184.968 71.0719 185.084 71.3417 185.259C71.6078 185.431 71.8339 185.65 72.0125 185.912C72.1948 186.175 72.3188 186.463 72.3844 186.776L72.8839 189.106C72.9495 189.419 72.9568 189.733 72.8985 190.046C72.8401 190.36 72.7235 190.648 72.5521 190.918C72.3771 191.184 72.1584 191.41 71.8959 191.592C71.6334 191.771 71.3453 191.895 71.0355 191.96L29.8375 200.765C29.524 200.831 29.2141 200.838 28.8969 200.78C28.5834 200.721 28.2953 200.605 28.0256 200.433C27.7594 200.258 27.5334 200.04 27.3511 199.777C27.1724 199.515 27.0485 199.227 26.9792 198.917L26.4834 196.583C26.4141 196.273 26.4104 195.96 26.4688 195.646C26.5271 195.333 26.6438 195.041 26.8151 194.771C26.9901 194.505 27.2089 194.279 27.4714 194.101C27.7339 193.918 28.0219 193.794 28.3318 193.729Z" fill="#622542"/>
<path d="M69.1177 192.372C69.6537 195.471 68.2318 198.322 65.8584 198.829C64.3454 199.15 62.8032 198.454 61.6657 197.119C61.1844 198.8 60.0615 200.065 58.5521 200.39C57.0391 200.714 55.4969 200.014 54.3704 198.676C53.8818 200.36 52.7589 201.629 51.2459 201.95C49.7329 202.274 48.1907 201.574 47.0641 200.24C46.5829 201.917 45.4599 203.186 43.9469 203.51C42.6454 203.788 41.3183 203.303 40.25 202.315C39.6886 203.653 38.675 204.637 37.3735 204.914C34.9964 205.424 32.5318 203.405 31.7552 200.353L69.1177 192.372Z" fill="white"/>
<path d="M33.8844 210.379L71.2615 202.395L71.3891 203.004C72.3844 207.648 69.4167 212.228 64.7719 213.219L44.2313 217.609C39.5865 218.601 35.0073 215.636 34.012 210.992L33.8844 210.379Z" fill="#F7BCBD"/>
<path d="M40.3776 185.289C40.3776 185.577 40.3229 185.85 40.2135 186.113C40.1042 186.379 39.9474 186.612 39.7469 186.813C39.5427 187.017 39.3094 187.17 39.0469 187.279C38.7844 187.389 38.5073 187.443 38.2229 187.443C37.9349 187.443 37.6615 187.389 37.3953 187.279C37.1328 187.17 36.8995 187.017 36.6953 186.813C36.4948 186.612 36.338 186.379 36.2286 186.113C36.1193 185.85 36.0646 185.577 36.0646 185.289C36.0646 185.004 36.1193 184.727 36.2286 184.465C36.338 184.202 36.4948 183.969 36.6953 183.765C36.8995 183.564 37.1328 183.407 37.3953 183.298C37.6615 183.189 37.9349 183.134 38.2229 183.134C38.5073 183.134 38.7844 183.189 39.0469 183.298C39.3094 183.407 39.5427 183.564 39.7469 183.765C39.9474 183.969 40.1042 184.202 40.2135 184.465C40.3229 184.727 40.3776 185.004 40.3776 185.289Z" fill="white"/>
<path d="M48.4677 175.777C48.4677 176.061 48.413 176.338 48.3036 176.6C48.1942 176.863 48.0375 177.096 47.837 177.3C47.6328 177.501 47.3995 177.658 47.137 177.767C46.8708 177.877 46.5974 177.931 46.3094 177.931C46.025 177.931 45.7479 177.877 45.4854 177.767C45.2229 177.658 44.9896 177.501 44.7854 177.3C44.5849 177.096 44.4281 176.863 44.3187 176.6C44.2094 176.338 44.1547 176.061 44.1547 175.777C44.1547 175.488 44.2094 175.215 44.3187 174.949C44.4281 174.686 44.5849 174.453 44.7854 174.253C44.9896 174.048 45.2229 173.895 45.4854 173.786C45.7479 173.677 46.025 173.622 46.3094 173.622C46.5974 173.622 46.8708 173.677 47.137 173.786C47.3995 173.895 47.6328 174.048 47.837 174.253C48.0375 174.453 48.1942 174.686 48.3036 174.949C48.413 175.215 48.4677 175.488 48.4677 175.777Z" fill="white"/>
<path d="M49.3646 68.6073L45.6786 41.7885C45.2411 38.5911 48.526 36.2687 51.8364 37.4354L71.2833 44.2859C74.5974 45.4526 75.6984 49.3172 73.3542 51.5338L53.663 70.1239C52.2338 71.4729 49.6307 70.5578 49.3646 68.6073Z" fill="#F7BCBD"/>
<path d="M73.0041 49.6234C64.7864 44.8911 56.2151 41.7557 47.2281 40.4651C45.5218 40.2172 44.3807 38.6167 44.8984 37.1474L44.9203 37.0891C45.3104 35.9844 46.5208 35.3609 47.7968 35.576C57.6296 37.2422 66.8937 40.5052 75.5963 45.3688C76.7265 45.9995 77.2807 47.2464 76.8906 48.351L76.8468 48.475C76.3364 49.9224 74.477 50.4729 73.0041 49.6234Z" fill="#622542"/>
<path d="M54.538 49.5943C54.8078 49.6891 55.0521 49.8276 55.2672 50.0099C55.4859 50.1922 55.6573 50.4 55.7885 50.6406C55.9198 50.8813 55.9963 51.1328 56.0219 51.3917C56.0437 51.6542 56.0146 51.9057 55.9271 52.15C55.8432 52.3943 55.7083 52.6094 55.526 52.799C55.3437 52.9885 55.125 53.1344 54.8734 53.2401C54.6219 53.3422 54.3557 53.4005 54.0713 53.4042C53.787 53.4078 53.5135 53.3641 53.2401 53.2693C52.9703 53.1745 52.726 53.0359 52.5109 52.8536C52.2922 52.6714 52.1208 52.4635 51.9896 52.2229C51.8583 51.9823 51.7817 51.7344 51.7562 51.4719C51.7344 51.2094 51.7635 50.9578 51.851 50.7135C51.9349 50.4693 52.0698 50.2542 52.2521 50.0646C52.4344 49.8786 52.6531 49.7292 52.9047 49.6271C53.1562 49.5214 53.426 49.4667 53.7067 49.4594C53.9911 49.4557 54.2646 49.4995 54.538 49.5943Z" fill="#622542"/>
<path d="M57.6042 57.1593C57.9068 57.2651 58.1766 57.4182 58.4209 57.6224C58.6615 57.8229 58.8584 58.0599 59.0042 58.326C59.15 58.5958 59.2339 58.8765 59.2631 59.1682C59.2886 59.4599 59.2558 59.7406 59.161 60.014C59.0625 60.2875 58.9131 60.5281 58.7089 60.7396C58.5047 60.9474 58.2605 61.1114 57.9797 61.2317C57.699 61.3484 57.4 61.4104 57.0829 61.414C56.7693 61.4213 56.4594 61.3703 56.1568 61.2646C55.8542 61.1588 55.5808 61.0021 55.3401 60.8015C55.0959 60.5974 54.9026 60.364 54.7568 60.0942C54.611 59.8281 54.5235 59.5474 54.498 59.2557C54.4724 58.964 54.5053 58.6797 54.6 58.4099C54.6985 58.1364 54.848 57.8958 55.0521 57.6843C55.2563 57.4729 55.5006 57.3088 55.7813 57.1922C56.062 57.0755 56.361 57.0135 56.6782 57.0062C56.9917 57.0026 57.3016 57.0536 57.6042 57.1593Z" fill="#622542"/>
<path d="M65.0015 50.0573C65.213 50.1338 65.4062 50.2396 65.5739 50.3818C65.7416 50.5239 65.8802 50.688 65.9823 50.8739C66.0844 51.0635 66.1427 51.2568 66.1609 51.4609C66.1791 51.6651 66.1573 51.862 66.088 52.0515C66.0224 52.2448 65.9166 52.4125 65.7745 52.5583C65.6323 52.7078 65.4609 52.8208 65.2677 52.901C65.0708 52.9849 64.8594 53.0286 64.6406 53.0323C64.4182 53.0359 64.2031 52.9995 63.9916 52.9265C63.7802 52.8536 63.5906 52.7443 63.4229 52.6021C63.2515 52.4599 63.1166 52.2958 63.0146 52.1099C62.9125 51.9239 62.8541 51.7271 62.8323 51.5229C62.814 51.3187 62.8396 51.1219 62.9052 50.9323C62.9745 50.7427 63.0765 50.5713 63.2224 50.4255C63.3646 50.2797 63.5323 50.163 63.7291 50.0828C63.926 49.9989 64.1338 49.9588 64.3562 49.9515C64.575 49.9479 64.7937 49.9844 65.0015 50.0573Z" fill="#622542"/>
<path d="M190.878 44.6177L180.793 42.3135L182.558 29.5312L194.844 32.3349L190.878 44.6177Z" fill="#F7BCBD"/>
<path d="M189.54 27.2599C189.168 27.1761 188.938 26.8078 189.022 26.436L190.918 18.1344C191.005 17.7625 191.373 17.5328 191.742 17.6167L195.599 18.499C195.971 18.5828 196.201 18.9511 196.117 19.3229C196.033 19.6912 195.665 19.9245 195.293 19.8406L192.106 19.1115L190.364 26.7422C190.28 27.1141 189.911 27.3438 189.54 27.2599Z" fill="#622542"/>
<path d="M190.469 22.1558L190.918 22.2578C194.184 23.0052 196.233 26.261 195.486 29.5276L195.482 29.5422L183.196 26.7349L183.199 26.7203C183.947 23.4573 187.203 21.412 190.469 22.1558Z" fill="#F7BCBD"/>
<path d="M181.417 26.3265L197.261 29.9469L196.623 32.7432L180.779 29.1229L181.417 26.3265Z" fill="#622542"/>
<path d="M23.403 331.081C23.403 331.471 23.2353 331.84 22.9071 332.19C22.5863 332.54 22.167 332.857 21.653 333.138C21.1462 333.422 20.5775 333.67 19.9467 333.881C19.3124 334.096 18.6853 334.275 18.0655 334.421C17.453 334.574 16.8733 334.691 16.3301 334.771C15.7832 334.847 15.353 334.888 15.0321 334.888C14.7295 334.888 14.4087 334.858 14.0696 334.8C13.7379 334.749 13.4608 334.632 13.2384 334.45C13.1108 334.352 12.9978 334.14 12.903 333.808C12.8045 333.469 12.7134 333.072 12.6259 332.613C12.5384 332.157 12.4582 331.665 12.3926 331.14C12.3342 330.607 12.2832 330.086 12.2467 329.579C12.2066 329.076 12.1738 328.613 12.1446 328.194C12.1228 327.767 12.1155 327.432 12.1155 327.188C12.1155 326.801 12.1228 326.323 12.1446 325.758C12.1738 325.197 12.2103 324.599 12.2613 323.965C12.3087 323.323 12.3707 322.674 12.4509 322.01C12.5275 321.34 12.615 320.709 12.7134 320.115C12.8191 319.524 12.9467 318.992 13.0926 318.525C13.2457 318.051 13.4134 317.676 13.5884 317.402C13.8874 316.976 14.2665 316.76 14.7259 316.76C15.0467 316.76 15.3129 316.87 15.528 317.081C15.7504 317.296 15.929 317.573 16.0676 317.913C16.2025 318.255 16.3045 318.634 16.3738 319.05C16.4394 319.469 16.4905 319.889 16.5196 320.304C16.5561 320.713 16.578 321.092 16.578 321.442C16.578 321.784 16.578 322.054 16.578 322.258C16.578 323.494 16.5488 324.719 16.4905 325.933C16.4394 327.14 16.4176 328.354 16.4176 329.579V330.513C17.1249 330.29 17.8978 330.082 18.7363 329.885C19.5712 329.681 20.3696 329.579 21.128 329.579C21.3978 329.579 21.6712 329.601 21.9446 329.638C22.2144 329.667 22.4587 329.736 22.6738 329.842C22.8853 329.94 23.0603 330.09 23.1988 330.294C23.3337 330.491 23.403 330.753 23.403 331.081Z" fill="black"/>
<path d="M33.925 330.133C33.925 330.669 33.7536 331.194 33.4146 331.708C33.0719 332.226 32.6453 332.682 32.1312 333.079C31.6135 333.48 31.0667 333.805 30.4833 334.056C29.9 334.301 29.364 334.421 28.8792 334.421C28.0333 334.421 27.2823 334.213 26.6333 333.794C25.9807 333.378 25.4302 332.842 24.9854 332.19C24.5479 331.541 24.2125 330.826 23.9792 330.046C23.7458 329.269 23.6292 328.507 23.6292 327.756C23.6292 326.969 23.7385 326.13 23.9646 325.233C24.187 324.329 24.5224 323.498 24.9708 322.74C25.4265 321.981 25.9953 321.351 26.6771 320.844C27.3661 320.341 28.1828 320.085 29.1271 320.085C29.6703 320.085 30.1844 320.18 30.6729 320.363C31.1578 320.538 31.5807 320.793 31.9417 321.121C32.3099 321.453 32.6052 321.85 32.8312 322.317C33.0536 322.776 33.1667 323.286 33.1667 323.848C33.1667 324.588 33.0062 325.284 32.6854 325.933C32.3719 326.586 31.9562 327.151 31.4312 327.625C30.9062 328.092 30.301 328.471 29.6229 328.763C28.9521 329.054 28.2594 329.222 27.5521 329.258C27.6104 329.718 27.789 330.046 28.0917 330.25C28.4015 330.454 28.7698 330.556 29.2 330.556C29.5208 330.556 29.8307 330.48 30.1333 330.323C30.4323 330.159 30.7239 329.98 31.0083 329.783C31.289 329.59 31.5661 329.415 31.8396 329.258C32.1203 329.094 32.401 329.01 32.6854 329.01C33.0062 329.01 33.2906 329.12 33.5458 329.331C33.7974 329.535 33.925 329.805 33.925 330.133ZM30.075 324.329C30.075 324.118 30.0203 323.903 29.9146 323.688C29.8052 323.465 29.6302 323.352 29.3896 323.352C29.0469 323.352 28.7552 323.447 28.5146 323.629C28.2812 323.804 28.0807 324.034 27.9167 324.315C27.7599 324.588 27.6396 324.883 27.5521 325.204C27.4646 325.518 27.4135 325.809 27.4062 326.079C27.6286 326.032 27.8911 325.97 28.1937 325.89C28.5036 325.813 28.7953 325.707 29.0687 325.569C29.3495 325.434 29.5864 325.263 29.7833 325.058C29.9765 324.854 30.075 324.614 30.075 324.329Z" fill="black"/>
<path d="M40.3802 335.208C39.261 335.208 38.3896 335.055 37.7698 334.756C37.1464 334.465 36.6797 334.053 36.3698 333.517C36.0563 332.984 35.8667 332.336 35.8011 331.577C35.7427 330.819 35.7136 329.973 35.7136 329.04C35.7136 328.303 35.7354 327.559 35.7865 326.808C35.8339 326.05 35.9068 325.244 36.0052 324.388C35.7792 324.388 35.6042 324.395 35.4802 324.402C35.3526 324.413 35.2505 324.417 35.174 324.417C34.6672 324.417 34.2297 324.311 33.8615 324.096C33.4823 323.874 33.2927 323.527 33.2927 323.061C33.2927 322.78 33.4021 322.532 33.6136 322.317C33.8287 322.094 34.1021 321.905 34.4302 321.748C34.7693 321.584 35.1302 321.456 35.5094 321.369C35.8958 321.274 36.2677 321.205 36.6177 321.165C36.6177 320.727 36.6469 320.242 36.7052 319.706C36.7708 319.163 36.8875 318.664 37.0552 318.204C37.2193 317.738 37.4417 317.351 37.7261 317.038C38.0177 316.717 38.3823 316.556 38.8198 316.556C39.0714 316.556 39.2938 316.629 39.4906 316.775C39.6948 316.921 39.8589 317.111 39.9865 317.344C40.1104 317.577 40.2052 317.836 40.2636 318.117C40.3292 318.401 40.3656 318.678 40.3656 318.948C40.3656 319.262 40.3401 319.582 40.2927 319.911C40.2417 320.242 40.1542 320.654 40.0302 321.15C40.3 321.121 40.4823 321.103 40.5698 321.092C40.6646 321.084 40.7521 321.077 40.8323 321.077C41.1021 321.077 41.3865 321.103 41.6781 321.15C41.9698 321.201 42.236 321.278 42.4802 321.383C42.7208 321.493 42.9214 321.639 43.0781 321.821C43.2422 322.007 43.3261 322.226 43.3261 322.477C43.3261 322.762 43.2094 323.013 42.9761 323.236C42.75 323.462 42.4656 323.651 42.1156 323.804C41.7656 323.961 41.3901 324.081 40.9927 324.169C40.6026 324.256 40.2344 324.315 39.8844 324.344C39.7969 324.996 39.7276 325.594 39.6802 326.138C39.6401 326.684 39.6 327.231 39.5636 327.786C39.5235 328.048 39.4906 328.321 39.4615 328.602C39.4396 328.876 39.4323 329.156 39.4323 329.448C39.4323 329.652 39.4396 329.896 39.4615 330.177C39.4797 330.451 39.5344 330.713 39.6219 330.965C39.7167 331.22 39.8698 331.439 40.074 331.621C40.2781 331.796 40.5625 331.883 40.9344 331.883C41.1568 331.883 41.3865 331.865 41.6198 331.825C41.8531 331.789 42.0901 331.767 42.3344 331.767C42.7427 331.767 43.0344 331.909 43.2094 332.19C43.3917 332.474 43.4865 332.839 43.4865 333.283C43.4865 333.615 43.388 333.903 43.1948 334.144C42.9979 334.384 42.75 334.581 42.4511 334.727C42.1485 334.88 41.813 334.997 41.4448 335.077C41.0729 335.165 40.7193 335.208 40.3802 335.208Z" fill="black"/>
<path d="M46.3129 319.021C46.3129 319.254 46.2911 319.619 46.2546 320.115C46.2254 320.611 46.1708 321.114 46.0942 321.617C46.014 322.113 45.8937 322.546 45.7296 322.915C45.5728 323.287 45.3796 323.469 45.1463 323.469C45.0004 323.469 44.8728 323.378 44.7671 323.192C44.6577 322.999 44.5629 322.762 44.4754 322.477C44.3879 322.196 44.3077 321.879 44.2421 321.529C44.1838 321.179 44.1327 320.84 44.0963 320.508C44.0562 320.18 44.027 319.881 44.0088 319.619C43.9869 319.356 43.9796 319.163 43.9796 319.036C43.9796 318.882 43.9869 318.671 44.0088 318.408C44.027 318.139 44.0708 317.869 44.14 317.606C44.2057 317.344 44.3077 317.125 44.4463 316.95C44.5812 316.768 44.7744 316.673 45.0296 316.673C45.3103 316.673 45.5327 316.757 45.7004 316.921C45.8645 317.089 45.9958 317.293 46.0942 317.533C46.189 317.778 46.2473 318.037 46.2692 318.306C46.2984 318.569 46.3129 318.809 46.3129 319.021Z" fill="black"/>
<path d="M54.6972 321.31C54.6972 321.77 54.5404 322.109 54.2305 322.331C53.9279 322.557 53.5889 322.765 53.2097 322.958C52.8305 323.155 52.4842 323.389 52.1743 323.658C51.8607 323.932 51.7076 324.336 51.7076 324.869C51.7076 325.153 51.7732 325.394 51.9118 325.598C52.0467 325.802 52.2107 325.992 52.4076 326.167C52.6008 326.334 52.8159 326.502 53.0493 326.677C53.2899 326.845 53.5087 327.038 53.7055 327.26C53.9097 327.486 54.0738 327.756 54.2014 328.077C54.3363 328.391 54.4055 328.773 54.4055 329.229C54.4055 329.893 54.2342 330.542 53.8951 331.183C53.5633 331.825 53.1295 332.394 52.5972 332.89C52.0722 333.385 51.4743 333.786 50.8034 334.085C50.1399 334.384 49.4909 334.538 48.8493 334.538C48.5758 334.538 48.3024 334.516 48.0326 334.479C47.7701 334.439 47.5295 334.366 47.318 334.26C47.1029 334.144 46.9243 333.991 46.7784 333.794C46.6326 333.59 46.5597 333.334 46.5597 333.021C46.5597 332.576 46.6472 332.23 46.8222 331.985C46.9972 331.745 47.2196 331.555 47.493 331.417C47.7628 331.271 48.0508 331.161 48.3534 331.081C48.6633 331.005 48.9514 330.906 49.2139 330.79C49.4837 330.666 49.7097 330.509 49.8847 330.323C50.0597 330.13 50.1472 329.856 50.1472 329.506C50.1472 329.178 50.0159 328.835 49.7534 328.485C49.4909 328.128 49.1993 327.749 48.8784 327.348C48.5649 326.94 48.2805 326.509 48.018 326.05C47.7628 325.594 47.6389 325.088 47.6389 324.533C47.6389 323.855 47.7738 323.228 48.0472 322.652C48.3279 322.08 48.6962 321.58 49.1555 321.15C49.6222 320.723 50.1545 320.388 50.7597 320.144C51.3613 319.903 51.992 319.779 52.6555 319.779C52.9071 319.779 53.155 319.805 53.3993 319.852C53.6508 319.892 53.8696 319.976 54.0555 320.1C54.2488 320.217 54.4055 320.373 54.5222 320.567C54.6389 320.764 54.6972 321.011 54.6972 321.31Z" fill="black"/>
<path d="M73.5603 323.688C73.5603 325.08 73.2723 326.422 72.6999 327.713C72.1348 328.996 71.3728 330.133 70.4103 331.125C69.4551 332.117 68.3431 332.912 67.0707 333.502C65.7947 334.096 64.4603 334.392 63.0603 334.392H63.0166C62.7249 334.392 62.4843 334.268 62.302 334.013C62.127 333.75 61.9739 333.422 61.8499 333.021C61.7223 332.624 61.6239 332.182 61.5582 331.694C61.4999 331.209 61.4489 330.731 61.4124 330.265C61.3832 329.798 61.3687 329.382 61.3687 329.01C61.3687 328.631 61.3687 328.351 61.3687 328.165C61.3687 327.632 61.3759 327.1 61.3978 326.575C61.416 326.043 61.4416 325.503 61.4707 324.956C61.4707 324.792 61.478 324.541 61.4999 324.198C61.5291 323.859 61.5582 323.476 61.5874 323.046C61.6166 322.619 61.653 322.171 61.7041 321.704C61.7515 321.238 61.7989 320.807 61.8499 320.406C61.9082 319.998 61.9666 319.644 62.0249 319.342C62.0832 319.032 62.1489 318.817 62.2291 318.7C62.4332 318.361 62.7468 318.055 63.177 317.781C63.6035 317.512 64.0666 317.293 64.5624 317.125C65.0582 316.95 65.5614 316.819 66.0791 316.731C66.5931 316.644 67.0416 316.6 67.4207 316.6C68.4598 316.6 69.364 316.797 70.1332 317.183C70.8989 317.563 71.5369 318.084 72.0437 318.744C72.5577 319.396 72.9369 320.151 73.1812 321.004C73.4327 321.861 73.5603 322.754 73.5603 323.688ZM69.5791 324.373C69.5791 324.023 69.5134 323.669 69.3895 323.308C69.2619 322.94 69.0832 322.608 68.8499 322.317C68.6239 322.018 68.3468 321.774 68.0187 321.588C67.6978 321.405 67.3369 321.31 66.9395 321.31C66.6077 321.31 66.2687 321.391 65.9187 321.544C65.8384 321.595 65.7655 321.744 65.6999 321.996C65.6416 322.24 65.5905 322.535 65.5541 322.885C65.514 323.228 65.4812 323.607 65.452 324.023C65.4228 324.431 65.4009 324.821 65.3937 325.19C65.3827 325.562 65.3718 325.89 65.3645 326.181C65.3535 326.466 65.3499 326.648 65.3499 326.735C65.3499 326.903 65.3499 327.14 65.3499 327.45C65.3499 327.753 65.3572 328.055 65.3791 328.354C65.4082 328.657 65.4374 328.919 65.4666 329.142C65.503 329.357 65.5614 329.463 65.6416 329.463C66.1155 329.463 66.5895 329.28 67.0562 328.908C67.5228 328.54 67.9457 328.088 68.3249 327.552C68.7041 327.009 69.003 326.444 69.2291 325.86C69.4624 325.277 69.5791 324.781 69.5791 324.373Z" fill="black"/>
<path d="M78.5292 317.81C78.5292 318.026 78.4709 318.219 78.3542 318.394C78.2376 318.569 78.0808 318.726 77.8876 318.86C77.7016 318.999 77.4975 319.101 77.2751 319.167C77.049 319.236 76.8448 319.269 76.6626 319.269C76.3417 319.269 76.0573 319.192 75.8167 319.035C75.5834 318.882 75.4667 318.638 75.4667 318.306C75.4667 318.066 75.5251 317.854 75.6417 317.679C75.7657 317.497 75.9115 317.344 76.0792 317.227C76.2542 317.11 76.4511 317.023 76.6771 316.965C76.8995 316.899 77.1146 316.863 77.3188 316.863C77.6178 316.863 77.8948 316.935 78.1501 317.081C78.4016 317.22 78.5292 317.46 78.5292 317.81ZM78.7188 325.86C78.7188 326.087 78.7188 326.32 78.7188 326.56C78.7188 326.805 78.7079 327.038 78.6896 327.26C78.6787 327.534 78.6751 327.895 78.6751 328.34C78.6751 328.788 78.6532 329.273 78.6167 329.798C78.5876 330.323 78.5365 330.855 78.4709 331.388C78.4016 331.924 78.285 332.416 78.1209 332.86C77.9641 333.298 77.7563 333.659 77.4938 333.94C77.2313 334.213 76.9032 334.355 76.5167 334.377C76.2141 334.384 75.9626 334.268 75.7584 334.013C75.5542 333.761 75.3829 333.437 75.248 333.035C75.1094 332.627 75.0073 332.175 74.9417 331.679C74.8834 331.183 74.8396 330.702 74.8105 330.235C74.7813 329.769 74.7667 329.342 74.7667 328.952C74.7667 328.555 74.7667 328.259 74.7667 328.063C74.7667 327.811 74.7667 327.45 74.7667 326.983C74.7667 326.517 74.7813 326.017 74.8105 325.481C74.8396 324.949 74.898 324.402 74.9855 323.848C75.073 323.294 75.1969 322.791 75.3646 322.331C75.5287 321.876 75.7438 321.507 76.0063 321.223C76.2761 320.931 76.6225 320.785 77.0417 320.785C77.4573 320.785 77.7782 321.001 78.0042 321.427C78.2266 321.857 78.3907 322.357 78.5001 322.929C78.6167 323.494 78.6787 324.059 78.6896 324.621C78.7079 325.186 78.7188 325.598 78.7188 325.86Z" fill="black"/>
<path d="M90.6098 325.861C90.2015 326.951 89.7494 328.088 89.2536 329.273C88.765 330.462 88.24 331.57 87.6786 332.598C87.3286 333.232 86.9385 333.757 86.5119 334.173C86.0817 334.589 85.5932 334.8 85.039 334.8C84.6015 334.8 84.1713 334.574 83.7557 334.129C83.3364 333.674 82.9463 333.134 82.589 332.511C82.239 331.891 81.9328 331.256 81.6703 330.615C81.4078 329.973 81.2109 329.463 81.0869 329.083C80.9593 328.657 80.8135 328.201 80.6494 327.713C80.4927 327.228 80.3505 326.732 80.2265 326.225C80.0989 325.722 79.9968 325.219 79.9203 324.723C79.84 324.22 79.8036 323.746 79.8036 323.308C79.8036 322.689 79.913 322.182 80.139 321.792C80.3614 321.394 80.7953 321.194 81.4369 321.194C81.6885 321.194 81.9182 321.274 82.1223 321.427C82.3338 321.573 82.5234 321.784 82.6911 322.054C82.8661 322.317 83.0302 322.63 83.1869 322.988C83.351 323.338 83.5005 323.728 83.639 324.154C83.7848 324.563 83.9197 324.993 84.0473 325.438C84.1713 325.875 84.2989 326.305 84.4265 326.721C84.5505 327.129 84.6817 327.53 84.8203 327.917C84.9552 328.307 85.1302 328.69 85.3453 329.069C85.4619 328.777 85.5859 328.453 85.7244 328.092C85.8703 327.734 86.0234 327.348 86.1911 326.94C86.3552 326.524 86.5302 326.101 86.7161 325.671C86.9093 325.233 87.1171 324.807 87.3432 324.388C87.7697 323.542 88.2218 322.82 88.6994 322.215C89.1843 321.613 89.6656 321.311 90.1432 321.311C90.5807 321.311 90.8906 321.449 91.0765 321.719C91.2697 321.981 91.3682 322.328 91.3682 322.754C91.3682 323.184 91.2953 323.669 91.1494 324.213C91.0109 324.749 90.8322 325.299 90.6098 325.861Z" fill="black"/>
<path d="M102.131 330.133C102.131 330.669 101.959 331.194 101.62 331.708C101.278 332.226 100.851 332.682 100.337 333.079C99.8193 333.48 99.2725 333.805 98.6891 334.056C98.1058 334.301 97.5699 334.421 97.085 334.421C96.2391 334.421 95.4881 334.213 94.8391 333.794C94.1865 333.378 93.636 332.842 93.1912 332.19C92.7537 331.541 92.4183 330.826 92.185 330.046C91.9516 329.269 91.835 328.507 91.835 327.756C91.835 326.969 91.9443 326.13 92.1704 325.233C92.3928 324.329 92.7282 323.498 93.1766 322.74C93.6324 321.981 94.2011 321.351 94.8829 320.844C95.5719 320.341 96.3886 320.085 97.3329 320.085C97.8761 320.085 98.3902 320.18 98.8787 320.363C99.3636 320.538 99.7865 320.793 100.147 321.121C100.516 321.453 100.811 321.85 101.037 322.317C101.259 322.776 101.372 323.286 101.372 323.848C101.372 324.588 101.212 325.284 100.891 325.933C100.578 326.586 100.162 327.151 99.637 327.625C99.112 328.092 98.5068 328.471 97.8287 328.763C97.1579 329.054 96.4652 329.222 95.7579 329.258C95.8162 329.718 95.9949 330.046 96.2975 330.25C96.6074 330.454 96.9756 330.556 97.4058 330.556C97.7266 330.556 98.0365 330.48 98.3391 330.323C98.6381 330.159 98.9298 329.98 99.2141 329.783C99.4949 329.59 99.7719 329.415 100.045 329.258C100.326 329.094 100.607 329.01 100.891 329.01C101.212 329.01 101.496 329.12 101.752 329.331C102.003 329.535 102.131 329.805 102.131 330.133ZM98.2808 324.329C98.2808 324.118 98.2261 323.903 98.1204 323.688C98.011 323.465 97.836 323.352 97.5954 323.352C97.2527 323.352 96.961 323.447 96.7204 323.629C96.487 323.804 96.2865 324.034 96.1225 324.315C95.9657 324.588 95.8454 324.883 95.7579 325.204C95.6704 325.518 95.6193 325.809 95.612 326.079C95.8344 326.032 96.0969 325.97 96.3995 325.89C96.7094 325.813 97.0011 325.707 97.2745 325.569C97.5553 325.434 97.7923 325.263 97.9891 325.058C98.1824 324.854 98.2808 324.614 98.2808 324.329Z" fill="black"/>
<path d="M112.691 317.81C112.691 318.026 112.633 318.219 112.516 318.394C112.4 318.569 112.243 318.726 112.05 318.86C111.864 318.999 111.66 319.101 111.437 319.167C111.211 319.236 111.007 319.269 110.825 319.269C110.504 319.269 110.219 319.192 109.979 319.035C109.745 318.882 109.629 318.638 109.629 318.306C109.629 318.066 109.687 317.854 109.804 317.679C109.928 317.497 110.074 317.344 110.241 317.227C110.416 317.11 110.613 317.023 110.839 316.965C111.062 316.899 111.277 316.863 111.481 316.863C111.78 316.863 112.057 316.935 112.312 317.081C112.564 317.22 112.691 317.46 112.691 317.81ZM112.881 325.86C112.881 326.087 112.881 326.32 112.881 326.56C112.881 326.805 112.87 327.038 112.852 327.26C112.841 327.534 112.837 327.895 112.837 328.34C112.837 328.788 112.815 329.273 112.779 329.798C112.75 330.323 112.699 330.855 112.633 331.388C112.564 331.924 112.447 332.416 112.283 332.86C112.126 333.298 111.918 333.659 111.656 333.94C111.393 334.213 111.065 334.355 110.679 334.377C110.376 334.384 110.125 334.268 109.92 334.013C109.716 333.761 109.545 333.437 109.41 333.035C109.272 332.627 109.169 332.175 109.104 331.679C109.045 331.183 109.002 330.702 108.973 330.235C108.943 329.769 108.929 329.342 108.929 328.952C108.929 328.555 108.929 328.259 108.929 328.063C108.929 327.811 108.929 327.45 108.929 326.983C108.929 326.517 108.943 326.017 108.973 325.481C109.002 324.949 109.06 324.402 109.148 323.848C109.235 323.294 109.359 322.791 109.527 322.331C109.691 321.876 109.906 321.507 110.168 321.223C110.438 320.931 110.785 320.785 111.204 320.785C111.619 320.785 111.94 321.001 112.166 321.427C112.389 321.857 112.553 322.357 112.662 322.929C112.779 323.494 112.841 324.059 112.852 324.621C112.87 325.186 112.881 325.598 112.881 325.86Z" fill="black"/>
<path d="M121.287 335.019C121.024 335.019 120.809 334.891 120.645 334.64C120.488 334.395 120.371 334.122 120.295 333.808C120.215 333.488 120.164 333.167 120.134 332.846C120.113 332.518 120.105 332.27 120.105 332.102C120.105 331.628 120.127 331.151 120.178 330.673C120.237 330.199 120.299 329.725 120.368 329.258C120.444 328.784 120.506 328.307 120.557 327.829C120.616 327.355 120.645 326.881 120.645 326.415C120.645 326.221 120.634 326.017 120.616 325.802C120.605 325.58 120.572 325.372 120.514 325.175C120.463 324.971 120.375 324.807 120.251 324.679C120.124 324.555 119.959 324.49 119.755 324.49C119.609 324.49 119.449 324.606 119.274 324.84C119.099 325.066 118.931 325.321 118.778 325.613C118.632 325.904 118.505 326.196 118.399 326.488C118.301 326.779 118.253 326.998 118.253 327.144C118.253 327.494 118.257 327.851 118.268 328.208C118.275 328.558 118.282 328.916 118.282 329.273V330.644C118.261 330.935 118.239 331.234 118.209 331.533C118.18 331.825 118.129 332.117 118.064 332.408C118.013 332.693 117.94 332.963 117.845 333.225C117.757 333.488 117.633 333.717 117.48 333.91C117.334 334.107 117.159 334.268 116.955 334.392C116.751 334.516 116.507 334.581 116.226 334.581C115.905 334.581 115.643 334.479 115.439 334.275C115.234 334.071 115.067 333.808 114.943 333.488C114.815 333.159 114.724 332.795 114.666 332.394C114.607 331.985 114.567 331.592 114.549 331.213C114.527 330.826 114.52 330.469 114.52 330.148C114.527 329.82 114.534 329.561 114.534 329.375V328.252C114.534 327.662 114.52 327.071 114.491 326.488C114.469 325.897 114.462 325.306 114.462 324.723C114.462 324.413 114.465 324.016 114.476 323.527C114.483 323.031 114.542 322.55 114.651 322.083C114.768 321.617 114.95 321.219 115.205 320.888C115.457 320.559 115.825 320.392 116.314 320.392C116.536 320.392 116.737 320.465 116.912 320.61C117.087 320.749 117.236 320.917 117.364 321.121C117.499 321.325 117.612 321.551 117.699 321.792C117.787 322.025 117.852 322.229 117.903 322.404C118.056 322.182 118.242 321.967 118.457 321.763C118.669 321.558 118.909 321.38 119.172 321.223C119.442 321.059 119.744 320.931 120.076 320.844C120.415 320.749 120.794 320.698 121.214 320.698C122.019 320.698 122.646 320.895 123.095 321.281C123.551 321.671 123.886 322.153 124.101 322.725C124.313 323.301 124.444 323.921 124.495 324.592C124.542 325.255 124.568 325.853 124.568 326.385C124.568 326.659 124.542 327.056 124.495 327.581C124.444 328.106 124.367 328.69 124.262 329.331C124.163 329.973 124.028 330.629 123.853 331.3C123.678 331.971 123.467 332.583 123.226 333.138C122.993 333.692 122.716 334.144 122.395 334.494C122.074 334.844 121.702 335.019 121.287 335.019Z" fill="black"/>
<path d="M137.11 335.208C135.991 335.208 135.119 335.055 134.499 334.756C133.876 334.465 133.409 334.053 133.099 333.517C132.786 332.984 132.596 332.336 132.531 331.577C132.472 330.819 132.443 329.973 132.443 329.04C132.443 328.303 132.465 327.559 132.516 326.808C132.563 326.05 132.636 325.244 132.735 324.388C132.509 324.388 132.334 324.395 132.21 324.402C132.082 324.413 131.98 324.417 131.904 324.417C131.397 324.417 130.959 324.311 130.591 324.096C130.212 323.874 130.022 323.527 130.022 323.061C130.022 322.78 130.132 322.532 130.343 322.317C130.558 322.094 130.832 321.905 131.16 321.748C131.499 321.584 131.86 321.456 132.239 321.369C132.625 321.274 132.997 321.205 133.347 321.165C133.347 320.727 133.377 320.242 133.435 319.706C133.5 319.163 133.617 318.664 133.785 318.204C133.949 317.738 134.171 317.351 134.456 317.038C134.747 316.717 135.112 316.556 135.549 316.556C135.801 316.556 136.023 316.629 136.22 316.775C136.424 316.921 136.588 317.111 136.716 317.344C136.84 317.577 136.935 317.836 136.993 318.117C137.059 318.401 137.095 318.678 137.095 318.948C137.095 319.262 137.07 319.582 137.022 319.911C136.971 320.242 136.884 320.654 136.76 321.15C137.03 321.121 137.212 321.103 137.299 321.092C137.394 321.084 137.482 321.077 137.562 321.077C137.832 321.077 138.116 321.103 138.408 321.15C138.699 321.201 138.966 321.278 139.21 321.383C139.45 321.493 139.651 321.639 139.808 321.821C139.972 322.007 140.056 322.226 140.056 322.477C140.056 322.762 139.939 323.013 139.706 323.236C139.48 323.462 139.195 323.651 138.845 323.804C138.495 323.961 138.12 324.081 137.722 324.169C137.332 324.256 136.964 324.315 136.614 324.344C136.527 324.996 136.457 325.594 136.41 326.138C136.37 326.684 136.33 327.231 136.293 327.786C136.253 328.048 136.22 328.321 136.191 328.602C136.169 328.876 136.162 329.156 136.162 329.448C136.162 329.652 136.169 329.896 136.191 330.177C136.209 330.451 136.264 330.713 136.352 330.965C136.446 331.22 136.599 331.439 136.804 331.621C137.008 331.796 137.292 331.883 137.664 331.883C137.886 331.883 138.116 331.865 138.349 331.825C138.583 331.789 138.82 331.767 139.064 331.767C139.472 331.767 139.764 331.909 139.939 332.19C140.121 332.474 140.216 332.839 140.216 333.283C140.216 333.615 140.118 333.903 139.924 334.144C139.728 334.384 139.48 334.581 139.181 334.727C138.878 334.88 138.543 334.997 138.174 335.077C137.803 335.165 137.449 335.208 137.11 335.208Z" fill="black"/>
<path d="M145.201 335.033C144.391 335.033 143.688 334.818 143.086 334.392C142.481 333.965 141.978 333.422 141.57 332.758C141.161 332.099 140.848 331.358 140.636 330.542C140.432 329.725 140.33 328.923 140.33 328.136C140.33 327.301 140.432 326.437 140.636 325.54C140.848 324.646 141.165 323.833 141.584 323.104C142.011 322.368 142.554 321.763 143.217 321.296C143.888 320.829 144.679 320.596 145.595 320.596C146.477 320.596 147.232 320.84 147.855 321.325C148.486 321.814 148.992 322.415 149.372 323.133C149.751 323.844 150.017 324.628 150.174 325.481C150.327 326.338 150.382 327.144 150.334 327.902C150.283 328.741 150.152 329.587 149.94 330.44C149.725 331.296 149.415 332.066 149.007 332.744C148.599 333.415 148.077 333.965 147.447 334.392C146.812 334.818 146.065 335.033 145.201 335.033ZM145.434 324.329C145.19 324.329 144.975 324.457 144.792 324.708C144.617 324.964 144.472 325.27 144.355 325.627C144.238 325.988 144.143 326.371 144.078 326.779C144.02 327.18 143.99 327.53 143.99 327.829C143.99 328.208 144.023 328.624 144.092 329.069C144.158 329.506 144.257 329.911 144.384 330.279C144.508 330.651 144.665 330.961 144.851 331.213C145.033 331.457 145.245 331.577 145.478 331.577C145.729 331.577 145.945 331.461 146.12 331.227C146.302 330.987 146.448 330.684 146.557 330.323C146.674 329.955 146.754 329.557 146.805 329.127C146.852 328.69 146.878 328.281 146.878 327.902C146.878 327.552 146.841 327.169 146.776 326.75C146.717 326.334 146.63 325.944 146.513 325.583C146.397 325.215 146.243 324.913 146.061 324.679C145.875 324.446 145.667 324.329 145.434 324.329Z" fill="black"/>
<path d="M166.048 325.248C166.048 325.328 166.037 325.408 166.019 325.496C165.997 325.583 165.975 325.667 165.946 325.744C165.808 326.105 165.589 326.411 165.29 326.663C164.987 326.907 164.634 327.027 164.225 327.027C163.602 327.027 163.179 326.717 162.957 326.094C162.927 326.017 162.913 325.93 162.913 325.831C162.913 325.726 162.905 325.62 162.898 325.511V324.825C162.858 324.603 162.8 324.428 162.723 324.3C162.643 324.176 162.512 324.111 162.329 324.111C162.056 324.111 161.797 324.282 161.557 324.621C161.312 324.964 161.097 325.365 160.915 325.831C160.729 326.298 160.579 326.776 160.463 327.261C160.353 327.749 160.302 328.143 160.302 328.442C160.302 328.686 160.317 328.978 160.346 329.317C160.383 329.659 160.448 329.988 160.536 330.308C160.63 330.622 160.762 330.892 160.929 331.125C161.104 331.351 161.323 331.461 161.586 331.461C161.855 331.461 162.103 331.38 162.329 331.213C162.563 331.049 162.789 330.855 163.015 330.629C163.219 330.436 163.441 330.236 163.686 330.031C163.926 329.827 164.211 329.725 164.532 329.725C164.918 329.725 165.224 329.871 165.45 330.163C165.684 330.447 165.8 330.768 165.8 331.125C165.8 331.661 165.658 332.161 165.377 332.627C165.093 333.094 164.739 333.499 164.313 333.838C163.883 334.18 163.409 334.443 162.884 334.64C162.366 334.844 161.87 334.946 161.396 334.946C160.539 334.946 159.814 334.731 159.223 334.304C158.64 333.878 158.162 333.338 157.794 332.686C157.433 332.026 157.171 331.311 157.007 330.542C156.85 329.765 156.773 329.025 156.773 328.325C156.773 327.519 156.883 326.648 157.109 325.715C157.331 324.774 157.67 323.899 158.129 323.09C158.585 322.284 159.172 321.613 159.894 321.077C160.612 320.545 161.469 320.275 162.461 320.275C163.08 320.275 163.616 320.414 164.065 320.683C164.51 320.946 164.882 321.296 165.173 321.733C165.465 322.164 165.684 322.649 165.829 323.192C165.983 323.728 166.063 324.253 166.063 324.767C166.063 324.854 166.063 324.938 166.063 325.015C166.063 325.095 166.055 325.171 166.048 325.248Z" fill="black"/>
<path d="M178.133 328.208C178.133 328.482 178.126 328.887 178.118 329.419C178.107 329.944 178.082 330.494 178.045 331.067C178.005 331.643 177.951 332.186 177.885 332.7C177.827 333.218 177.746 333.59 177.652 333.823C177.524 334.126 177.36 334.384 177.156 334.61C176.952 334.833 176.675 334.946 176.325 334.946C175.789 334.946 175.399 334.731 175.158 334.304C174.925 333.878 174.768 333.349 174.691 332.715C174.611 332.084 174.578 331.399 174.589 330.658C174.607 329.911 174.604 329.222 174.575 328.588C174.545 327.957 174.458 327.428 174.312 326.998C174.166 326.571 173.904 326.356 173.525 326.356C173.007 326.356 172.609 326.44 172.329 326.604C172.055 326.772 171.855 326.991 171.731 327.26C171.614 327.534 171.545 327.844 171.527 328.194C171.505 328.537 171.476 328.894 171.439 329.273C171.41 329.645 171.384 330.133 171.366 330.746C171.355 331.358 171.286 331.967 171.162 332.569C171.034 333.174 170.827 333.692 170.535 334.129C170.243 334.556 169.809 334.771 169.237 334.771C168.887 334.771 168.603 334.632 168.391 334.363C168.187 334.1 168.019 333.757 167.895 333.327C167.768 332.901 167.677 332.43 167.618 331.913C167.56 331.388 167.524 330.877 167.516 330.381C167.516 329.885 167.516 329.433 167.516 329.025C167.524 328.609 167.531 328.296 167.531 328.092C167.531 327.771 167.538 327.253 167.56 326.531C167.589 325.802 167.64 324.993 167.72 324.096C167.797 323.203 167.899 322.284 168.027 321.34C168.151 320.388 168.318 319.524 168.522 318.744C168.734 317.956 168.989 317.322 169.281 316.833C169.572 316.349 169.912 316.112 170.302 316.119C170.553 316.141 170.772 316.25 170.958 316.454C171.14 316.658 171.293 316.928 171.41 317.256C171.527 317.577 171.621 317.927 171.702 318.306C171.778 318.685 171.837 319.061 171.877 319.429C171.913 319.801 171.939 320.144 171.95 320.465C171.957 320.778 171.964 321.019 171.964 321.194C171.964 321.602 171.953 322.018 171.935 322.433C171.924 322.842 171.906 323.25 171.877 323.658C172.234 323.174 172.715 322.776 173.32 322.463C173.933 322.142 174.545 321.981 175.158 321.981C175.953 321.981 176.551 322.2 176.952 322.638C177.36 323.068 177.644 323.6 177.812 324.242C177.987 324.883 178.082 325.565 178.104 326.283C178.122 327.005 178.133 327.647 178.133 328.208Z" fill="black"/>
<path d="M189.739 330.133C189.739 330.669 189.568 331.194 189.229 331.708C188.886 332.226 188.46 332.682 187.946 333.079C187.428 333.48 186.881 333.805 186.298 334.056C185.714 334.301 185.178 334.421 184.693 334.421C183.848 334.421 183.097 334.213 182.448 333.794C181.795 333.378 181.245 332.842 180.8 332.19C180.362 331.541 180.027 330.826 179.793 330.046C179.56 329.269 179.443 328.507 179.443 327.756C179.443 326.969 179.553 326.13 179.779 325.233C180.001 324.329 180.337 323.498 180.785 322.74C181.241 321.981 181.81 321.351 182.491 320.844C183.18 320.341 183.997 320.085 184.941 320.085C185.485 320.085 185.999 320.18 186.487 320.363C186.972 320.538 187.395 320.793 187.756 321.121C188.124 321.453 188.42 321.85 188.646 322.317C188.868 322.776 188.981 323.286 188.981 323.848C188.981 324.588 188.821 325.284 188.5 325.933C188.186 326.586 187.771 327.151 187.246 327.625C186.721 328.092 186.115 328.471 185.437 328.763C184.766 329.054 184.074 329.222 183.366 329.258C183.425 329.718 183.603 330.046 183.906 330.25C184.216 330.454 184.584 330.556 185.014 330.556C185.335 330.556 185.645 330.48 185.948 330.323C186.247 330.159 186.538 329.98 186.823 329.783C187.103 329.59 187.38 329.415 187.654 329.258C187.935 329.094 188.215 329.01 188.5 329.01C188.821 329.01 189.105 329.12 189.36 329.331C189.612 329.535 189.739 329.805 189.739 330.133ZM185.889 324.329C185.889 324.118 185.835 323.903 185.729 323.688C185.62 323.465 185.445 323.352 185.204 323.352C184.861 323.352 184.57 323.447 184.329 323.629C184.096 323.804 183.895 324.034 183.731 324.315C183.574 324.588 183.454 324.883 183.366 325.204C183.279 325.518 183.228 325.809 183.221 326.079C183.443 326.032 183.705 325.97 184.008 325.89C184.318 325.813 184.61 325.707 184.883 325.569C185.164 325.434 185.401 325.263 185.598 325.058C185.791 324.854 185.889 324.614 185.889 324.329Z" fill="black"/>
<path d="M199.476 325.248C199.476 325.328 199.465 325.408 199.447 325.496C199.425 325.583 199.403 325.667 199.374 325.744C199.235 326.105 199.017 326.411 198.718 326.663C198.415 326.907 198.061 327.027 197.653 327.027C197.03 327.027 196.607 326.717 196.384 326.094C196.355 326.017 196.341 325.93 196.341 325.831C196.341 325.726 196.333 325.62 196.326 325.511V324.825C196.286 324.603 196.227 324.428 196.151 324.3C196.071 324.176 195.939 324.111 195.757 324.111C195.484 324.111 195.225 324.282 194.984 324.621C194.74 324.964 194.525 325.365 194.343 325.831C194.157 326.298 194.007 326.776 193.891 327.261C193.781 327.749 193.73 328.143 193.73 328.442C193.73 328.686 193.745 328.978 193.774 329.317C193.81 329.659 193.876 329.988 193.963 330.308C194.058 330.622 194.189 330.892 194.357 331.125C194.532 331.351 194.751 331.461 195.013 331.461C195.283 331.461 195.531 331.38 195.757 331.213C195.991 331.049 196.217 330.855 196.443 330.629C196.647 330.436 196.869 330.236 197.113 330.031C197.354 329.827 197.638 329.725 197.959 329.725C198.346 329.725 198.652 329.871 198.878 330.163C199.111 330.447 199.228 330.768 199.228 331.125C199.228 331.661 199.086 332.161 198.805 332.627C198.521 333.094 198.167 333.499 197.741 333.838C197.31 334.18 196.836 334.443 196.311 334.64C195.794 334.844 195.298 334.946 194.824 334.946C193.967 334.946 193.242 334.731 192.651 334.304C192.068 333.878 191.59 333.338 191.222 332.686C190.861 332.026 190.598 331.311 190.434 330.542C190.277 329.765 190.201 329.025 190.201 328.325C190.201 327.519 190.31 326.648 190.536 325.715C190.759 324.774 191.098 323.899 191.557 323.09C192.013 322.284 192.6 321.613 193.322 321.077C194.04 320.545 194.897 320.275 195.888 320.275C196.508 320.275 197.044 320.414 197.493 320.683C197.937 320.946 198.309 321.296 198.601 321.733C198.893 322.164 199.111 322.649 199.257 323.192C199.41 323.728 199.491 324.253 199.491 324.767C199.491 324.854 199.491 324.938 199.491 325.015C199.491 325.095 199.483 325.171 199.476 325.248Z" fill="black"/>
<path d="M211.313 321.602C211.313 322.04 211.196 322.488 210.963 322.944C210.737 323.403 210.467 323.859 210.146 324.315C209.825 324.763 209.482 325.19 209.125 325.598C208.764 325.999 208.454 326.364 208.192 326.692C208.414 327.042 208.691 327.505 209.023 328.077C209.351 328.653 209.668 329.266 209.971 329.915C210.27 330.567 210.525 331.198 210.729 331.81C210.941 332.423 211.05 332.941 211.05 333.356C211.05 333.688 210.948 333.994 210.744 334.275C210.54 334.545 210.255 334.683 209.898 334.683C209.625 334.683 209.348 334.57 209.067 334.348C208.793 334.115 208.516 333.816 208.236 333.444C207.962 333.065 207.7 332.649 207.448 332.19C207.193 331.734 206.959 331.285 206.748 330.848C206.544 330.403 206.354 329.984 206.179 329.594C206.012 329.207 205.888 328.894 205.8 328.66C205.596 328.865 205.377 329.036 205.144 329.171C204.911 329.309 204.684 329.463 204.473 329.638C204.473 329.969 204.458 330.436 204.429 331.038C204.407 331.632 204.334 332.219 204.211 332.802C204.094 333.385 203.897 333.896 203.627 334.333C203.365 334.771 202.975 334.99 202.461 334.99C202.041 334.99 201.72 334.8 201.498 334.421C201.283 334.053 201.123 333.619 201.017 333.123C200.918 332.627 200.86 332.124 200.842 331.606C200.82 331.092 200.813 330.702 200.813 330.44C200.813 329.273 200.842 328.106 200.9 326.94C200.966 325.766 201.009 324.592 201.031 323.425C201.031 323.155 201.035 322.805 201.046 322.375C201.053 321.938 201.079 321.467 201.119 320.96C201.166 320.457 201.239 319.947 201.338 319.429C201.432 318.904 201.571 318.434 201.746 318.015C201.921 317.588 202.143 317.249 202.417 316.994C202.698 316.731 203.033 316.6 203.423 316.6C203.704 316.6 203.941 316.709 204.138 316.921C204.342 317.136 204.502 317.409 204.619 317.738C204.736 318.069 204.823 318.438 204.881 318.846C204.94 319.254 204.976 319.663 204.998 320.071C205.027 320.472 205.042 320.844 205.042 321.194C205.042 321.544 205.042 321.821 205.042 322.025C205.042 322.171 205.034 322.382 205.027 322.652C205.016 322.926 205.005 323.214 204.998 323.513C204.987 323.815 204.983 324.092 204.983 324.344C204.983 324.599 205.002 324.781 205.042 324.898C205.148 324.898 205.312 324.792 205.538 324.577C205.76 324.366 206.019 324.092 206.311 323.76C206.602 323.421 206.916 323.068 207.258 322.696C207.598 322.328 207.944 321.978 208.294 321.646C208.651 321.318 209.001 321.044 209.344 320.829C209.694 320.618 210.018 320.508 210.321 320.508C210.642 320.508 210.882 320.621 211.05 320.844C211.225 321.059 211.313 321.31 211.313 321.602Z" fill="black"/>
<path d="M229.653 334.654C229.147 334.654 228.691 334.384 228.283 333.852C227.882 333.32 227.532 332.678 227.233 331.927C226.93 331.169 226.682 330.396 226.489 329.608C226.292 328.821 226.146 328.165 226.051 327.64C225.924 327.96 225.752 328.351 225.541 328.806C225.326 329.266 225.078 329.747 224.797 330.25C224.524 330.757 224.228 331.267 223.908 331.781C223.594 332.288 223.27 332.751 222.931 333.167C222.588 333.575 222.249 333.907 221.91 334.158C221.578 334.41 221.253 334.538 220.933 334.538C220.502 334.538 220.131 334.333 219.81 333.925C219.489 333.509 219.215 332.97 218.993 332.306C218.767 331.646 218.577 330.914 218.424 330.104C218.278 329.299 218.165 328.493 218.089 327.683C218.009 326.878 217.95 326.13 217.914 325.438C217.885 324.738 217.87 324.18 217.87 323.76C217.87 323.363 217.888 322.984 217.928 322.623C217.976 322.255 218.06 321.93 218.176 321.646C218.293 321.365 218.461 321.143 218.687 320.975C218.92 320.811 219.226 320.727 219.606 320.727C219.963 320.727 220.276 320.866 220.539 321.135C220.801 321.398 221.02 321.748 221.195 322.185C221.37 322.616 221.509 323.101 221.618 323.644C221.735 324.191 221.822 324.745 221.881 325.306C221.946 325.871 221.99 326.422 222.012 326.954C222.03 327.479 222.048 327.931 222.07 328.31C222.165 327.971 222.303 327.563 222.478 327.085C222.653 326.601 222.843 326.087 223.047 325.54C223.251 324.996 223.474 324.457 223.718 323.921C223.959 323.389 224.203 322.907 224.447 322.477C224.699 322.051 224.943 321.704 225.176 321.442C225.41 321.172 225.636 321.033 225.862 321.033H225.891C226.172 321.033 226.445 321.172 226.708 321.442C226.977 321.704 227.24 322.051 227.495 322.477C227.747 322.907 227.984 323.392 228.21 323.935C228.432 324.482 228.636 325.037 228.822 325.598C229.015 326.152 229.179 326.699 229.318 327.231C229.464 327.756 229.584 328.208 229.683 328.588C229.69 328.132 229.712 327.618 229.741 327.042C229.777 326.458 229.843 325.875 229.931 325.292C230.018 324.708 230.135 324.14 230.281 323.585C230.434 323.031 230.62 322.543 230.835 322.113C231.057 321.675 231.331 321.325 231.651 321.063C231.979 320.8 232.359 320.669 232.789 320.669C233.226 320.669 233.551 320.826 233.766 321.135C233.977 321.449 234.087 321.821 234.087 322.258C234.087 322.736 234.028 323.367 233.912 324.154C233.795 324.942 233.627 325.802 233.416 326.735C233.212 327.662 232.968 328.595 232.687 329.535C232.413 330.469 232.111 331.315 231.783 332.073C231.451 332.831 231.101 333.455 230.733 333.94C230.372 334.414 230.011 334.654 229.653 334.654Z" fill="black"/>
<path d="M246.149 328.208C246.149 328.482 246.142 328.887 246.135 329.419C246.124 329.944 246.098 330.494 246.062 331.067C246.022 331.643 245.967 332.186 245.901 332.7C245.843 333.218 245.763 333.59 245.668 333.823C245.54 334.126 245.376 334.384 245.172 334.61C244.968 334.833 244.691 334.946 244.341 334.946C243.805 334.946 243.415 334.731 243.174 334.304C242.941 333.878 242.784 333.349 242.707 332.715C242.627 332.084 242.594 331.399 242.605 330.658C242.624 329.911 242.62 329.222 242.591 328.588C242.562 327.957 242.474 327.428 242.328 326.998C242.182 326.571 241.92 326.356 241.541 326.356C241.023 326.356 240.626 326.44 240.345 326.604C240.072 326.772 239.871 326.991 239.747 327.26C239.63 327.534 239.561 327.844 239.543 328.194C239.521 328.537 239.492 328.894 239.455 329.273C239.426 329.645 239.401 330.133 239.382 330.746C239.372 331.358 239.302 331.967 239.178 332.569C239.051 333.174 238.843 333.692 238.551 334.129C238.26 334.556 237.826 334.771 237.253 334.771C236.903 334.771 236.619 334.632 236.407 334.363C236.203 334.1 236.036 333.757 235.912 333.327C235.784 332.901 235.693 332.43 235.635 331.913C235.576 331.388 235.54 330.877 235.532 330.381C235.532 329.885 235.532 329.433 235.532 329.025C235.54 328.609 235.547 328.296 235.547 328.092C235.547 327.771 235.554 327.253 235.576 326.531C235.605 325.802 235.656 324.993 235.737 324.096C235.813 323.203 235.915 322.284 236.043 321.34C236.167 320.388 236.335 319.524 236.539 318.744C236.75 317.956 237.005 317.322 237.297 316.833C237.589 316.349 237.928 316.112 238.318 316.119C238.569 316.141 238.788 316.25 238.974 316.454C239.156 316.658 239.31 316.928 239.426 317.256C239.543 317.577 239.638 317.927 239.718 318.306C239.794 318.685 239.853 319.061 239.893 319.429C239.929 319.801 239.955 320.144 239.966 320.465C239.973 320.778 239.98 321.019 239.98 321.194C239.98 321.602 239.969 322.018 239.951 322.433C239.94 322.842 239.922 323.25 239.893 323.658C240.25 323.174 240.731 322.776 241.337 322.463C241.949 322.142 242.562 321.981 243.174 321.981C243.969 321.981 244.567 322.2 244.968 322.638C245.376 323.068 245.661 323.6 245.828 324.242C246.003 324.883 246.098 325.565 246.12 326.283C246.138 327.005 246.149 327.647 246.149 328.208Z" fill="black"/>
<path d="M257.887 331.008C257.887 331.293 257.876 331.661 257.858 332.117C257.836 332.576 257.77 333.021 257.654 333.458C257.544 333.896 257.369 334.271 257.129 334.581C256.895 334.902 256.563 335.063 256.137 335.063C255.554 335.063 255.101 334.873 254.781 334.494C254.467 334.115 254.321 333.641 254.343 333.065C253.836 333.513 253.264 333.863 252.622 334.115C251.981 334.366 251.328 334.494 250.668 334.494C250.209 334.494 249.771 334.381 249.356 334.158C248.947 333.936 248.583 333.655 248.262 333.313C247.948 332.963 247.697 332.569 247.504 332.131C247.318 331.694 247.226 331.264 247.226 330.833C247.226 330.075 247.46 329.415 247.926 328.85C248.393 328.278 248.966 327.793 249.647 327.392C250.325 326.994 251.047 326.677 251.806 326.444C252.571 326.203 253.257 326.043 253.862 325.963C253.862 325.886 253.866 325.817 253.876 325.758C253.884 325.693 253.891 325.613 253.891 325.525C253.891 325.04 253.752 324.646 253.483 324.344C253.22 324.045 252.841 323.892 252.345 323.892C251.955 323.892 251.616 323.961 251.324 324.096C251.04 324.234 250.774 324.384 250.522 324.548C250.267 324.716 250.016 324.865 249.764 325C249.509 325.139 249.228 325.204 248.918 325.204C248.568 325.204 248.266 325.095 248.014 324.869C247.77 324.646 247.649 324.358 247.649 324.008C247.649 323.494 247.802 323.024 248.116 322.594C248.426 322.167 248.816 321.806 249.283 321.515C249.749 321.223 250.252 320.997 250.799 320.829C251.343 320.665 251.842 320.581 252.301 320.581C252.728 320.581 253.155 320.636 253.585 320.742C254.011 320.84 254.416 320.997 254.795 321.208C255.174 321.424 255.513 321.686 255.816 321.996C256.126 322.299 256.374 322.652 256.56 323.06C256.851 323.655 257.077 324.278 257.245 324.927C257.42 325.58 257.555 326.251 257.654 326.94C257.748 327.632 257.814 328.321 257.843 329.01C257.872 329.692 257.887 330.359 257.887 331.008ZM254.095 330.25L254.037 328.631C253.997 328.631 253.964 328.631 253.935 328.631C253.906 328.624 253.876 328.617 253.847 328.617C253.632 328.617 253.37 328.671 253.06 328.777C252.757 328.876 252.466 329.018 252.185 329.2C251.9 329.375 251.66 329.576 251.456 329.798C251.259 330.024 251.164 330.25 251.164 330.483C251.164 330.709 251.241 330.859 251.397 330.935C251.55 331.016 251.736 331.052 251.951 331.052C252.291 331.052 252.659 330.965 253.06 330.79C253.457 330.607 253.804 330.425 254.095 330.25Z" fill="black"/>
<path d="M264.827 335.208C263.708 335.208 262.836 335.055 262.216 334.756C261.593 334.465 261.126 334.053 260.816 333.517C260.503 332.984 260.313 332.336 260.248 331.577C260.189 330.819 260.16 329.973 260.16 329.04C260.16 328.303 260.182 327.559 260.233 326.808C260.281 326.05 260.353 325.244 260.452 324.388C260.226 324.388 260.051 324.395 259.927 324.402C259.799 324.413 259.697 324.417 259.621 324.417C259.114 324.417 258.676 324.311 258.308 324.096C257.929 323.874 257.739 323.527 257.739 323.061C257.739 322.78 257.849 322.532 258.06 322.317C258.275 322.094 258.549 321.905 258.877 321.748C259.216 321.584 259.577 321.456 259.956 321.369C260.343 321.274 260.714 321.205 261.064 321.165C261.064 320.727 261.094 320.242 261.152 319.706C261.218 319.163 261.334 318.664 261.502 318.204C261.666 317.738 261.888 317.351 262.173 317.038C262.464 316.717 262.829 316.556 263.266 316.556C263.518 316.556 263.74 316.629 263.937 316.775C264.141 316.921 264.306 317.111 264.433 317.344C264.557 317.577 264.652 317.836 264.71 318.117C264.776 318.401 264.812 318.678 264.812 318.948C264.812 319.262 264.787 319.582 264.739 319.911C264.688 320.242 264.601 320.654 264.477 321.15C264.747 321.121 264.929 321.103 265.016 321.092C265.111 321.084 265.199 321.077 265.279 321.077C265.549 321.077 265.833 321.103 266.125 321.15C266.416 321.201 266.683 321.278 266.927 321.383C267.168 321.493 267.368 321.639 267.525 321.821C267.689 322.007 267.773 322.226 267.773 322.477C267.773 322.762 267.656 323.013 267.423 323.236C267.197 323.462 266.912 323.651 266.562 323.804C266.212 323.961 265.837 324.081 265.439 324.169C265.049 324.256 264.681 324.315 264.331 324.344C264.244 324.996 264.174 325.594 264.127 326.138C264.087 326.684 264.047 327.231 264.01 327.786C263.97 328.048 263.937 328.321 263.908 328.602C263.886 328.876 263.879 329.156 263.879 329.448C263.879 329.652 263.886 329.896 263.908 330.177C263.926 330.451 263.981 330.713 264.069 330.965C264.163 331.22 264.316 331.439 264.521 331.621C264.725 331.796 265.009 331.883 265.381 331.883C265.603 331.883 265.833 331.865 266.066 331.825C266.3 331.789 266.537 331.767 266.781 331.767C267.189 331.767 267.481 331.909 267.656 332.19C267.838 332.474 267.933 332.839 267.933 333.283C267.933 333.615 267.835 333.903 267.641 334.144C267.445 334.384 267.197 334.581 266.898 334.727C266.595 334.88 266.26 334.997 265.891 335.077C265.52 335.165 265.166 335.208 264.827 335.208Z" fill="black"/>
<path d="M270.759 319.021C270.759 319.254 270.738 319.619 270.701 320.115C270.672 320.611 270.617 321.114 270.541 321.617C270.461 322.113 270.34 322.546 270.176 322.915C270.019 323.287 269.826 323.469 269.593 323.469C269.447 323.469 269.319 323.378 269.214 323.192C269.104 322.999 269.009 322.762 268.922 322.477C268.834 322.196 268.754 321.879 268.689 321.529C268.63 321.179 268.579 320.84 268.543 320.508C268.503 320.18 268.474 319.881 268.455 319.619C268.433 319.356 268.426 319.163 268.426 319.036C268.426 318.882 268.433 318.671 268.455 318.408C268.474 318.139 268.517 317.869 268.587 317.606C268.652 317.344 268.754 317.125 268.893 316.95C269.028 316.768 269.221 316.673 269.476 316.673C269.757 316.673 269.979 316.757 270.147 316.921C270.311 317.089 270.442 317.293 270.541 317.533C270.636 317.778 270.694 318.037 270.716 318.306C270.745 318.569 270.759 318.809 270.759 319.021Z" fill="black"/>
<path d="M279.144 321.31C279.144 321.77 278.987 322.109 278.677 322.331C278.375 322.557 278.036 322.765 277.656 322.958C277.277 323.155 276.931 323.389 276.621 323.658C276.307 323.932 276.154 324.336 276.154 324.869C276.154 325.153 276.22 325.394 276.358 325.598C276.493 325.802 276.657 325.992 276.854 326.167C277.047 326.334 277.263 326.502 277.496 326.677C277.737 326.845 277.955 327.038 278.152 327.26C278.356 327.486 278.52 327.756 278.648 328.077C278.783 328.391 278.852 328.773 278.852 329.229C278.852 329.893 278.681 330.542 278.342 331.183C278.01 331.825 277.576 332.394 277.044 332.89C276.519 333.385 275.921 333.786 275.25 334.085C274.587 334.384 273.938 334.538 273.296 334.538C273.022 334.538 272.749 334.516 272.479 334.479C272.217 334.439 271.976 334.366 271.765 334.26C271.55 334.144 271.371 333.991 271.225 333.794C271.079 333.59 271.006 333.334 271.006 333.021C271.006 332.576 271.094 332.23 271.269 331.985C271.444 331.745 271.666 331.555 271.94 331.417C272.209 331.271 272.497 331.161 272.8 331.081C273.11 331.005 273.398 330.906 273.661 330.79C273.93 330.666 274.156 330.509 274.331 330.323C274.506 330.13 274.594 329.856 274.594 329.506C274.594 329.178 274.463 328.835 274.2 328.485C273.938 328.128 273.646 327.749 273.325 327.348C273.012 326.94 272.727 326.509 272.465 326.05C272.209 325.594 272.086 325.088 272.086 324.533C272.086 323.855 272.22 323.228 272.494 322.652C272.775 322.08 273.143 321.58 273.602 321.15C274.069 320.723 274.601 320.388 275.206 320.144C275.808 319.903 276.439 319.779 277.102 319.779C277.354 319.779 277.602 319.805 277.846 319.852C278.097 319.892 278.316 319.976 278.502 320.1C278.695 320.217 278.852 320.373 278.969 320.567C279.086 320.764 279.144 321.011 279.144 321.31Z" fill="black"/>
<path d="M291.313 335.208C290.194 335.208 289.323 335.055 288.703 334.756C288.079 334.465 287.613 334.053 287.303 333.517C286.989 332.984 286.8 332.336 286.734 331.577C286.676 330.819 286.647 329.973 286.647 329.04C286.647 328.303 286.668 327.559 286.719 326.808C286.767 326.05 286.84 325.244 286.938 324.388C286.712 324.388 286.537 324.395 286.413 324.402C286.286 324.413 286.184 324.417 286.107 324.417C285.6 324.417 285.163 324.311 284.794 324.096C284.415 323.874 284.226 323.527 284.226 323.061C284.226 322.78 284.335 322.532 284.547 322.317C284.762 322.094 285.035 321.905 285.363 321.748C285.702 321.584 286.063 321.456 286.442 321.369C286.829 321.274 287.201 321.205 287.551 321.165C287.551 320.727 287.58 320.242 287.638 319.706C287.704 319.163 287.82 318.664 287.988 318.204C288.152 317.738 288.375 317.351 288.659 317.038C288.951 316.717 289.315 316.556 289.753 316.556C290.004 316.556 290.227 316.629 290.424 316.775C290.628 316.921 290.792 317.111 290.919 317.344C291.043 317.577 291.138 317.836 291.197 318.117C291.262 318.401 291.299 318.678 291.299 318.948C291.299 319.262 291.273 319.582 291.226 319.911C291.175 320.242 291.087 320.654 290.963 321.15C291.233 321.121 291.415 321.103 291.503 321.092C291.598 321.084 291.685 321.077 291.765 321.077C292.035 321.077 292.319 321.103 292.611 321.15C292.903 321.201 293.169 321.278 293.413 321.383C293.654 321.493 293.854 321.639 294.011 321.821C294.175 322.007 294.259 322.226 294.259 322.477C294.259 322.762 294.142 323.013 293.909 323.236C293.683 323.462 293.399 323.651 293.049 323.804C292.699 323.961 292.323 324.081 291.926 324.169C291.536 324.256 291.167 324.315 290.817 324.344C290.73 324.996 290.661 325.594 290.613 326.138C290.573 326.684 290.533 327.231 290.497 327.786C290.456 328.048 290.424 328.321 290.394 328.602C290.373 328.876 290.365 329.156 290.365 329.448C290.365 329.652 290.373 329.896 290.394 330.177C290.413 330.451 290.467 330.713 290.555 330.965C290.65 331.22 290.803 331.439 291.007 331.621C291.211 331.796 291.495 331.883 291.867 331.883C292.09 331.883 292.319 331.865 292.553 331.825C292.786 331.789 293.023 331.767 293.267 331.767C293.676 331.767 293.967 331.909 294.142 332.19C294.325 332.474 294.419 332.839 294.419 333.283C294.419 333.615 294.321 333.903 294.128 334.144C293.931 334.384 293.683 334.581 293.384 334.727C293.081 334.88 292.746 334.997 292.378 335.077C292.006 335.165 291.652 335.208 291.313 335.208Z" fill="black"/>
<path d="M305.66 328.208C305.66 328.482 305.653 328.887 305.646 329.419C305.635 329.944 305.609 330.494 305.573 331.067C305.533 331.643 305.478 332.186 305.412 332.7C305.354 333.218 305.274 333.59 305.179 333.823C305.052 334.126 304.887 334.384 304.683 334.61C304.479 334.833 304.202 334.946 303.852 334.946C303.316 334.946 302.926 334.731 302.685 334.304C302.452 333.878 302.295 333.349 302.219 332.715C302.138 332.084 302.106 331.399 302.117 330.658C302.135 329.911 302.131 329.222 302.102 328.588C302.073 327.957 301.985 327.428 301.84 326.998C301.694 326.571 301.431 326.356 301.052 326.356C300.534 326.356 300.137 326.44 299.856 326.604C299.583 326.772 299.382 326.991 299.258 327.26C299.142 327.534 299.072 327.844 299.054 328.194C299.032 328.537 299.003 328.894 298.967 329.273C298.937 329.645 298.912 330.133 298.894 330.746C298.883 331.358 298.813 331.967 298.69 332.569C298.562 333.174 298.354 333.692 298.062 334.129C297.771 334.556 297.337 334.771 296.765 334.771C296.415 334.771 296.13 334.632 295.919 334.363C295.715 334.1 295.547 333.757 295.423 333.327C295.295 332.901 295.204 332.43 295.146 331.913C295.087 331.388 295.051 330.877 295.044 330.381C295.044 329.885 295.044 329.433 295.044 329.025C295.051 328.609 295.058 328.296 295.058 328.092C295.058 327.771 295.066 327.253 295.087 326.531C295.117 325.802 295.168 324.993 295.248 324.096C295.324 323.203 295.427 322.284 295.554 321.34C295.678 320.388 295.846 319.524 296.05 318.744C296.261 317.956 296.517 317.322 296.808 316.833C297.1 316.349 297.439 316.112 297.829 316.119C298.081 316.141 298.299 316.25 298.485 316.454C298.668 316.658 298.821 316.928 298.937 317.256C299.054 317.577 299.149 317.927 299.229 318.306C299.306 318.685 299.364 319.061 299.404 319.429C299.441 319.801 299.466 320.144 299.477 320.465C299.484 320.778 299.492 321.019 299.492 321.194C299.492 321.602 299.481 322.018 299.462 322.433C299.452 322.842 299.433 323.25 299.404 323.658C299.761 323.174 300.243 322.776 300.848 322.463C301.46 322.142 302.073 321.981 302.685 321.981C303.48 321.981 304.078 322.2 304.479 322.638C304.887 323.068 305.172 323.6 305.34 324.242C305.515 324.883 305.609 325.565 305.631 326.283C305.649 327.005 305.66 327.647 305.66 328.208Z" fill="black"/>
<path d="M317.267 330.133C317.267 330.669 317.095 331.194 316.756 331.708C316.414 332.226 315.987 332.682 315.473 333.079C314.955 333.48 314.408 333.805 313.825 334.056C313.242 334.301 312.706 334.421 312.221 334.421C311.375 334.421 310.624 334.213 309.975 333.794C309.323 333.378 308.772 332.842 308.327 332.19C307.89 331.541 307.554 330.826 307.321 330.046C307.088 329.269 306.971 328.507 306.971 327.756C306.971 326.969 307.08 326.13 307.306 325.233C307.529 324.329 307.864 323.498 308.313 322.74C308.768 321.981 309.337 321.351 310.019 320.844C310.708 320.341 311.525 320.085 312.469 320.085C313.012 320.085 313.526 320.18 314.015 320.363C314.5 320.538 314.923 320.793 315.283 321.121C315.652 321.453 315.947 321.85 316.173 322.317C316.395 322.776 316.508 323.286 316.508 323.848C316.508 324.588 316.348 325.284 316.027 325.933C315.714 326.586 315.298 327.151 314.773 327.625C314.248 328.092 313.643 328.471 312.965 328.763C312.294 329.054 311.601 329.222 310.894 329.258C310.952 329.718 311.131 330.046 311.433 330.25C311.743 330.454 312.112 330.556 312.542 330.556C312.863 330.556 313.173 330.48 313.475 330.323C313.774 330.159 314.066 329.98 314.35 329.783C314.631 329.59 314.908 329.415 315.181 329.258C315.462 329.094 315.743 329.01 316.027 329.01C316.348 329.01 316.632 329.12 316.888 329.331C317.139 329.535 317.267 329.805 317.267 330.133ZM313.417 324.329C313.417 324.118 313.362 323.903 313.256 323.688C313.147 323.465 312.972 323.352 312.731 323.352C312.389 323.352 312.097 323.447 311.856 323.629C311.623 323.804 311.423 324.034 311.258 324.315C311.102 324.588 310.981 324.883 310.894 325.204C310.806 325.518 310.755 325.809 310.748 326.079C310.97 326.032 311.233 325.97 311.536 325.89C311.845 325.813 312.137 325.707 312.411 325.569C312.691 325.434 312.928 325.263 313.125 325.058C313.318 324.854 313.417 324.614 313.417 324.329Z" fill="black"/>
<path d="M326.435 325.481C326.209 325.503 326.015 325.481 325.851 325.423C325.695 325.365 325.538 325.306 325.385 325.248C325.246 325.182 325.108 325.124 324.962 325.073C324.816 325.015 324.655 324.996 324.48 325.015C324.167 325.026 323.89 325.113 323.649 325.277C323.405 325.434 323.183 325.634 322.978 325.875C322.782 326.108 322.614 326.371 322.468 326.663C322.329 326.954 322.224 327.242 322.147 327.523C322.096 327.709 322.06 327.997 322.03 328.383C322.009 328.774 322.001 329.193 322.001 329.638C321.979 330.097 321.972 330.527 321.972 330.935C321.972 331.344 321.958 331.672 321.928 331.913C321.907 332.168 321.863 332.463 321.797 332.802C321.739 333.134 321.64 333.451 321.505 333.75C321.378 334.053 321.203 334.304 320.98 334.508C320.754 334.72 320.47 334.829 320.12 334.829C319.858 334.829 319.624 334.745 319.42 334.581C319.223 334.425 319.059 334.217 318.924 333.954C318.797 333.692 318.691 333.393 318.603 333.05C318.516 332.7 318.447 332.343 318.399 331.971C318.348 331.592 318.312 331.213 318.283 330.833C318.261 330.454 318.246 330.101 318.239 329.769C318.228 329.43 318.228 329.12 318.239 328.835C318.246 328.544 318.253 328.31 318.253 328.135C318.232 327.581 318.202 327.027 318.166 326.473C318.126 325.912 318.108 325.35 318.108 324.796C318.108 324.446 318.122 324.063 318.151 323.644C318.188 323.217 318.275 322.82 318.414 322.448C318.56 322.069 318.767 321.755 319.041 321.5C319.322 321.249 319.704 321.121 320.193 321.121C320.463 321.121 320.692 321.208 320.878 321.383C321.072 321.558 321.228 321.774 321.345 322.025C321.462 322.28 321.549 322.546 321.608 322.827C321.673 323.112 321.717 323.374 321.739 323.615C322.118 322.995 322.541 322.492 323.008 322.113C323.482 321.726 324.101 321.515 324.86 321.485C325.239 321.467 325.611 321.5 325.983 321.588C326.362 321.675 326.701 321.817 327.003 322.01C327.313 322.207 327.565 322.463 327.762 322.783C327.966 323.097 328.072 323.465 328.083 323.892C328.119 324.399 327.97 324.789 327.63 325.058C327.299 325.332 326.901 325.474 326.435 325.481Z" fill="black"/>
<path d="M338.375 330.133C338.375 330.669 338.204 331.194 337.865 331.708C337.522 332.226 337.096 332.682 336.582 333.079C336.064 333.48 335.517 333.805 334.934 334.056C334.35 334.301 333.814 334.421 333.33 334.421C332.484 334.421 331.733 334.213 331.084 333.794C330.431 333.378 329.881 332.842 329.436 332.19C328.998 331.541 328.663 330.826 328.43 330.046C328.196 329.269 328.08 328.507 328.08 327.756C328.08 326.969 328.189 326.13 328.415 325.233C328.637 324.329 328.973 323.498 329.421 322.74C329.877 321.981 330.446 321.351 331.128 320.844C331.817 320.341 332.633 320.085 333.578 320.085C334.121 320.085 334.635 320.18 335.123 320.363C335.608 320.538 336.031 320.793 336.392 321.121C336.76 321.453 337.056 321.85 337.282 322.317C337.504 322.776 337.617 323.286 337.617 323.848C337.617 324.588 337.457 325.284 337.136 325.933C336.822 326.586 336.407 327.151 335.882 327.625C335.357 328.092 334.751 328.471 334.073 328.763C333.403 329.054 332.71 329.222 332.003 329.258C332.061 329.718 332.239 330.046 332.542 330.25C332.852 330.454 333.22 330.556 333.65 330.556C333.971 330.556 334.281 330.48 334.584 330.323C334.883 330.159 335.174 329.98 335.459 329.783C335.739 329.59 336.017 329.415 336.29 329.258C336.571 329.094 336.851 329.01 337.136 329.01C337.457 329.01 337.741 329.12 337.996 329.331C338.248 329.535 338.375 329.805 338.375 330.133ZM334.525 324.329C334.525 324.118 334.471 323.903 334.365 323.688C334.256 323.465 334.081 323.352 333.84 323.352C333.497 323.352 333.206 323.447 332.965 323.629C332.732 323.804 332.531 324.034 332.367 324.315C332.21 324.588 332.09 324.883 332.003 325.204C331.915 325.518 331.864 325.809 331.857 326.079C332.079 326.032 332.342 325.97 332.644 325.89C332.954 325.813 333.246 325.707 333.519 325.569C333.8 325.434 334.037 325.263 334.234 325.058C334.427 324.854 334.525 324.614 334.525 324.329Z" fill="black"/>
<path d="M97.8689 295.47C97.6829 295.47 97.5334 295.528 97.4168 295.645C97.3001 295.762 97.2418 295.9 97.2418 296.053V305.97C97.2418 306.389 97.1324 306.685 96.9209 306.86C96.7168 307.027 96.3887 307.108 95.9439 307.108H89.3959C89.0058 307.108 88.7324 307.031 88.5793 306.874C88.4225 306.721 88.3459 306.473 88.3459 306.13V278.918C88.3459 278.637 88.4079 278.418 88.5355 278.262C88.6704 278.109 88.8564 278.028 89.0897 278.028H96.5418C96.7459 278.028 96.91 278.101 97.0376 278.247C97.1725 278.386 97.2418 278.583 97.2418 278.845V287.945C97.2418 288.463 97.4751 288.718 97.9418 288.718H104.533C105 288.718 105.233 288.463 105.233 287.945V278.845C105.233 278.583 105.295 278.386 105.423 278.247C105.558 278.101 105.733 278.028 105.948 278.028H113.386C113.626 278.028 113.812 278.109 113.94 278.262C114.064 278.418 114.129 278.637 114.129 278.918V306.13C114.129 306.473 114.049 306.721 113.896 306.874C113.739 307.031 113.466 307.108 113.079 307.108H106.531C106.083 307.108 105.751 307.027 105.54 306.86C105.336 306.685 105.233 306.389 105.233 305.97V296.053C105.233 295.9 105.175 295.762 105.058 295.645C104.942 295.528 104.789 295.47 104.606 295.47H97.8689Z" fill="#DB0007"/>
<path d="M142.993 295.616C142.993 299.903 141.903 302.959 139.727 304.774C137.557 306.593 134.462 307.501 130.437 307.501C125.916 307.501 122.693 306.459 120.768 304.366C118.851 302.277 117.896 299.101 117.896 294.843V278.918C117.896 278.637 117.957 278.418 118.085 278.262C118.22 278.109 118.406 278.028 118.639 278.028H126.091C126.558 278.028 126.791 278.302 126.791 278.845V295.776C126.791 297.712 127.163 299.112 127.914 299.976C128.662 300.833 129.726 301.26 131.108 301.26C132.468 301.26 133.565 300.833 134.404 299.976C135.239 299.112 135.658 297.672 135.658 295.66V278.918C135.658 278.327 135.906 278.028 136.402 278.028H142.279C142.753 278.028 142.993 278.302 142.993 278.845V295.616Z" fill="#DB0007"/>
<path d="M171.91 278.028C172.308 278.028 172.508 278.247 172.508 278.685V306.408C172.508 306.612 172.421 306.783 172.246 306.918C172.078 307.046 171.866 307.108 171.604 307.108H166.237C166.004 307.108 165.814 307.071 165.668 306.991C165.523 306.914 165.355 306.758 165.173 306.524L154.396 291.897C154.286 291.773 154.195 291.722 154.118 291.751C154.038 291.773 154.002 291.846 154.002 291.97V306.247C154.031 306.561 153.973 306.783 153.827 306.918C153.681 307.046 153.426 307.108 153.068 307.108H147.731C147.078 307.108 146.754 306.845 146.754 306.32V278.918C146.754 278.327 147.038 278.028 147.614 278.028H154.002C154.341 278.028 154.592 278.072 154.76 278.16C154.935 278.247 155.125 278.437 155.329 278.728L164.75 291.824C164.903 292.058 165.045 292.174 165.173 292.174C165.308 292.174 165.377 292.006 165.377 291.664V278.845C165.377 278.302 165.661 278.028 166.237 278.028H171.91Z" fill="#DB0007"/>
<path d="M189.433 307.501C186.72 307.501 184.321 306.874 182.243 305.62C180.162 304.366 178.554 302.623 177.416 300.385C176.286 298.15 175.725 295.583 175.725 292.685C175.725 289.702 176.323 287.077 177.518 284.81C178.721 282.535 180.399 280.77 182.55 279.516C184.708 278.262 187.173 277.635 189.943 277.635C192.196 277.635 194.205 278.05 195.966 278.874C197.724 279.691 199.149 280.755 200.239 282.068C201.326 283.373 202.037 284.751 202.368 286.21C202.456 286.53 202.5 286.778 202.5 286.953C202.5 287.198 202.445 287.358 202.339 287.435C202.23 287.515 202.062 287.562 201.829 287.58L195.12 288.601C194.836 288.601 194.657 288.554 194.581 288.455C194.501 288.35 194.42 288.142 194.333 287.828C194.129 286.625 193.637 285.637 192.86 284.868C192.091 284.091 191.055 283.701 189.754 283.701C188.208 283.701 187.034 284.365 186.239 285.685C185.441 287.008 185.043 289.265 185.043 292.451C185.043 295.798 185.474 298.124 186.341 299.437C187.205 300.742 188.445 301.391 190.06 301.391C192.178 301.391 193.593 300.472 194.304 298.635L194.42 298.285L194.493 297.978C194.493 297.745 194.351 297.628 194.07 297.628H190.381C190.089 297.628 189.885 297.566 189.768 297.439C189.652 297.304 189.593 297.074 189.593 296.753V292.991C189.593 292.553 189.87 292.335 190.425 292.335L201.391 292.407C201.865 292.407 202.23 292.521 202.485 292.743C202.748 292.969 202.879 293.261 202.879 293.618V306.437C202.879 306.623 202.813 306.783 202.689 306.918C202.562 307.046 202.405 307.107 202.223 307.107H200.735C200.257 307.107 199.838 306.86 199.481 306.364L197.906 304.089C197.877 304.012 197.822 303.972 197.745 303.972C197.694 303.972 197.603 304.038 197.468 304.162C196.798 304.825 196.149 305.379 195.529 305.824C194.916 306.262 194.1 306.652 193.079 306.991C192.065 307.33 190.851 307.501 189.433 307.501Z" fill="#DB0007"/>
<path d="M231.85 305.853C231.908 305.963 231.937 306.109 231.937 306.291C231.937 306.524 231.864 306.721 231.718 306.874C231.573 307.031 231.383 307.108 231.15 307.108H223.537C222.99 307.108 222.64 306.838 222.487 306.291L218.798 296.17C218.717 295.966 218.586 295.813 218.404 295.703C218.218 295.598 217.944 295.543 217.587 295.543H215.779C215.622 295.543 215.505 295.598 215.429 295.703C215.349 295.813 215.312 295.904 215.312 295.98V305.97C215.312 306.389 215.203 306.685 214.991 306.86C214.787 307.027 214.459 307.108 214.014 307.108H207.437C207.036 307.108 206.766 307.031 206.62 306.874C206.482 306.721 206.416 306.473 206.416 306.13V278.918C206.416 278.327 206.664 278.028 207.16 278.028H220.256C224.037 278.028 226.971 278.754 229.064 280.201C231.153 281.652 232.2 283.694 232.2 286.326C232.2 288.135 231.722 289.746 230.77 291.153C229.815 292.564 228.583 293.556 227.066 294.128C226.909 294.209 226.833 294.34 226.833 294.522C226.833 294.602 226.862 294.719 226.92 294.872L231.85 305.853ZM219.891 289.71C220.89 289.71 221.659 289.458 222.195 288.951C222.728 288.437 222.998 287.748 222.998 286.88C222.998 285.918 222.677 285.171 222.035 284.635C221.393 284.091 220.599 283.818 219.658 283.818H216.216C215.874 283.818 215.637 283.884 215.502 284.008C215.374 284.124 215.312 284.325 215.312 284.605V288.878C215.312 289.17 215.356 289.385 215.443 289.52C215.538 289.648 215.72 289.71 215.983 289.71H219.891Z" fill="#DB0007"/>
<path d="M262.073 278.028C262.546 278.028 262.787 278.185 262.787 278.495C262.787 278.575 262.732 278.714 262.627 278.918L253.454 293.735C253.268 293.997 253.155 294.289 253.118 294.61C253.078 294.923 253.06 295.496 253.06 296.33V305.97C253.06 306.389 252.951 306.685 252.739 306.86C252.535 307.027 252.207 307.108 251.762 307.108H245.185C244.784 307.108 244.514 307.031 244.368 306.874C244.23 306.721 244.164 306.473 244.164 306.13V295.82C244.164 295.452 244.124 295.16 244.048 294.945C243.967 294.723 243.821 294.442 243.61 294.099L234.437 279.122C234.339 278.94 234.291 278.768 234.291 278.612C234.291 278.225 234.576 278.028 235.152 278.028H243.027C243.395 278.028 243.661 278.083 243.829 278.189C244.004 278.287 244.179 278.506 244.354 278.845L249.181 287.551C249.305 287.814 249.407 287.945 249.487 287.945C249.622 287.945 249.742 287.825 249.852 287.58L254.591 278.845C254.744 278.506 254.916 278.287 255.102 278.189C255.284 278.083 255.557 278.028 255.918 278.028H262.073Z" fill="#DB0007"/>
</g>
<defs>
<clipPath id="clip0_5_64448">
<rect width="350" height="350" fill="white"/>
</clipPath>
</defs>
</svg>
